<?xml version="1.0" encoding="utf-8"?>
<!-- Generator: Adobe Illustrator 16.0.0, SVG Export Plug-In . SVG Version: 6.00 Build 0)  -->
<!DOCTYPE svg PUBLIC "-//W3C//DTD SVG 1.1//EN" "http://www.w3.org/Graphics/SVG/1.1/DTD/svg11.dtd">
<svg version="1.1" id="Layer_1" xmlns="http://www.w3.org/2000/svg" xmlns:xlink="http://www.w3.org/1999/xlink" x="0px" y="0px"
	 width="389.939px" height="265.185px" viewBox="61.482 57.244 389.939 265.185"
	 enable-background="new 61.482 57.244 389.939 265.185" xml:space="preserve">
<g id="Layer_1_1_">
	<g>
		<path fill="none" stroke="#000000" stroke-width="7.3519" stroke-miterlimit="10" d="M256.453,318.753H94.113
			c-14.133,0-28.955-12.431-28.955-26.778V162.838c64.095-81.202,191.295-101.87,191.295-101.87s127.195,20.668,191.293,101.87
			v129.137c0,14.349-14.821,26.778-28.96,26.778H256.453"/>
		<g>
			<g>
				<g>
					<g>
						<path d="M347.418,199.993c0,0,1.504-1.601,1.525-2.466l-3.222,1.839L347.418,199.993z"/>
						<path d="M349.786,197.197c0,0,6.375-2.078,8.44-5.238c0,0,1.894-2.07,1.464-3.275l-10.287,4.186L349.786,197.197z"/>
						<path d="M313.288,156.384c0,0,0.679-0.157,1.531-1.85c0,0,0.508-0.427,0.71,0.433c0,0-0.195,0.994,0.218,1.375
							c0,0,1.115-5.389,4.635-8.437c0,0,0.529-0.313,0.922-0.152c0,0,3.318-4.365,7.654-5.843c0.03-0.018,0.058-0.027,0.09-0.042
							c0,0,0.984,0.077,1.257-0.128c0.267-0.196,1.906-0.789,2.277-0.356c0,0,0.456,0.449-0.013,0.812c0,0-1.333,0.332-1.539,1.069
							c0,0,0.047,0.482-0.154,0.727c-0.201,0.247-0.242,0.465-0.242,0.465s3.796-2.261,9.505-2.15c0,0,3.295-1.051,6.856-0.865
							c0,0,2.037-1.082,5.064-0.904c0,0,1.733-0.658,5.887,0.141c0,0,1.151,1.866,1.132,3.255c0,0,2.201,2.309,2.072,6.802
							c0,0,2.206,1.903,2.573,7.03c0,0,0.884,1.816,0.652,3.075c0,0,1.407,2.48,0.595,7.452c0,0,1.983,2.34-1.842,8.377
							c0,0,0.248,0.156,0.779-0.22c0,0,1.012,0.415,0.214,2.186c0,0-0.54,1.117-0.935,1.523c-0.403,0.416,0,0.702,0,0.702
							s1.331-0.242,0.668,0.907c0,0,2.062,0.077,2.942-0.401c0.884-0.482,1.062-0.454,1.493-0.191c0,0,1.444,0.279-0.965,2.905
							c0,0-3.859,3.984-10.699,6.174c0,0-0.224,0.583-2.201,1.56c0,0-5.644,2.267-7.994,2.16l-22.163-4.091l-14.119-17.379
							L313.288,156.384z"/>
						<path d="M339.977,208.674c0,0,0.813-0.465,1.016-1.643c0,0-0.343-1.457-1.026-2.146l-6.423,1.629L339.977,208.674z"/>
						<path d="M339.121,205.514c0,0,3.056,1.609,11.421-3.479l2.272-1.668c0,0,0.703-0.301,0.456-0.744c0,0-0.647-0.643-1.465-0.159
							c0,0-5.202-0.138-7.402-0.081c0,0-2.978,1.184-3.965,2.439L339.121,205.514z"/>
						<path d="M307.914,162.82c0,0,1.024-4.526,1.109-5.403c0,0,0.528-2.971,2.467-4.737c0,0,0.892-0.709,1.631-1.794
							c0,0,0.372-0.541,0.828-0.252c0,0,0.533,0.159,0.188,0.929c0,0-1.21,2.171-0.352,3.851c0,0,0.354,0.059-0.292,1.346
							c0,0-1.051,3.137-0.673,3.951c0,0,0.086,2.401-0.302,4.381c-0.39,1.978-1.932,6.706-1.932,6.706L307.914,162.82z"/>
						<path d="M345.232,199.63c0,0,4.157-1.55,4.872-2.813c0,0,1.056-1.932-0.113-3.529c0,0,0,0-3.584,0.312l-1.755,6.164
							L345.232,199.63z"/>
						<path d="M310.401,197.639c0,0-3.972-2.022-4.932-2.277c-0.944-0.264-3-1.586-4.237-3.397c0,0-1.46-2.714-4.359-3.622
							c0,0-3.338-0.92-5.918-2.839c0,0-1.67-1.805-3.142-2.488c0,0-1.912-1.026-1.899-2.221c0,0,0.248-0.185,1.028,0.248
							c0,0,6.147,3.579,8.342,3.954c0,0,2.319-0.322,6.14,1.657l4.912,2.654L310.401,197.639z"/>
						<path d="M327.886,209.104c0,0,1.813,1.205,1.683,2.058c-0.134,0.853,0.321,2.175,3.122,2.291c0,0-2.886,1.019-7.602-2.56
							l-4.625-3.522l2.179-1.931L327.886,209.104z"/>
						<path d="M334.237,210.672c0,0,2.191,1.957,2.364,2.946c0,0,0.124,1.28,4.621,3.628c0,0,2.69,1.67,2.52,2.264
							c0,0,0.061,0.756-1.478-0.139c0,0-0.562-0.57-2.618-1.156c0,0-1.591-0.021-3.182-1.97c0,0-1.613-3.628-4.916-2.611
							c0,0-2.355-0.325-2.491-1.538c-0.131-1.219-0.168-2.283-1.172-2.992L334.237,210.672z"/>
						<path d="M310.388,199.33c0,0-2.229-0.694-3.54-2.186c0,0-1.458-0.938-1.94-0.901c0,0-0.536,0.021,0.037,0.583
							c0,0,0.309,0.025,0.658,0.73c0,0,0.859,1.57,2.624,2.942c0,0-0.56,0.694-0.42,0.999c0.137,0.304,1,3.145-2.375,6.498
							c0,0-7.685,7.38-16.462,9.638c0,0-4.4,1.843-9.432,0.045c0,0-1.35-0.452-1.36,1.572c0,0-0.008,1.808,1.826,2.115
							c0,0,3.709,0.864,8.057-0.455c0,0,5.734-1.884,12.399-6.336c0,0,5.864-4,7.366-5.267c0,0,2.761-2.467,2.885-4.151
							c0,0,1.108,3.267,1.392,4.291c0.015,0.062,0.028,0.12,0.042,0.165c0.175,0.772,0.752,2.172,1.454,2.83
							c0,0,0.428,0.263,0.173-0.282c0,0,0.314-1.673,0.643-2.731c0,0,0.708-2.308,0.433-2.926c-0.281-0.609,0.94,0.398,1.224,0.737
							c0.289,0.338,0.418,0.834,0.664,1.315c0,0,0.22,0.67,0.815,0.664c0,0,0.277,0.092-0.258-0.771c0,0-0.169-1.711-2.104-3.9
							c0,0-1.601-1.466-2.738-2.523C311.318,200.971,310.388,199.33,310.388,199.33z"/>
						<path d="M323.756,189.559c0,0,0.348-1.735,13.335-0.289c0,0,4.126,0.513,9.106,3.208c0,0,1.704,2.082,0.678,4.48
							c0,0-1.482,2.489-2.345,2.999l-4.749,1.735l-19.361-6.104L323.756,189.559z"/>
						<path d="M303.755,174.326c0,0-0.603-3.577,0.22-5.87c0,0-0.905-8.215,2.695-9.455c0,0,0.529-0.235,1.356,2.489
							c0,0,2.432,6.941,2.874,10.511c0.45,3.575-3.404,11.13-3.404,11.13L303.755,174.326z"/>
						<path d="M318.073,199.045c0,0,9.744,6.842,27.896,10.533c0,0,3.191,0.783-0.358,2.17c0,0-0.979,0.635-5.606-0.131
							c-4.624-0.758-6.4,0.644-17.654-4.494c-11.253-5.131-5.673-6.756-5.673-6.756L318.073,199.045z"/>
						<path d="M299.728,166.874c0,0-0.192,0.101-0.945,2.381c0,0-1,5.643,6.469,19.376c0,0,3.908-3.341,2.295-7.881
							c0,0-2.125-4.15-6.392-10.573c0,0-0.817-0.59-0.655-1.644C300.5,168.533,300.694,166.207,299.728,166.874z"/>
						<path d="M335.195,196.631c-0.322-0.042-12.901-4.697-16.405-0.449c0,0-1.304,5.174,6.833,9.301c0,0,5.066,3.213,15.218-0.062
							c0,0,3.537-1.761-2.095-6.601c0,0,0.165-0.274-0.005-0.957C338.741,197.863,339.423,197.238,335.195,196.631z"/>
						<path d="M310.309,197.8c0,0-3.684-2.72-5.057-9.169c0,0-0.428-3.341,0.991-5.208c0,0,1.671-0.172,3.481,0.282
							c0,0,10.772,3.666,13.026,15.053C322.75,198.758,317.962,202.756,310.309,197.8z"/>
						<path d="M315.003,205.859c0,0-7.163-5.045-7.089-9.616c0,0,3.366,1.091,5.733,1.7c0.166,0.047,0.343,0.098,0.518,0.149
							c2.715,0.912,6.145,4.246,8.505,8.888c0,0,0.306,0.324-0.296,0.694C322.374,207.676,319.722,209.215,315.003,205.859z"/>
						<path d="M307.299,181.987c0,0,1.706-9.764,4.972-10.459c0,0,3.123-0.779,5.358-1.376c0,0,0.753,0.051,2.495-1.183
							c0,0,2.553-0.97,1.726,1.481c0,0-0.732,1.036-0.396,2.391c0,0,11.068,15.577-3.015,23.554l-11.072-13.001L307.299,181.987z"/>
					</g>
					<g>
						<path d="M165.208,199.988c0,0-1.503-1.592-1.526-2.457l3.221,1.835L165.208,199.988z"/>
						<path d="M162.843,197.198c0,0-6.376-2.081-8.444-5.238c0,0-1.894-2.067-1.463-3.275l10.288,4.187L162.843,197.198z"/>
						<path d="M199.338,156.379c0,0-0.68-0.147-1.53-1.848c0,0-0.51-0.428-0.714,0.438c0,0,0.196,0.99-0.216,1.372
							c0,0-1.112-5.391-4.629-8.44c0,0-0.536-0.309-0.928-0.147c0,0-3.318-4.367-7.651-5.849c-0.031-0.018-0.061-0.018-0.089-0.03
							c0,0-0.988,0.072-1.26-0.133c-0.268-0.2-1.904-0.793-2.278-0.362c0,0-0.456,0.448,0.015,0.822c0,0,1.33,0.33,1.539,1.059
							c0,0-0.049,0.482,0.157,0.73c0.199,0.251,0.239,0.472,0.239,0.472s-3.797-2.267-9.508-2.156c0,0-3.292-1.051-6.856-0.863
							c0,0-2.038-1.089-5.063-0.907c0,0-1.73-0.657-5.889,0.14c0,0-1.15,1.869-1.132,3.25c0,0-2.201,2.312-2.072,6.806
							c0,0-2.206,1.902-2.571,7.026c0,0-0.887,1.821-0.656,3.079c0,0-1.406,2.478-0.595,7.452c0,0-1.98,2.333,1.843,8.377
							c0,0-0.247,0.157-0.771-0.224c0,0-1.018,0.419-0.218,2.192c0,0,0.537,1.116,0.934,1.52c0.401,0.413,0,0.707,0,0.707
							s-1.333-0.248-0.667,0.907c0,0-2.059,0.078-2.946-0.405c-0.882-0.481-1.061-0.449-1.489-0.191c0,0-1.446,0.276,0.965,2.908
							c0,0,3.856,3.985,10.696,6.177c0,0,0.227,0.58,2.201,1.548c0,0,5.646,2.278,7.996,2.164l22.16-4.093l14.119-17.38
							L199.338,156.379z"/>
						<path d="M172.648,208.674c0,0-0.812-0.469-1.016-1.648c0,0,0.343-1.446,1.026-2.145l6.423,1.631L172.648,208.674z"/>
						<path d="M173.503,205.51c0,0-3.056,1.619-11.419-3.48l-2.274-1.668c0,0-0.699-0.291-0.455-0.735c0,0,0.646-0.646,1.468-0.164
							c0,0,5.205-0.144,7.399-0.073c0,0,2.98,1.182,3.965,2.428L173.503,205.51z"/>
						<path d="M204.715,162.818c0,0-1.028-4.525-1.113-5.405c0,0-0.528-2.963-2.466-4.735c0,0-0.894-0.712-1.631-1.791
							c0,0-0.374-0.538-0.83-0.258c0,0-0.532,0.167-0.188,0.936c0,0,1.216,2.168,0.354,3.854c0,0-0.356,0.057,0.29,1.345
							c0,0,1.051,3.135,0.676,3.946c0,0-0.086,2.402,0.299,4.386c0.39,1.98,1.934,6.708,1.934,6.708L204.715,162.818z"/>
						<path d="M167.393,199.625c0,0-4.157-1.547-4.87-2.809c0,0-1.06-1.926,0.113-3.527c0,0,0,0,3.584,0.311l1.755,6.166
							L167.393,199.625z"/>
						<path d="M202.224,197.633c0,0,3.974-2.02,4.93-2.277c0.949-0.252,3.005-1.582,4.239-3.39c0,0,1.461-2.716,4.359-3.628
							c0,0,3.338-0.916,5.917-2.839c0,0,1.673-1.801,3.144-2.49c0,0,1.912-1.021,1.899-2.211c0,0-0.248-0.194-1.023,0.238
							c0,0-6.149,3.59-8.347,3.954c0,0-2.319-0.319-6.138,1.658l-4.914,2.657L202.224,197.633z"/>
						<path d="M184.738,209.109c0,0-1.813,1.199-1.682,2.05c0.134,0.849-0.321,2.179-3.123,2.298c0,0,2.888,1.009,7.606-2.566
							l4.625-3.518l-2.184-1.939L184.738,209.109z"/>
						<path d="M178.39,210.669c0,0-2.194,1.963-2.369,2.946c0,0-0.122,1.287-4.617,3.633c0,0-2.698,1.658-2.521,2.268
							c0,0-0.06,0.754,1.479-0.149c0,0,0.56-0.566,2.622-1.15c0,0,1.588-0.024,3.176-1.969c0,0,1.613-3.631,4.918-2.608
							c0,0,2.355-0.324,2.491-1.535c0.13-1.224,0.168-2.295,1.169-2.992L178.39,210.669z"/>
						<path d="M202.237,199.328c0,0,2.229-0.695,3.543-2.186c0,0,1.454-0.937,1.935-0.896c0,0,0.54,0.016-0.036,0.582
							c0,0-0.309,0.021-0.658,0.729c0,0-0.856,1.569-2.623,2.94c0,0,0.556,0.698,0.422,1c-0.139,0.31-1.002,3.147,2.373,6.494
							c0,0,7.685,7.385,16.465,9.646c0,0,4.398,1.838,9.435,0.043c0,0,1.348-0.459,1.358,1.57c0,0,0.007,1.809-1.828,2.118
							c0,0-3.712,0.864-8.057-0.452c0,0-5.736-1.893-12.398-6.337c0,0-5.863-4.001-7.365-5.277c0,0-2.767-2.463-2.888-4.144
							c0,0-1.108,3.265-1.392,4.292c-0.017,0.06-0.029,0.124-0.042,0.161c-0.175,0.777-0.752,2.174-1.455,2.824
							c0,0-0.427,0.264-0.173-0.274c0,0-0.314-1.67-0.641-2.736c0,0-0.707-2.308-0.431-2.915c0.278-0.611-0.942,0.391-1.226,0.735
							c-0.286,0.335-0.416,0.829-0.661,1.313c0,0-0.22,0.666-0.818,0.66c0,0-0.279,0.098,0.261-0.771c0,0,0.167-1.711,2.105-3.896
							c0,0,1.601-1.463,2.735-2.527C201.31,200.977,202.237,199.328,202.237,199.328z"/>
						<path d="M188.874,189.553c0,0-0.353-1.726-13.34-0.288c0,0-4.121,0.521-9.104,3.219c0,0-1.704,2.074-0.68,4.479
							c0,0,1.482,2.486,2.344,2.996l4.753,1.729l19.361-6.099L188.874,189.553z"/>
						<path d="M208.87,174.328c0,0,0.603-3.583-0.216-5.87c0,0,0.903-8.218-2.699-9.454c0,0-0.529-0.246-1.354,2.486
							c0,0-2.434,6.94-2.877,10.511c-0.445,3.569,3.405,11.125,3.405,11.125L208.87,174.328z"/>
						<path d="M194.552,199.045c0,0-9.744,6.848-27.896,10.531c0,0-3.191,0.787,0.358,2.177c0,0,0.981,0.627,5.606-0.137
							c4.624-0.751,6.402,0.646,17.654-4.493c11.253-5.131,5.676-6.762,5.676-6.762L194.552,199.045z"/>
						<path d="M212.9,166.873c0,0,0.19,0.102,0.945,2.381c0,0,0.998,5.643-6.471,19.377c0,0-3.908-3.343-2.295-7.881
							c0,0,2.125-4.155,6.394-10.575c0,0,0.814-0.589,0.655-1.644C212.127,168.532,211.937,166.207,212.9,166.873z"/>
						<path d="M177.431,196.629c0.321-0.045,12.902-4.695,16.405-0.443c0,0,1.303,5.174-6.832,9.295c0,0-5.064,3.222-15.219-0.062
							c0,0-3.536-1.755,2.095-6.601c0,0-0.165-0.27,0.005-0.957C173.884,197.861,173.206,197.236,177.431,196.629z"/>
						<path d="M202.315,197.796c0,0,3.685-2.714,5.058-9.165c0,0,0.425-3.338-0.989-5.21c0,0-1.669-0.175-3.48,0.29
							c0,0-10.773,3.669-13.028,15.05C189.876,198.761,194.665,202.75,202.315,197.796z"/>
						<path d="M197.625,205.861c0,0,7.166-5.047,7.091-9.615c0,0-3.368,1.089-5.738,1.701c-0.165,0.041-0.342,0.094-0.524,0.154
							c-2.706,0.903-6.134,4.232-8.498,8.873c0,0-0.306,0.332,0.299,0.694C190.254,207.67,192.903,209.215,197.625,205.861z"/>
						<path d="M205.326,181.987c0,0-1.704-9.767-4.972-10.457c0,0-3.123-0.789-5.358-1.382c0,0-0.747,0.052-2.492-1.174
							c0,0-2.556-0.975-1.728,1.478c0,0,0.733,1.026,0.395,2.386c0,0-11.066,15.582,3.014,23.551l11.073-12.994L205.326,181.987z"/>
					</g>
				</g>
				<g>
					<g>
						<path d="M283.204,148.543c0,0,0.256-2.18-0.243-2.881l-1.491,3.39L283.204,148.543z"/>
						<path d="M283.448,144.889c0,0,3.88-5.467,3.674-9.242c0,0,0.289-2.789-0.77-3.499l-5.786,9.496L283.448,144.889z"/>
						<path d="M229.854,133.811c0,0,0.456-0.527,0.136-2.4c0,0,0.156-0.645,0.83-0.067c0,0,0.438,0.912,0.993,0.975
							c0,0-2.304-5.002-1.292-9.544c0,0,0.248-0.568,0.655-0.67c0,0,0.082-5.487,2.674-9.26c0.023-0.032,0.044-0.056,0.06-0.081
							c0,0,0.831-0.527,0.927-0.851c0.1-0.329,1.069-1.777,1.621-1.649c0,0,0.639,0.083,0.474,0.665c0,0-0.874,1.054-0.601,1.773
							c0,0,0.317,0.356,0.307,0.68c-0.01,0.319,0.082,0.521,0.082,0.521s1.706-4.085,6.366-7.388c0,0,2.026-2.811,4.995-4.787
							c0,0,0.995-2.084,3.536-3.744c0,0,0.998-1.559,4.817-3.393c0,0,2.04,0.819,2.842,1.941c0,0,3.14,0.547,5.707,4.235
							c0,0,2.905,0.212,6.246,4.117c0,0,1.791,0.933,2.348,2.084c0,0,2.606,1.152,4.909,5.639c0,0,2.98,0.702,3.495,7.828
							c0,0,0.294-0.026,0.489-0.645c0,0,1.066-0.257,1.479,1.644c0,0,0.229,1.201,0.149,1.778c-0.083,0.566,0.42,0.565,0.42,0.565
							s0.919-0.998,1.076,0.325c0,0,1.702-1.16,2.123-2.076c0.42-0.914,0.59-1,1.087-1.036c0,0,1.324-0.642,0.952,2.905
							c0,0-0.737,5.499-4.932,11.334c0,0,0.162,0.6-0.846,2.558c0,0-3.191,5.194-5.146,6.506l-20.25,9.904l-21.671-5.56
							L229.854,133.811z"/>
						<path d="M282.376,159.956c0,0,0.381-0.855-0.16-1.924c0,0-1.138-0.966-2.097-1.119l-4.205,5.135L282.376,159.956z"/>
						<path d="M279.813,157.926c0,0,3.415-0.521,7.113-9.6l0.831-2.695c0,0,0.393-0.651-0.068-0.864c0,0-0.901-0.136-1.275,0.741
							c0,0-4.271,2.989-6,4.346c0,0-1.691,2.723-1.736,4.32L279.813,157.926z"/>
						<path d="M229.365,142.194c0,0-1.866-4.256-2.319-5.014c0,0-1.34-2.7-0.833-5.277c0,0,0.295-1.101,0.249-2.41
							c0,0-0.025-0.652,0.511-0.7c0,0,0.527-0.186,0.704,0.642c0,0,0.321,2.461,2.009,3.303c0,0,0.322-0.165,0.568,1.256
							c0,0,1.012,3.147,1.8,3.574c0,0,1.498,1.881,2.36,3.711c0.864,1.823,2.433,6.547,2.433,6.547L229.365,142.194z"/>
						<path d="M281.23,149.552c0,0,2.421-3.72,2.244-5.158c0,0-0.114-2.343-2.005-2.933c0,0-0.186,0.161-2.876,2.553l2.247,5.998
							L281.23,149.552z"/>
						<path d="M252.017,169.238c0,0-4.093,0.688-5.286,0.559c-0.985-0.107-3.358,0.521-5.425-0.2c0,0-2.788-1.314-5.661-0.32
							c0,0-3.227,1.248-6.442,1.24c0,0-2.417-0.451-4.008-0.126c0,0-2.144,0.319-2.839-0.655c0,0,0.087-0.299,0.97-0.413
							c0,0,7.071-0.779,9.052-1.787c0,0,1.67-1.643,5.927-2.329l5.521-0.788L252.017,169.238z"/>
						<path d="M272.917,167.503c0,0,2.048-0.766,2.45,0c0.399,0.768,1.563,2.304,3.883,0.728c0,0-1.608,2.436-7.523,2.368
							l-5.804-0.066l0.595-2.854L272.917,167.503z"/>
						<path d="M278.947,164.978c0,0,2.929,0.275,3.651,0.964c0,0,0.869,0.956,5.874,0.166c0,0,3.153-0.267,3.37,0.319
							c0,0,0.498,0.57-1.271,0.768c0,0-0.792-0.125-2.792,0.632c0,0-1.291,0.927-3.727,0.309c0,0-3.45-1.955-5.503,0.833
							c0,0-2.084,1.138-2.917,0.241c-0.83-0.901-1.49-1.735-2.715-1.706L278.947,164.978z"/>
						<path d="M257.974,154.251c0,0-0.742-1.597,10.557-8.178c0,0,3.623-2.042,9.229-2.842c0,0,2.599,0.664,3.207,3.204
							c0,0,0.289,2.881-0.105,3.803l-2.792,4.225l-19.184,6.625L257.974,154.251z"/>
						<path d="M232.856,153.916c0,0-2.616-2.515-3.308-4.853c0,0-5.615-6.064-3.447-9.198c0,0,0.277-0.517,2.561,1.19
							c0,0,6.079,4.127,8.559,6.732c2.472,2.605,3.874,10.972,3.874,10.972L232.856,153.916z"/>
						<path d="M259.05,165.263c0,0,11.898-0.304,28.682-8.146c0,0,3.027-1.271,1.003,1.957c0,0-0.413,1.093-4.584,3.232
							c-4.17,2.142-4.766,4.33-16.864,6.898c-12.101,2.575-8.576-2.061-8.576-2.061L259.05,165.263z"/>
						<path d="M225.189,150.326c0,0-0.094,0.185,0.658,2.476c0,0,2.545,5.129,16.709,11.722c0,0,0.507-4.85-3.482-7.539
							c0,0-3.528-2.237-10.776-4.867c0,0-1.004,0.018-1.502-0.922C226.796,151.196,225.569,149.21,225.189,150.326z"/>
						<path d="M271.38,153.124c-0.29,0.157-14.123,4.282-14.415,9.78c0,0,2.981,4.564,11.976,3.038c0,0,5.979-0.432,12.198-9.114
							c0,0,1.796-3.52-5.61-4.064c0,0-0.025-0.315-0.57-0.764C274.959,152,275.136,151.093,271.38,153.124z"/>
						<path d="M252.063,168.879c0,0-4.575,0.011-9.507-4.355c0,0-2.325-2.426-2.302-4.777c0,0,1.241-1.141,2.971-1.846
							c0,0,9.358-0.123,17.927,7.688C261.153,165.588,261.158,168.305,252.063,168.879z"/>
						<path d="M260.622,172.564c0,0-7.43-0.61-10.469-3.731c0,0,2.411-0.901,4.683-1.824c0.16-0.065,0.332-0.129,0.513-0.185
							c2.719-0.893,7.453-0.249,12.111,2.076c0,0,0.438,0.082,0.169,0.734C267.629,169.635,266.416,172.457,260.622,172.564z"/>
						<path d="M240.254,157.963c0,0-4.431-8.863-2.212-11.366c0,0,2.048-2.5,3.489-4.306c0,0,0.628-0.402,1.294-2.426
							c0,0,1.484-2.302,2.272,0.161c0,0,0.027,1.262,1.101,2.154c0,0,18.153,5.936,11.57,20.724l-16.622-3.85L240.254,157.963z"/>
					</g>
					<path d="M251.936,168.387c0,0-0.77,0.932-3.48,1.785c0,0-1.673,0.434-1.97,0.814c0,0-0.354,0.408,0.452,0.37
						c0,0,0.225-0.213,0.982,0.01c0,0,1.205,0.831,3.94,0.066c0,0,2.991-0.585,2.776,7.034c0,0-0.595,20.587,0.053,23.125
						c0,0,0.217,1.298,1.837,1.244c0,0,1.352,0.054,1.352-1.351c0,0-3.566-29.125,1.297-27.612c0,0,0.947,0.293,1.895,0.78
						c0.056,0.028,0.111,0.063,0.146,0.079c0.69,0.399,2.109,0.922,3.063,0.846c0,0,0.483-0.136-0.084-0.314
						c0,0-1.015-1.362-1.577-2.326c0,0-1.218-2.083-1.852-2.293c-0.64-0.209,0.926-0.427,1.372-0.401
						c0.44,0.016,0.891,0.257,1.415,0.404c0,0,0.639,0.292,1.04-0.153c0,0,0.261-0.138-0.745-0.332c0,0-1.372-1.037-4.292-1.094
						c0,0-2.16,0.186-3.713,0.297C254.305,169.484,251.936,168.387,251.936,168.387z"/>
				</g>
			</g>
			<g>
				<g>
					<text transform="matrix(1.0577 0 0 1 309.2603 130.7178)" font-family="'DaunPenh'" font-size="36.9334">2014</text>
				</g>
				<g>
					<text transform="matrix(1.0577 0 0 1 151.167 130.7178)" font-family="'DayRoman'" font-size="21.5204">EST</text>
					<g>
						<path d="M204.019,119.538c0,0.689-0.15,1.303-0.459,1.84c-0.301,0.535-0.704,0.988-1.205,1.355
							c-0.498,0.37-1.072,0.648-1.714,0.842c-0.644,0.192-1.301,0.289-1.97,0.289c-0.204,0-0.372-0.003-0.5-0.014
							c-0.134-0.008-0.257-0.017-0.376-0.023c-0.119-0.007-0.245-0.018-0.376-0.022c-0.128-0.01-0.299-0.017-0.502-0.017
							c-0.353,0-0.696,0.014-1.021,0.032c-0.327,0.02-0.667,0.03-1.022,0.03c-0.078,0-0.117-0.036-0.117-0.108
							c0-0.08,0.023-0.139,0.07-0.181c0.047-0.042,0.103-0.071,0.167-0.095c0.062-0.024,0.131-0.038,0.204-0.049
							c0.071-0.006,0.133-0.021,0.196-0.036c0.27-0.054,0.437-0.139,0.501-0.257c0.062-0.117,0.103-0.294,0.122-0.537
							c0.005-0.077,0.012-0.168,0.016-0.272c0.005-0.106,0.01-0.248,0.015-0.428c0.005-0.18,0.008-0.418,0.013-0.704
							c0.002-0.286,0.005-0.664,0.005-1.131v-2.798c0-0.125-0.002-0.268-0.005-0.417c-0.005-0.156-0.013-0.299-0.021-0.442
							c-0.007-0.141-0.018-0.265-0.028-0.374c-0.016-0.108-0.031-0.179-0.047-0.22c-0.06-0.119-0.152-0.191-0.273-0.221
							c-0.124-0.026-0.248-0.042-0.376-0.042c-0.067,0-0.134,0-0.203,0.003c-0.068,0.006-0.134,0.006-0.201,0.006
							c-0.076,0-0.15-0.02-0.217-0.06c-0.043-0.034-0.06-0.08-0.043-0.146c0.01-0.063,0.035-0.109,0.066-0.146
							c0.037-0.029,0.137-0.06,0.309-0.087c0.167-0.025,0.372-0.053,0.613-0.072c0.243-0.02,0.501-0.037,0.773-0.048
							c0.278-0.012,0.543-0.021,0.804-0.031c0.258-0.007,0.49-0.014,0.691-0.018c0.201-0.004,0.351-0.008,0.433-0.008
							c0.847,0,1.617,0.104,2.319,0.315c0.7,0.205,1.298,0.509,1.798,0.907c0.5,0.396,0.885,0.876,1.153,1.446
							C203.884,118.173,204.019,118.816,204.019,119.538z M202.571,119.454c0-0.967-0.26-1.798-0.781-2.482
							c-0.523-0.684-1.281-1.167-2.28-1.449c-0.178-0.045-0.361-0.087-0.546-0.123c-0.188-0.035-0.376-0.056-0.572-0.056h-0.358
							c0.008,0-0.013,0.004-0.07,0.01c-0.051,0.001-0.118,0.014-0.195,0.039c-0.077,0.027-0.154,0.062-0.237,0.114
							c-0.078,0.052-0.139,0.129-0.183,0.222c-0.026,0.082-0.042,0.159-0.049,0.234c-0.01,0.075-0.013,0.157-0.013,0.236
							c0,0.208,0.003,0.422,0.005,0.638c0.005,0.217,0.008,0.427,0.008,0.633c0,0.706-0.005,1.404-0.013,2.098
							c-0.007,0.695-0.013,1.391-0.013,2.096c0,0.351,0.023,0.645,0.067,0.876c0.049,0.231,0.124,0.418,0.232,0.551
							c0.105,0.137,0.239,0.234,0.399,0.289c0.16,0.057,0.358,0.085,0.585,0.085c0.592,0,1.135-0.105,1.633-0.312
							c0.495-0.211,0.917-0.495,1.267-0.861c0.353-0.366,0.627-0.79,0.819-1.278C202.473,120.527,202.571,120.006,202.571,119.454z"
							/>
					</g>
				</g>
			</g>
			<g>
				<g>
					<g>
						<g>
							<g>
								<path d="M175.453,297.137c0,0.581-0.113,1.081-0.337,1.502c-0.225,0.42-0.527,0.769-0.905,1.043s-0.82,0.479-1.325,0.614
									c-0.505,0.134-1.043,0.207-1.613,0.218c-0.055,0.01-0.104,0.016-0.148,0.016s-0.093,0-0.148,0h-4.855
									c-0.121,0-0.258-0.014-0.411-0.038c-0.154-0.026-0.23-0.117-0.23-0.272c0-0.104,0.085-0.169,0.255-0.193
									c0.17-0.026,0.359-0.056,0.568-0.086c0.209-0.031,0.406-0.084,0.593-0.155c0.187-0.073,0.296-0.197,0.329-0.374
									c0.011-0.021,0.022-0.188,0.033-0.498c0.011-0.311,0.019-0.713,0.025-1.206c0.005-0.492,0.014-1.048,0.024-1.665
									c0.011-0.617,0.019-1.247,0.025-1.891c0.005-0.644,0.008-1.271,0.008-1.883c0-0.613,0-1.151,0-1.619
									c0-0.196-0.022-0.354-0.066-0.475c-0.044-0.119-0.11-0.21-0.197-0.271c-0.088-0.062-0.201-0.106-0.338-0.133
									c-0.137-0.025-0.299-0.05-0.485-0.069c-0.033,0-0.085-0.007-0.156-0.017c-0.072-0.011-0.14-0.025-0.206-0.047
									c-0.066-0.021-0.126-0.047-0.181-0.078c-0.055-0.031-0.083-0.066-0.083-0.107c0-0.104,0.066-0.178,0.198-0.219
									c0.131-0.041,0.293-0.066,0.485-0.078c0.192-0.01,0.389-0.01,0.593,0c0.203,0.012,0.37,0.017,0.502,0.017
									c0.494,0,0.984-0.021,1.473-0.062c0.488-0.041,0.984-0.062,1.489-0.062c0.45,0,0.919,0.047,1.407,0.141
									c0.488,0.094,0.938,0.246,1.35,0.459s0.749,0.496,1.012,0.849c0.264,0.354,0.395,0.784,0.395,1.292
									c0,0.592-0.192,1.076-0.576,1.455s-0.856,0.656-1.416,0.832c0.055,0.041,0.165,0.086,0.329,0.133s0.291,0.086,0.378,0.115
									c0.659,0.24,1.19,0.598,1.597,1.074C175.25,295.871,175.453,296.452,175.453,297.137z M173.725,297.292
									c0-0.487-0.121-0.923-0.362-1.308c-0.197-0.321-0.436-0.572-0.716-0.754c-0.28-0.183-0.584-0.319-0.914-0.414
									c-0.329-0.092-0.672-0.149-1.029-0.17c-0.357-0.021-0.71-0.031-1.062-0.031h-0.28c-0.121,0-0.233,0.025-0.337,0.078
									c-0.104,0.052-0.156,0.154-0.156,0.312v3.175c0,0.238,0.019,0.487,0.058,0.746c0.038,0.26,0.162,0.479,0.37,0.654
									c0.175,0.145,0.406,0.232,0.691,0.264c0.285,0.031,0.538,0.047,0.757,0.047c1.009,0,1.758-0.24,2.247-0.724
									C173.48,298.686,173.725,298.061,173.725,297.292z M172.951,291.752c0-0.693-0.228-1.225-0.683-1.587
									c-0.456-0.363-1.035-0.545-1.737-0.545h-0.23c-0.121,0-0.252,0.003-0.395,0.008c-0.143,0.005-0.282,0.026-0.419,0.062
									c-0.137,0.037-0.255,0.092-0.354,0.164c-0.099,0.072-0.159,0.176-0.181,0.312c-0.022,0.114-0.036,0.229-0.041,0.351
									c-0.006,0.119-0.008,0.235-0.008,0.351v2.972c0,0.053,0.044,0.109,0.132,0.172c0.087,0.062,0.225,0.094,0.412,0.094h0.56
									c0.395,0,0.771-0.041,1.127-0.125c0.356-0.082,0.669-0.217,0.938-0.403c0.269-0.188,0.483-0.431,0.642-0.731
									C172.872,292.541,172.951,292.178,172.951,291.752z"/>
								<path d="M183.238,294.958c0.219,0.083,0.431,0.267,0.634,0.552c0.203,0.286,0.406,0.627,0.609,1.02
									c0.203,0.396,0.42,0.812,0.65,1.254s0.488,0.857,0.773,1.253c0.285,0.396,0.604,0.739,0.955,1.034
									c0.351,0.296,0.757,0.49,1.218,0.584c0.121,0.052,0.244,0.091,0.371,0.117c0.126,0.024,0.189,0.084,0.189,0.179
									c0,0.062-0.049,0.14-0.148,0.233c-0.121,0.041-0.318,0.062-0.592,0.062c-0.11,0-0.22-0.007-0.33-0.017
									c-0.109-0.011-0.203-0.021-0.28-0.03c-0.933-0.156-1.714-0.515-2.345-1.074c-0.631-0.56-1.111-1.245-1.44-2.054
									c-0.187-0.332-0.359-0.676-0.518-1.027c-0.159-0.354-0.34-0.672-0.543-0.957s-0.439-0.521-0.708-0.708
									s-0.601-0.28-0.996-0.28c-0.219,0-0.354,0.043-0.403,0.125c-0.05,0.084-0.074,0.25-0.074,0.498v3.205
									c0,0.271,0.036,0.473,0.107,0.607c0.071,0.134,0.17,0.232,0.296,0.295s0.277,0.104,0.453,0.125
									c0.175,0.021,0.373,0.052,0.592,0.094c0.022,0.01,0.066,0.016,0.132,0.016c0.087,0,0.17,0.01,0.247,0.03
									c0.076,0.021,0.115,0.073,0.115,0.156c0,0.146-0.055,0.233-0.165,0.265c-0.11,0.03-0.274,0.047-0.494,0.047
									c-0.395,0-0.79-0.019-1.185-0.055c-0.395-0.037-0.785-0.055-1.168-0.055c-0.34,0-0.678,0.016-1.012,0.047
									c-0.335,0.031-0.672,0.046-1.012,0.046c-0.143,0-0.236-0.013-0.28-0.038c-0.044-0.025-0.066-0.111-0.066-0.257
									c0-0.071,0.043-0.122,0.131-0.147s0.2-0.05,0.337-0.069c0.137-0.021,0.283-0.044,0.437-0.07
									c0.153-0.024,0.299-0.075,0.436-0.147c0.137-0.072,0.25-0.172,0.337-0.295c0.088-0.125,0.132-0.297,0.132-0.515v-3.206
									c0-0.882,0.008-1.758,0.024-2.63c0.017-0.871,0.025-1.748,0.025-2.63c0-0.207-0.044-0.368-0.132-0.482
									c-0.088-0.113-0.2-0.193-0.337-0.24c-0.137-0.047-0.283-0.075-0.436-0.086c-0.154-0.01-0.299-0.021-0.436-0.03
									c-0.138-0.011-0.25-0.031-0.337-0.062c-0.088-0.031-0.132-0.095-0.132-0.188c0-0.146,0.058-0.23,0.173-0.258
									c0.115-0.025,0.233-0.039,0.354-0.039s0.244,0.006,0.37,0.017s0.25,0.017,0.37,0.017h1.432c0.417,0,0.836-0.008,1.259-0.023
									c0.422-0.016,0.842-0.023,1.259-0.023c0.362,0,0.751,0.045,1.168,0.133s0.807,0.248,1.168,0.481
									c0.362,0.233,0.664,0.548,0.905,0.942c0.241,0.394,0.362,0.896,0.362,1.509c0,0.332-0.074,0.641-0.222,0.926
									c-0.148,0.286-0.34,0.543-0.576,0.771c-0.236,0.229-0.5,0.432-0.79,0.607C183.812,294.684,183.523,294.833,183.238,294.958z
									 M184.012,292.156c0-0.414-0.071-0.777-0.214-1.09c-0.143-0.312-0.337-0.572-0.584-0.785s-0.541-0.373-0.881-0.482
									c-0.34-0.107-0.713-0.162-1.119-0.162c-0.384,0-0.637,0.063-0.757,0.193s-0.181,0.318-0.181,0.568v0.528
									c0,0.415-0.006,0.882-0.017,1.4c-0.011,0.519-0.017,0.985-0.017,1.399c0,0.155-0.003,0.289-0.008,0.396
									c-0.005,0.109,0.005,0.2,0.033,0.271c0.027,0.073,0.087,0.125,0.181,0.155c0.093,0.031,0.238,0.048,0.436,0.048
									c0.438,0,0.85-0.033,1.234-0.102c0.384-0.066,0.716-0.191,0.996-0.374c0.28-0.181,0.5-0.431,0.659-0.747
									C183.932,293.062,184.012,292.654,184.012,292.156z"/>
								<path d="M197.294,291.581c-0.109,0-0.197-0.063-0.263-0.194c-0.066-0.13-0.132-0.283-0.197-0.459
									c-0.066-0.177-0.14-0.351-0.222-0.521c-0.083-0.173-0.201-0.3-0.354-0.382c-0.099-0.053-0.242-0.096-0.428-0.133
									c-0.186-0.035-0.395-0.063-0.625-0.086c-0.23-0.021-0.469-0.033-0.716-0.039c-0.247-0.004-0.48-0.008-0.699-0.008h-0.725
									c-0.252,0-0.444,0.051-0.576,0.148c-0.132,0.099-0.228,0.226-0.288,0.381c-0.061,0.156-0.096,0.33-0.107,0.521
									c-0.011,0.191-0.017,0.375-0.017,0.553c0,0.353,0.002,0.705,0.008,1.058c0.005,0.354,0.008,0.706,0.008,1.06v0.356
									c0,0.136,0.011,0.244,0.033,0.327c0.044,0.052,0.109,0.088,0.197,0.109c0.088,0.021,0.184,0.033,0.288,0.037
									c0.104,0.006,0.206,0.006,0.305,0c0.099-0.004,0.181-0.006,0.247-0.006c0.296,0,0.598-0.004,0.905-0.009
									c0.307-0.006,0.609-0.028,0.905-0.069c0.329-0.053,0.565-0.183,0.708-0.391c0.143-0.207,0.225-0.461,0.247-0.762
									c0.033-0.062,0.068-0.122,0.107-0.18c0.038-0.058,0.101-0.086,0.189-0.086c0.121,0,0.187,0.053,0.198,0.155
									c0.011,0.104,0.017,0.214,0.017,0.327c0,0.218-0.006,0.436-0.017,0.652c-0.011,0.219-0.017,0.437-0.017,0.654
									c0,0.217,0.005,0.434,0.017,0.646c0.011,0.212,0.017,0.428,0.017,0.646c0,0.053,0.002,0.116,0.008,0.194
									c0.006,0.078,0.003,0.153-0.008,0.226c-0.011,0.073-0.036,0.133-0.074,0.18c-0.039,0.047-0.096,0.07-0.173,0.07
									s-0.137-0.047-0.181-0.141s-0.08-0.199-0.107-0.318c-0.027-0.119-0.052-0.238-0.074-0.358
									c-0.022-0.119-0.049-0.204-0.082-0.257c-0.044-0.196-0.156-0.344-0.337-0.443c-0.181-0.098-0.395-0.165-0.642-0.202
									c-0.247-0.036-0.505-0.052-0.773-0.047c-0.269,0.006-0.508,0.008-0.716,0.008c-0.055,0-0.126,0.003-0.214,0.009
									s-0.181,0.01-0.28,0.016c-0.099,0.006-0.195,0.014-0.288,0.023c-0.093,0.01-0.162,0.021-0.206,0.03
									c-0.066,0.011-0.11,0.058-0.132,0.142c-0.022,0.082-0.039,0.176-0.049,0.278c-0.011,0.104-0.014,0.208-0.008,0.312
									c0.006,0.104,0.008,0.178,0.008,0.219v2.459c0,0.113,0.003,0.24,0.008,0.381c0.005,0.141,0.022,0.28,0.049,0.421
									c0.027,0.14,0.071,0.271,0.132,0.39c0.06,0.119,0.151,0.209,0.271,0.271c0.088,0.041,0.241,0.075,0.461,0.102
									c0.219,0.025,0.453,0.045,0.7,0.055c0.247,0.011,0.485,0.02,0.716,0.023c0.23,0.006,0.395,0.008,0.494,0.008h0.51
									c0.143,0,0.302-0.006,0.478-0.017c0.175-0.01,0.343-0.022,0.502-0.039c0.159-0.016,0.307-0.038,0.444-0.069
									c0.137-0.03,0.25-0.072,0.337-0.125c0.153-0.094,0.296-0.237,0.428-0.436c0.132-0.197,0.255-0.395,0.371-0.592
									c0.115-0.196,0.225-0.37,0.329-0.521c0.104-0.149,0.2-0.227,0.288-0.227c0.132,0,0.206,0.042,0.222,0.125
									s0.002,0.166-0.041,0.249c0,0.011-0.011,0.062-0.033,0.155s-0.039,0.149-0.049,0.172c-0.011,0.029-0.039,0.137-0.082,0.318
									c-0.044,0.182-0.091,0.373-0.14,0.575s-0.113,0.47-0.189,0.802c-0.088,0.125-0.225,0.188-0.411,0.188h-7.769
									c-0.154,0-0.31,0.005-0.469,0.016c-0.159,0.01-0.321,0.016-0.486,0.016c-0.121,0-0.241-0.006-0.362-0.016
									c-0.121-0.011-0.181-0.094-0.181-0.248c0-0.084,0.068-0.146,0.206-0.188c0.137-0.041,0.302-0.082,0.494-0.124
									c0.192-0.041,0.381-0.096,0.568-0.163s0.33-0.169,0.428-0.304c0.087-0.125,0.148-0.327,0.181-0.607
									c0.033-0.279,0.049-0.586,0.049-0.918c0-0.342-0.006-0.688-0.017-1.033c-0.011-0.349-0.017-0.652-0.017-0.912
									c0-0.84-0.005-1.675-0.016-2.504c-0.011-0.83-0.017-1.666-0.017-2.507v-0.28c0-0.052,0-0.098,0-0.14
									c0-0.041-0.006-0.088-0.017-0.14c-0.022-0.271-0.124-0.449-0.304-0.537c-0.181-0.088-0.379-0.146-0.593-0.172
									s-0.406-0.051-0.576-0.077s-0.255-0.106-0.255-0.241c0-0.094,0.046-0.158,0.14-0.193c0.094-0.037,0.203-0.062,0.329-0.078
									c0.126-0.017,0.261-0.021,0.403-0.017c0.143,0.007,0.264,0.009,0.362,0.009c0.373,0,0.746,0.008,1.119,0.022
									s0.751,0.022,1.136,0.022c0.757,0,1.5-0.008,2.23-0.022c0.73-0.017,1.473-0.022,2.23-0.022h0.181
									c0.121,0,0.241,0.01,0.362,0.03c0.121,0.021,0.192,0.072,0.214,0.155c0.043,0.208,0.065,0.398,0.065,0.576
									c0,0.093-0.002,0.205-0.008,0.334c-0.006,0.13-0.008,0.287-0.008,0.475c0,0.208-0.014,0.402-0.042,0.584
									C197.438,291.473,197.382,291.57,197.294,291.581z"/>
								<path d="M208.207,294.631c-0.296-0.747-0.601-1.479-0.914-2.193s-0.65-1.433-1.012-2.147
									c-0.099-0.196-0.239-0.326-0.42-0.39c-0.181-0.062-0.359-0.108-0.535-0.141c-0.176-0.029-0.329-0.064-0.461-0.101
									c-0.132-0.037-0.198-0.122-0.198-0.257c0-0.094,0.058-0.158,0.173-0.194c0.115-0.036,0.228-0.056,0.337-0.056h0.181
									c0.264,0,0.527,0.017,0.79,0.048c0.264,0.03,0.527,0.047,0.79,0.047c0.384,0,0.766-0.017,1.144-0.047
									c0.378-0.031,0.76-0.048,1.144-0.048c0.099,0,0.187,0.031,0.263,0.095c0.077,0.062,0.115,0.14,0.115,0.233
									c0,0.113-0.077,0.182-0.23,0.201c-0.153,0.021-0.327,0.036-0.519,0.047s-0.365,0.039-0.519,0.086
									c-0.153,0.047-0.23,0.152-0.23,0.318c0,0.031,0.005,0.064,0.016,0.102c0.011,0.037,0.022,0.07,0.033,0.102
									c0.055,0.155,0.165,0.443,0.329,0.863c0.165,0.421,0.356,0.9,0.576,1.439c0.219,0.539,0.453,1.107,0.699,1.703
									c0.247,0.598,0.48,1.149,0.7,1.657c0.219,0.509,0.412,0.938,0.576,1.292s0.28,0.555,0.346,0.607
									c0.033,0.029,0.071,0.027,0.115-0.008c0.044-0.037,0.085-0.084,0.124-0.142s0.071-0.114,0.099-0.171
									c0.027-0.057,0.046-0.096,0.058-0.117c0.065-0.145,0.178-0.412,0.337-0.801c0.159-0.391,0.34-0.833,0.543-1.331
									c0.203-0.498,0.412-1.024,0.625-1.579c0.213-0.555,0.412-1.07,0.592-1.549c0.181-0.477,0.33-0.885,0.445-1.223
									c0.115-0.336,0.172-0.541,0.172-0.613c0-0.219-0.088-0.358-0.263-0.42c-0.176-0.062-0.37-0.104-0.584-0.125
									c-0.214-0.021-0.409-0.049-0.584-0.086c-0.176-0.036-0.264-0.133-0.264-0.287c0-0.083,0.033-0.153,0.099-0.211
									c0.066-0.057,0.143-0.086,0.23-0.086c0.351,0,0.708,0.02,1.07,0.056c0.362,0.036,0.718,0.056,1.07,0.056
									c0.252,0,0.499-0.015,0.741-0.039c0.241-0.027,0.488-0.039,0.741-0.039c0.076,0,0.134,0.024,0.172,0.078
									c0.039,0.051,0.058,0.107,0.058,0.17c0,0.135-0.046,0.223-0.14,0.266c-0.093,0.041-0.206,0.072-0.337,0.093
									c-0.132,0.021-0.269,0.056-0.412,0.103s-0.263,0.137-0.362,0.271c-0.033,0.052-0.08,0.146-0.14,0.279
									c-0.061,0.136-0.126,0.279-0.197,0.437c-0.072,0.155-0.138,0.31-0.198,0.459c-0.061,0.15-0.107,0.263-0.14,0.334
									c-0.23,0.562-0.469,1.113-0.716,1.658c-0.247,0.544-0.491,1.097-0.732,1.657c-0.406,0.943-0.801,1.883-1.185,2.816
									c-0.384,0.933-0.779,1.873-1.185,2.815c-0.022,0.062-0.047,0.11-0.074,0.147c-0.027,0.037-0.085,0.055-0.172,0.055
									c-0.077,0-0.138-0.028-0.181-0.085c-0.044-0.058-0.077-0.112-0.099-0.164c-0.252-0.591-0.51-1.192-0.773-1.806
									c-0.263-0.611-0.521-1.213-0.773-1.806l-0.543-1.307l-0.296,0.528c-0.066,0.084-0.181,0.277-0.346,0.584
									s-0.337,0.644-0.519,1.012c-0.182,0.367-0.356,0.724-0.527,1.066c-0.17,0.342-0.288,0.586-0.354,0.73
									c-0.055,0.113-0.115,0.24-0.181,0.381s-0.137,0.271-0.214,0.396c-0.077,0.125-0.159,0.23-0.247,0.318
									s-0.17,0.133-0.247,0.133c-0.143,0-0.238-0.053-0.288-0.156c-0.049-0.104-0.096-0.207-0.14-0.312
									c-0.757-1.649-1.498-3.272-2.222-4.87s-1.481-3.211-2.271-4.84c-0.154-0.32-0.318-0.531-0.494-0.631
									c-0.175-0.098-0.337-0.16-0.485-0.188c-0.148-0.024-0.271-0.06-0.371-0.101c-0.099-0.042-0.148-0.166-0.148-0.374
									c0-0.062,0.027-0.104,0.083-0.124c0.055-0.021,0.121-0.036,0.197-0.047c0.076-0.011,0.148-0.013,0.214-0.008
									s0.11,0.008,0.132,0.008c0.241,0,0.48,0.013,0.716,0.039c0.236,0.024,0.475,0.039,0.716,0.039
									c0.285,0,0.573-0.015,0.864-0.039c0.291-0.026,0.579-0.039,0.864-0.039c0.088,0,0.165,0.021,0.23,0.062
									c0.066,0.041,0.099,0.108,0.099,0.203c0,0.113-0.052,0.184-0.156,0.209c-0.104,0.026-0.222,0.047-0.354,0.062
									c-0.131,0.016-0.25,0.041-0.354,0.076c-0.104,0.037-0.157,0.123-0.157,0.258c0,0.072,0.066,0.277,0.198,0.615
									c0.131,0.336,0.302,0.74,0.51,1.213c0.208,0.473,0.438,0.98,0.691,1.524c0.252,0.546,0.494,1.063,0.724,1.558
									s0.438,0.931,0.625,1.313c0.186,0.384,0.318,0.654,0.395,0.81c0.043,0.104,0.109,0.25,0.197,0.437s0.178,0.366,0.271,0.537
									c0.093,0.171,0.181,0.31,0.264,0.412c0.082,0.104,0.14,0.118,0.173,0.047L208.207,294.631z"/>
								<path d="M222.822,289.434c0,0.146-0.058,0.233-0.173,0.266c-0.115,0.031-0.25,0.047-0.403,0.047
									c-0.296,0-0.527,0.021-0.691,0.062c-0.165,0.041-0.286,0.108-0.362,0.201c-0.077,0.094-0.121,0.208-0.131,0.344
									c-0.011,0.135-0.017,0.295-0.017,0.481c0,0.653-0.008,1.302-0.025,1.944c-0.016,0.645-0.024,1.291-0.024,1.945v3.969
									c0,0.166,0.014,0.353,0.041,0.561c0.027,0.208,0.107,0.368,0.239,0.482c0.099,0.082,0.233,0.14,0.403,0.171
									c0.17,0.03,0.334,0.06,0.494,0.086c0.159,0.024,0.299,0.055,0.42,0.085c0.121,0.031,0.181,0.094,0.181,0.188
									c0,0.155-0.08,0.241-0.238,0.258c-0.159,0.016-0.321,0.021-0.486,0.021c-0.307,0-0.615-0.016-0.922-0.046
									c-0.307-0.031-0.614-0.047-0.921-0.047c-0.329,0-0.625,0.018-0.889,0.055c-0.264,0.036-0.56,0.054-0.889,0.054h-0.23
									c-0.11,0-0.217-0.018-0.321-0.054c-0.104-0.037-0.156-0.116-0.156-0.241c0-0.094,0.055-0.158,0.165-0.195
									c0.109-0.035,0.239-0.066,0.387-0.092c0.148-0.026,0.305-0.058,0.469-0.095c0.165-0.036,0.302-0.101,0.411-0.194
									c0.11-0.082,0.178-0.229,0.206-0.442c0.027-0.213,0.041-0.418,0.041-0.615v-0.325l0.017-5.447
									c0-0.271,0.002-0.533,0.008-0.793c0.005-0.26,0.008-0.52,0.008-0.778v-0.296c0-0.176-0.016-0.368-0.049-0.575
									c-0.033-0.208-0.082-0.353-0.148-0.437c-0.121-0.113-0.263-0.185-0.428-0.211c-0.165-0.024-0.324-0.043-0.478-0.054
									c-0.154-0.011-0.283-0.036-0.387-0.077s-0.156-0.136-0.156-0.281c0-0.104,0.052-0.162,0.156-0.178
									c0.104-0.017,0.2-0.023,0.288-0.023h0.181c0.318,0,0.639,0.016,0.963,0.047c0.323,0.031,0.644,0.047,0.962,0.047
									c0.154,0,0.313-0.008,0.478-0.023c0.165-0.015,0.324-0.022,0.478-0.022h1.432c0.022,0.021,0.044,0.057,0.066,0.108
									C222.812,289.361,222.822,289.402,222.822,289.434z"/>
								<path d="M226.459,300.482c-0.362,0-0.724,0.01-1.086,0.031c-0.362,0.021-0.73,0.029-1.103,0.029
									c-0.088,0-0.189-0.016-0.305-0.046c-0.116-0.031-0.173-0.104-0.173-0.218c0-0.094,0.041-0.161,0.124-0.203
									c0.082-0.041,0.184-0.069,0.304-0.085c0.12-0.017,0.247-0.026,0.379-0.031c0.131-0.005,0.241-0.013,0.329-0.022
									c0.188-0.031,0.332-0.095,0.437-0.188c0.104-0.094,0.181-0.208,0.229-0.343c0.049-0.136,0.08-0.28,0.09-0.437
									c0.011-0.154,0.017-0.306,0.017-0.451c0.022-1.244,0.044-2.472,0.066-3.681c0.022-1.208,0.033-2.437,0.033-3.68
									c0-0.166-0.008-0.324-0.024-0.476c-0.016-0.15-0.063-0.283-0.14-0.396c-0.077-0.114-0.187-0.212-0.329-0.296
									c-0.143-0.082-0.34-0.146-0.592-0.187c-0.066-0.011-0.159-0.019-0.28-0.023c-0.121-0.006-0.242-0.018-0.362-0.038
									c-0.121-0.021-0.225-0.054-0.312-0.095c-0.088-0.041-0.132-0.104-0.132-0.187c0-0.094,0.058-0.166,0.173-0.218
									c0.115-0.053,0.211-0.078,0.288-0.078c0.241,0,0.477,0.005,0.708,0.016c0.231,0.012,0.466,0.017,0.708,0.017
									c0.187,0,0.365-0.005,0.535-0.017c0.17-0.011,0.348-0.016,0.535-0.016c0.197,0,0.348,0.023,0.453,0.07
									c0.104,0.046,0.203,0.115,0.296,0.209c0.093,0.094,0.195,0.207,0.305,0.343c0.109,0.136,0.269,0.296,0.478,0.481
									c0.438,0.498,0.886,1,1.341,1.502c0.455,0.504,0.96,1.06,1.514,1.666c0.554,0.606,1.174,1.291,1.86,2.055
									c0.686,0.762,1.484,1.656,2.395,2.684c0.153-0.01,0.225-0.123,0.214-0.342v-1.883c0.011-0.811,0.014-1.619,0.008-2.428
									c-0.006-0.811-0.008-1.619-0.008-2.428c0-0.146-0.003-0.285-0.008-0.421c-0.006-0.135-0.025-0.271-0.058-0.405
									c-0.055-0.228-0.184-0.369-0.387-0.428c-0.203-0.057-0.417-0.088-0.642-0.094c-0.225-0.005-0.428-0.018-0.609-0.038
									s-0.271-0.114-0.271-0.28c0-0.104,0.038-0.174,0.115-0.209c0.077-0.037,0.159-0.056,0.247-0.056
									c0.351,0,0.702,0.011,1.054,0.03c0.351,0.021,0.702,0.031,1.053,0.031c0.285,0,0.573-0.008,0.864-0.022
									c0.291-0.017,0.579-0.022,0.864-0.022c0.241,0,0.362,0.088,0.362,0.264c0,0.125-0.068,0.205-0.206,0.242
									c-0.138,0.035-0.294,0.062-0.469,0.076c-0.176,0.016-0.351,0.037-0.527,0.062c-0.175,0.025-0.302,0.086-0.378,0.179
									c-0.066,0.084-0.121,0.229-0.165,0.437s-0.074,0.429-0.09,0.662c-0.017,0.232-0.028,0.459-0.033,0.677
									s-0.008,0.379-0.008,0.481v3.223c0,0.602-0.002,1.281-0.008,2.037c-0.006,0.758-0.008,1.649-0.008,2.678
									c0,0.177-0.008,0.34-0.025,0.49c-0.017,0.149-0.096,0.234-0.239,0.256c-0.055,0.011-0.11-0.002-0.165-0.038
									c-0.055-0.036-0.107-0.08-0.156-0.132c-0.049-0.053-0.099-0.107-0.148-0.164s-0.091-0.106-0.124-0.147
									c-0.318-0.353-0.634-0.706-0.946-1.06c-0.313-0.353-0.623-0.709-0.93-1.072c-0.011-0.012-0.03-0.031-0.058-0.062
									c-0.028-0.031-0.096-0.105-0.206-0.226c-0.11-0.119-0.28-0.306-0.51-0.562c-0.23-0.254-0.554-0.608-0.971-1.064
									c-0.417-0.457-0.941-1.032-1.572-1.729c-0.631-0.694-1.407-1.551-2.329-2.566c-0.187-0.208-0.376-0.434-0.568-0.678
									c-0.192-0.243-0.409-0.459-0.65-0.646c-0.033,0.178-0.05,0.354-0.05,0.529c0,0.561,0.006,1.087,0.017,1.579
									c0.011,0.493,0.019,1.004,0.025,1.532c0.005,0.529,0.014,1.104,0.024,1.721c0.01,0.617,0.017,1.33,0.017,2.14
									c0,0.478,0.033,0.824,0.099,1.042c0.066,0.219,0.167,0.366,0.305,0.444c0.137,0.077,0.312,0.122,0.527,0.132
									c0.214,0.011,0.474,0.047,0.782,0.109c0.087,0.021,0.173,0.06,0.255,0.115c0.083,0.059,0.124,0.139,0.124,0.241
									c0,0.062-0.033,0.104-0.099,0.125s-0.126,0.03-0.181,0.03c-0.318,0-0.637-0.01-0.955-0.03
									C227.096,300.492,226.777,300.482,226.459,300.482z"/>
								<path d="M249.222,288.92c0.077,0,0.126,0.053,0.148,0.155c0.021,0.104,0.033,0.229,0.033,0.374s-0.008,0.296-0.024,0.451
									c-0.017,0.154-0.025,0.289-0.025,0.404c0,0.271-0.006,0.539-0.017,0.809c-0.011,0.271-0.027,0.539-0.049,0.81
									c-0.022,0.095-0.049,0.156-0.082,0.188c-0.033,0.031-0.072,0.045-0.115,0.045c-0.044,0-0.085-0.004-0.124-0.014
									c-0.039-0.012-0.074-0.017-0.107-0.017c-0.066,0-0.124-0.042-0.173-0.125s-0.093-0.187-0.132-0.312
									c-0.039-0.125-0.074-0.258-0.107-0.396c-0.033-0.139-0.071-0.268-0.115-0.381c-0.099-0.219-0.252-0.415-0.461-0.592
									c-0.208-0.176-0.45-0.327-0.724-0.451s-0.565-0.221-0.873-0.288s-0.609-0.101-0.905-0.101c-0.812,0-1.484,0.146-2.016,0.442
									s-0.958,0.688-1.275,1.175c-0.318,0.487-0.543,1.045-0.675,1.674c-0.132,0.627-0.198,1.269-0.198,1.922
									c0,0.685,0.071,1.34,0.214,1.969c0.143,0.628,0.373,1.183,0.691,1.665c0.318,0.481,0.727,0.866,1.226,1.151
									c0.5,0.284,1.105,0.428,1.819,0.428c0.724,0,1.287-0.061,1.687-0.18c0.4-0.119,0.694-0.289,0.881-0.514
									c0.187-0.223,0.296-0.498,0.329-0.825c0.033-0.325,0.049-0.702,0.049-1.128c0-0.57-0.011-1.017-0.033-1.338
									c-0.022-0.32-0.077-0.562-0.165-0.725c-0.088-0.16-0.22-0.26-0.395-0.295c-0.176-0.037-0.417-0.056-0.725-0.056
									c-0.143,0-0.271-0.01-0.387-0.03c-0.115-0.021-0.173-0.119-0.173-0.295c0-0.074,0.03-0.127,0.091-0.164
									c0.06-0.037,0.131-0.062,0.214-0.078c0.082-0.016,0.165-0.025,0.247-0.03s0.15-0.009,0.206-0.009
									c0.329,0,0.606,0.011,0.831,0.031c0.225,0.021,0.502,0.031,0.831,0.031c0.362,0,0.678-0.014,0.947-0.039
									s0.584-0.039,0.946-0.039c0.121,0,0.25,0.012,0.387,0.031c0.137,0.02,0.206,0.104,0.206,0.249
									c0,0.104-0.046,0.168-0.14,0.194c-0.093,0.025-0.211,0.041-0.354,0.047c-0.143,0.005-0.291,0.018-0.444,0.037
									c-0.154,0.021-0.291,0.078-0.412,0.173c-0.044,0.021-0.082,0.071-0.115,0.155c-0.033,0.082-0.058,0.185-0.074,0.304
									c-0.017,0.118-0.03,0.246-0.042,0.381c-0.011,0.135-0.016,0.26-0.016,0.374v0.311c0,0.137,0.002,0.317,0.008,0.545
									c0.005,0.229,0.011,0.465,0.016,0.709c0.005,0.244,0.011,0.479,0.017,0.707c0.005,0.229,0.008,0.41,0.008,0.545
									c0,0.072-0.003,0.162-0.008,0.266c-0.006,0.104-0.036,0.182-0.09,0.232c-0.198,0.238-0.491,0.424-0.881,0.554
									s-0.807,0.228-1.251,0.295c-0.444,0.067-0.878,0.108-1.3,0.125c-0.422,0.017-0.76,0.022-1.012,0.022
									c-0.856,0-1.643-0.11-2.362-0.334c-0.719-0.224-1.333-0.562-1.843-1.021c-0.51-0.456-0.908-1.032-1.193-1.728
									c-0.286-0.694-0.428-1.51-0.428-2.442c0-0.944,0.15-1.79,0.452-2.537c0.302-0.747,0.727-1.382,1.276-1.905
									c0.548-0.523,1.207-0.924,1.975-1.199c0.768-0.273,1.624-0.412,2.567-0.412c0.472,0,0.968,0.062,1.49,0.188
									c0.521,0.125,0.974,0.307,1.358,0.545c0.077,0.053,0.148,0.045,0.214-0.022s0.132-0.153,0.198-0.257
									c0.066-0.104,0.137-0.202,0.214-0.297C249.036,288.967,249.124,288.92,249.222,288.92z"/>
							</g>
							<g>
								<path d="M267.665,288.624c0.077,0,0.126,0.052,0.148,0.155c0.022,0.104,0.033,0.229,0.033,0.373
									c0,0.146-0.008,0.297-0.025,0.451c-0.017,0.155-0.024,0.291-0.024,0.404c0,0.271-0.006,0.54-0.017,0.811
									c-0.011,0.27-0.028,0.539-0.049,0.81c-0.022,0.093-0.049,0.155-0.083,0.187c-0.033,0.031-0.071,0.047-0.115,0.047
									s-0.085-0.006-0.124-0.016c-0.039-0.011-0.074-0.016-0.107-0.016c-0.066,0-0.121-0.047-0.165-0.141
									c-0.044-0.094-0.082-0.205-0.115-0.334c-0.033-0.131-0.068-0.266-0.107-0.405s-0.09-0.263-0.156-0.365
									c-0.352-0.362-0.782-0.642-1.292-0.833c-0.51-0.191-1.035-0.287-1.572-0.287c-0.757,0-1.405,0.141-1.942,0.42
									c-0.537,0.28-0.977,0.653-1.317,1.12c-0.34,0.468-0.59,1.011-0.749,1.626c-0.159,0.618-0.239,1.26-0.239,1.922
									c0,0.717,0.08,1.411,0.239,2.086c0.159,0.674,0.414,1.273,0.765,1.797c0.351,0.524,0.807,0.947,1.366,1.27
									s1.24,0.482,2.041,0.482c0.263,0,0.537-0.028,0.823-0.086c0.285-0.058,0.562-0.141,0.831-0.25
									c0.269-0.107,0.521-0.24,0.757-0.396c0.236-0.155,0.441-0.337,0.617-0.545c0.055-0.072,0.118-0.171,0.189-0.295
									c0.071-0.125,0.145-0.249,0.222-0.374c0.077-0.124,0.148-0.233,0.214-0.327c0.066-0.093,0.126-0.14,0.181-0.14
									c0.121,0,0.206,0.021,0.255,0.062c0.049,0.041,0.074,0.119,0.074,0.233c0,0.082-0.014,0.218-0.041,0.404
									c-0.028,0.187-0.063,0.381-0.107,0.584c-0.044,0.201-0.094,0.387-0.148,0.551c-0.055,0.166-0.11,0.275-0.165,0.328
									c-0.187,0.154-0.434,0.287-0.741,0.396s-0.636,0.2-0.987,0.272c-0.352,0.071-0.711,0.125-1.078,0.156
									c-0.368,0.029-0.7,0.045-0.996,0.045c-0.965,0-1.835-0.168-2.608-0.506c-0.774-0.337-1.432-0.79-1.975-1.361
									c-0.543-0.569-0.96-1.233-1.251-1.991c-0.291-0.757-0.436-1.552-0.436-2.382c0-0.901,0.15-1.703,0.452-2.403
									c0.302-0.7,0.719-1.291,1.251-1.772c0.532-0.482,1.171-0.85,1.917-1.099s1.564-0.373,2.453-0.373
									c0.373,0,0.743,0.021,1.111,0.062s0.738,0.1,1.111,0.172c0.087,0.021,0.189,0.05,0.304,0.086
									c0.115,0.035,0.233,0.068,0.354,0.101c0.077,0.062,0.143,0.06,0.197-0.008c0.055-0.067,0.115-0.151,0.181-0.257
									c0.066-0.104,0.148-0.204,0.247-0.303C267.366,288.672,267.5,288.624,267.665,288.624z"/>
								<path d="M282.248,294.74c0,0.83-0.167,1.615-0.502,2.357c-0.334,0.741-0.795,1.391-1.382,1.944
									c-0.587,0.556-1.276,0.996-2.066,1.321c-0.79,0.328-1.635,0.49-2.535,0.49c-0.889,0-1.709-0.146-2.46-0.442
									c-0.752-0.296-1.396-0.708-1.934-1.237s-0.958-1.152-1.259-1.875c-0.302-0.721-0.452-1.512-0.452-2.373
									s0.153-1.66,0.46-2.396c0.307-0.735,0.738-1.375,1.292-1.913c0.554-0.539,1.21-0.962,1.967-1.269s1.585-0.459,2.485-0.459
									c0.867,0,1.687,0.143,2.46,0.428s1.451,0.685,2.033,1.197c0.582,0.514,1.042,1.129,1.383,1.846
									C282.078,293.075,282.248,293.868,282.248,294.74z M280.207,294.04c-0.132-0.664-0.346-1.297-0.642-1.897
									c-0.296-0.602-0.672-1.119-1.127-1.55c-0.456-0.431-0.99-0.747-1.605-0.948c-0.614-0.203-1.306-0.236-2.074-0.103
									c-0.823,0.146-1.471,0.426-1.942,0.841c-0.472,0.415-0.815,0.902-1.029,1.463s-0.324,1.159-0.329,1.797
									c-0.006,0.64,0.052,1.254,0.173,1.846c0.109,0.611,0.299,1.224,0.567,1.836c0.269,0.611,0.623,1.15,1.062,1.617
									c0.438,0.468,0.971,0.82,1.596,1.06c0.625,0.238,1.355,0.285,2.189,0.14c0.812-0.135,1.454-0.416,1.926-0.848
									c0.471-0.432,0.817-0.939,1.037-1.525c0.219-0.586,0.334-1.205,0.346-1.858C280.366,295.254,280.316,294.631,280.207,294.04
									z"/>
								<path d="M298.443,289.542c0,0.084-0.044,0.147-0.131,0.194c-0.088,0.047-0.192,0.08-0.313,0.102s-0.241,0.034-0.362,0.039
									c-0.121,0.005-0.214,0.008-0.28,0.008c-0.22,0-0.39,0.039-0.51,0.116c-0.121,0.078-0.208,0.181-0.264,0.304
									c-0.055,0.125-0.088,0.271-0.099,0.437c-0.011,0.166-0.017,0.332-0.017,0.497v0.391c0.022,1.184,0.061,2.334,0.115,3.454
									c0.055,1.121,0.115,2.293,0.181,3.519c0.011,0.187,0.033,0.394,0.066,0.621c0.033,0.229,0.143,0.399,0.329,0.514
									c0.055,0.031,0.148,0.064,0.28,0.102s0.274,0.073,0.428,0.109c0.153,0.035,0.301,0.072,0.444,0.109
									c0.143,0.035,0.258,0.074,0.346,0.115c0.065,0.031,0.099,0.088,0.099,0.172c0,0.104-0.052,0.163-0.156,0.18
									c-0.104,0.016-0.211,0.021-0.321,0.021h-0.165c-0.318,0-0.639-0.018-0.963-0.054c-0.324-0.037-0.645-0.056-0.963-0.056
									c-0.351,0-0.705,0.019-1.062,0.056c-0.356,0.036-0.71,0.054-1.062,0.054c-0.077,0-0.184-0.01-0.321-0.029
									c-0.138-0.021-0.206-0.084-0.206-0.188c0-0.093,0.044-0.163,0.132-0.21s0.165-0.092,0.23-0.133
									c0.296,0,0.535-0.025,0.716-0.077c0.181-0.052,0.315-0.136,0.403-0.249c0.088-0.114,0.146-0.262,0.173-0.443
									c0.027-0.181,0.041-0.406,0.041-0.677l-0.214-5.183c-0.011-0.271-0.019-0.514-0.024-0.73
									c-0.006-0.219-0.008-0.398-0.008-0.545c0-0.312-0.044-0.493-0.132-0.545c-0.044,0.031-0.09,0.086-0.14,0.163
									c-0.049,0.077-0.096,0.163-0.14,0.257c-0.044,0.094-0.085,0.186-0.124,0.271c-0.039,0.09-0.068,0.153-0.09,0.194
									c-0.505,1.079-1.001,2.122-1.49,3.128c-0.488,1.008-0.968,2.055-1.44,3.145c-0.055,0.125-0.121,0.287-0.198,0.49
									c-0.077,0.201-0.162,0.396-0.255,0.584c-0.094,0.187-0.184,0.35-0.272,0.489s-0.165,0.21-0.23,0.21
									c-0.121,0-0.214-0.072-0.28-0.218c-0.065-0.146-0.109-0.26-0.131-0.343c-0.362-0.975-0.744-1.936-1.144-2.879
									c-0.401-0.943-0.831-1.883-1.292-2.816c-0.044-0.094-0.129-0.285-0.255-0.576c-0.126-0.289-0.263-0.596-0.411-0.918
									c-0.148-0.32-0.288-0.605-0.42-0.855c-0.131-0.248-0.225-0.373-0.28-0.373c-0.022,0-0.041,0.152-0.058,0.459
									c-0.017,0.307-0.033,0.703-0.049,1.189c-0.017,0.488-0.03,1.03-0.041,1.627c-0.011,0.598-0.02,1.18-0.025,1.75
									c-0.005,0.571-0.011,1.101-0.016,1.588c-0.006,0.487-0.008,0.861-0.008,1.121c0,0.176,0.046,0.312,0.14,0.403
									c0.093,0.095,0.208,0.166,0.346,0.218c0.137,0.053,0.288,0.09,0.453,0.109s0.315,0.042,0.453,0.062
									c0.138,0.02,0.252,0.053,0.346,0.101c0.094,0.047,0.14,0.122,0.14,0.226c0,0.114-0.068,0.178-0.206,0.188
									c-0.137,0.01-0.244,0.015-0.321,0.015c-0.286,0-0.568-0.01-0.848-0.029c-0.28-0.021-0.562-0.031-0.848-0.031
									c-0.352,0-0.7,0.01-1.045,0.031c-0.346,0.021-0.694,0.029-1.045,0.029c-0.066,0-0.162-0.013-0.288-0.037
									c-0.126-0.027-0.189-0.082-0.189-0.164c0-0.166,0.077-0.268,0.23-0.304c0.154-0.037,0.329-0.067,0.527-0.094
									c0.197-0.025,0.395-0.067,0.592-0.125c0.198-0.058,0.34-0.188,0.428-0.396c0.066-0.156,0.115-0.326,0.148-0.515
									c0.033-0.187,0.06-0.368,0.083-0.544c0.121-1.225,0.23-2.459,0.329-3.704c0.099-1.245,0.148-2.479,0.148-3.704
									c0-0.361-0.088-0.632-0.263-0.809c-0.176-0.178-0.467-0.301-0.873-0.375c-0.055-0.01-0.137-0.024-0.247-0.045
									c-0.11-0.021-0.222-0.045-0.337-0.07s-0.217-0.061-0.305-0.102c-0.088-0.041-0.132-0.094-0.132-0.155
									c0-0.114,0.061-0.179,0.181-0.194c0.12-0.015,0.225-0.023,0.313-0.023c0.187,0,0.365,0.012,0.535,0.031
									c0.17,0.021,0.348,0.031,0.535,0.031c0.285,0,0.562-0.011,0.831-0.031s0.546-0.031,0.831-0.031
									c0.088,0,0.159,0.004,0.214,0.009c0.055,0.005,0.11,0.044,0.165,0.116c0.208,0.271,0.373,0.572,0.494,0.91
									s0.252,0.662,0.395,0.973c0.329,0.727,0.661,1.447,0.996,2.162c0.334,0.717,0.667,1.447,0.996,2.195
									c0.077,0.176,0.165,0.383,0.263,0.622c0.099,0.238,0.197,0.47,0.296,0.692s0.189,0.412,0.271,0.566
									c0.082,0.156,0.15,0.233,0.206,0.233c0.055,0,0.104-0.041,0.148-0.124c0.043-0.083,0.082-0.161,0.115-0.232
									c0.625-1.225,1.212-2.461,1.761-3.713c0.549-1.25,1.136-2.486,1.761-3.711c0.132-0.27,0.236-0.443,0.313-0.521
									c0.077-0.078,0.175-0.116,0.296-0.116h0.346c0.198,0,0.343,0.005,0.437,0.016c0.093,0.01,0.222,0.016,0.387,0.016
									c0.241,0,0.477-0.006,0.708-0.016c0.23-0.011,0.466-0.016,0.708-0.016c0.077,0,0.175,0.018,0.296,0.055
									C298.399,289.338,298.455,289.418,298.443,289.542z"/>
								<path d="M306.854,292.421c0-0.353-0.058-0.692-0.173-1.019c-0.115-0.327-0.291-0.615-0.526-0.864
									c-0.236-0.249-0.53-0.451-0.881-0.606c-0.351-0.156-0.757-0.244-1.218-0.265c-0.121,0-0.252,0.008-0.395,0.022
									c-0.143,0.016-0.264,0.064-0.362,0.147c-0.099,0.095-0.167,0.241-0.206,0.442c-0.039,0.203-0.058,0.397-0.058,0.584v0.312
									c0,0.528,0.005,1.053,0.017,1.571c0.011,0.519,0.021,1.043,0.033,1.571h-0.017v1.152c-0.011,0.113-0.019,0.266-0.024,0.459
									c-0.006,0.19-0.011,0.395-0.017,0.605c-0.006,0.213-0.008,0.428-0.008,0.646s0,0.409,0,0.575v0.949
									c0,0.125,0.005,0.249,0.017,0.374c0.011,0.124,0.038,0.24,0.082,0.35s0.102,0.205,0.173,0.288s0.173,0.14,0.305,0.171
									c0.066,0.021,0.159,0.043,0.28,0.062c0.121,0.021,0.244,0.042,0.37,0.062s0.242,0.039,0.346,0.053
									c0.104,0.017,0.178,0.029,0.222,0.039c0.088,0.043,0.118,0.09,0.091,0.142c-0.028,0.052-0.052,0.114-0.074,0.187
									c-0.055,0.041-0.121,0.067-0.197,0.078c-0.077,0.01-0.154,0.016-0.23,0.016c-0.352,0-0.708-0.019-1.07-0.055
									c-0.362-0.037-0.725-0.055-1.086-0.055c-0.384,0-0.76,0.018-1.127,0.055c-0.368,0.036-0.744,0.055-1.127,0.055
									c-0.11,0-0.181-0.033-0.214-0.102c-0.033-0.066-0.049-0.143-0.049-0.226c0-0.041,0.068-0.08,0.206-0.117
									c0.137-0.036,0.296-0.077,0.477-0.124c0.181-0.047,0.356-0.104,0.527-0.171c0.17-0.067,0.288-0.158,0.354-0.272
									c0.087-0.177,0.137-0.371,0.148-0.584c0.011-0.211,0.017-0.416,0.017-0.613c0-0.623,0.005-1.245,0.017-1.867
									c0.011-0.623,0.016-1.245,0.016-1.868c0-0.685-0.002-1.366-0.008-2.046c-0.005-0.68-0.008-1.361-0.008-2.047
									c0-0.229-0.044-0.395-0.132-0.498c-0.088-0.104-0.195-0.174-0.321-0.21s-0.267-0.05-0.42-0.038
									c-0.154,0.01-0.293,0.013-0.42,0.007c-0.126-0.005-0.233-0.028-0.321-0.069c-0.088-0.041-0.131-0.13-0.131-0.265
									c0-0.083,0.033-0.142,0.099-0.171c0.066-0.031,0.137-0.053,0.214-0.062c0.527-0.052,1.051-0.082,1.572-0.094
									c0.521-0.01,1.045-0.016,1.572-0.016h0.938c0.592,0,1.157,0.064,1.695,0.193c0.537,0.131,1.009,0.33,1.416,0.601
									c0.406,0.271,0.729,0.614,0.971,1.034c0.241,0.421,0.362,0.916,0.362,1.486c0,0.487-0.104,0.932-0.312,1.33
									c-0.209,0.399-0.489,0.744-0.84,1.035c-0.351,0.29-0.765,0.516-1.243,0.678c-0.477,0.16-0.979,0.24-1.506,0.24
									c-0.187,0-0.299-0.013-0.337-0.039c-0.039-0.025-0.096-0.064-0.173-0.117c-0.022-0.021-0.047-0.06-0.074-0.115
									c-0.027-0.057-0.044-0.117-0.049-0.18c-0.005-0.062,0-0.117,0.017-0.164c0.017-0.045,0.052-0.068,0.107-0.068
									c0.044,0.01,0.071,0.016,0.083,0.016c0.395-0.011,0.751-0.081,1.07-0.211c0.318-0.129,0.592-0.307,0.823-0.527
									c0.23-0.225,0.409-0.494,0.535-0.811C306.791,293.141,306.854,292.795,306.854,292.421z"/>
								<path d="M307.644,300.249c0-0.136,0.044-0.224,0.132-0.265c0.087-0.043,0.194-0.072,0.321-0.094
									c0.126-0.021,0.258-0.053,0.395-0.094c0.137-0.042,0.255-0.135,0.354-0.279c0.033-0.043,0.082-0.134,0.148-0.272
									c0.066-0.142,0.134-0.288,0.206-0.443c0.071-0.155,0.137-0.309,0.197-0.459c0.06-0.149,0.107-0.262,0.14-0.335
									c0.23-0.561,0.463-1.111,0.699-1.656c0.236-0.545,0.475-1.098,0.716-1.658c0.406-0.943,0.812-1.883,1.218-2.815
									c0.406-0.935,0.812-1.873,1.218-2.817c0.022-0.062,0.047-0.11,0.074-0.146c0.027-0.036,0.085-0.055,0.173-0.055
									c0.077,0,0.137,0.029,0.181,0.086c0.043,0.057,0.077,0.111,0.099,0.162c0.252,0.593,0.51,1.193,0.773,1.807
									c0.264,0.611,0.521,1.214,0.774,1.805c0.46,1.131,0.943,2.251,1.448,3.361c0.504,1.109,1.037,2.215,1.597,3.314
									c0.099,0.196,0.238,0.326,0.419,0.39c0.181,0.062,0.359,0.108,0.535,0.14c0.175,0.031,0.329,0.064,0.461,0.102
									c0.131,0.037,0.197,0.123,0.197,0.258c0,0.093-0.058,0.156-0.173,0.193c-0.115,0.037-0.228,0.055-0.337,0.055h-0.181
									c-0.263,0-0.526-0.016-0.79-0.047c-0.263-0.03-0.526-0.047-0.79-0.047c-0.384,0-0.765,0.017-1.144,0.047
									c-0.379,0.031-0.76,0.047-1.144,0.047c-0.099,0-0.187-0.03-0.263-0.094c-0.077-0.062-0.115-0.14-0.115-0.232
									c0-0.114,0.077-0.182,0.23-0.202c0.154-0.021,0.327-0.036,0.519-0.047c0.192-0.011,0.365-0.036,0.519-0.078
									c0.154-0.041,0.23-0.149,0.23-0.326c0-0.03-0.006-0.065-0.017-0.102c-0.011-0.037-0.022-0.07-0.033-0.103
									c-0.033-0.104-0.093-0.262-0.181-0.475c-0.088-0.212-0.192-0.464-0.312-0.754c-0.121-0.291-0.258-0.612-0.412-0.965
									c-0.154-0.354-0.313-0.717-0.478-1.09c-0.055-0.104-0.102-0.197-0.14-0.28c-0.039-0.083-0.069-0.136-0.091-0.155
									c-0.088-0.083-0.219-0.132-0.395-0.146c-0.175-0.017-0.356-0.023-0.543-0.023h-0.312c-0.132,0-0.305-0.003-0.519-0.008
									c-0.214-0.006-0.436-0.008-0.667-0.008c-0.22,0-0.437,0.005-0.65,0.016c-0.214,0.01-0.393,0.031-0.535,0.062
									c-0.198,0.437-0.381,0.869-0.552,1.299c-0.17,0.432-0.315,0.822-0.436,1.176c-0.121,0.354-0.217,0.648-0.288,0.887
									c-0.071,0.239-0.107,0.385-0.107,0.438c0,0.218,0.088,0.356,0.263,0.42c0.176,0.062,0.371,0.104,0.584,0.123
									c0.214,0.021,0.409,0.051,0.584,0.087c0.175,0.036,0.263,0.132,0.263,0.288c0,0.082-0.033,0.152-0.099,0.209
									c-0.066,0.058-0.143,0.087-0.23,0.087c-0.352,0-0.708-0.019-1.07-0.056c-0.362-0.037-0.719-0.055-1.07-0.055
									c-0.252,0-0.48,0.014-0.683,0.039c-0.203,0.025-0.431,0.039-0.683,0.039c-0.077,0-0.134-0.025-0.173-0.078
									C307.659,300.372,307.644,300.311,307.644,300.249z M313.355,291.083c-0.154,0.332-0.286,0.62-0.395,0.862
									c-0.11,0.244-0.22,0.496-0.329,0.756c-0.11,0.26-0.236,0.55-0.379,0.872c-0.143,0.321-0.324,0.731-0.543,1.229h0.444
									c0.187,0,0.469-0.003,0.848-0.009c0.378-0.005,0.914-0.008,1.605-0.008c0-0.011,0.019-0.019,0.058-0.022
									c0.038-0.006,0.068-0.014,0.09-0.022c-0.143-0.363-0.291-0.75-0.444-1.159c-0.154-0.41-0.296-0.794-0.428-1.152
									c-0.132-0.356-0.245-0.66-0.337-0.91C313.451,291.27,313.388,291.125,313.355,291.083z"/>
								<path d="M323.347,300.482c-0.362,0-0.724,0.01-1.086,0.031c-0.362,0.021-0.729,0.029-1.103,0.029
									c-0.088,0-0.189-0.016-0.305-0.046c-0.116-0.031-0.173-0.104-0.173-0.218c0-0.094,0.041-0.161,0.124-0.203
									c0.082-0.041,0.184-0.069,0.304-0.085c0.12-0.017,0.247-0.026,0.379-0.031c0.131-0.005,0.241-0.013,0.329-0.022
									c0.187-0.031,0.332-0.095,0.436-0.188c0.104-0.094,0.181-0.208,0.23-0.343c0.049-0.136,0.08-0.28,0.09-0.437
									c0.011-0.154,0.017-0.306,0.017-0.451c0.022-1.244,0.044-2.472,0.066-3.681c0.021-1.208,0.033-2.437,0.033-3.68
									c0-0.166-0.008-0.324-0.024-0.476c-0.016-0.15-0.063-0.283-0.14-0.396c-0.077-0.114-0.187-0.212-0.329-0.296
									c-0.143-0.082-0.34-0.146-0.592-0.187c-0.066-0.011-0.159-0.019-0.28-0.023c-0.121-0.006-0.242-0.018-0.362-0.038
									c-0.121-0.021-0.225-0.054-0.312-0.095c-0.088-0.041-0.132-0.104-0.132-0.187c0-0.094,0.058-0.166,0.173-0.218
									c0.115-0.053,0.211-0.078,0.288-0.078c0.241,0,0.477,0.005,0.708,0.016c0.231,0.012,0.466,0.017,0.708,0.017
									c0.187,0,0.365-0.005,0.535-0.017c0.17-0.011,0.348-0.016,0.535-0.016c0.197,0,0.348,0.023,0.453,0.07
									c0.104,0.046,0.203,0.115,0.296,0.209c0.093,0.094,0.195,0.207,0.305,0.343c0.109,0.136,0.269,0.296,0.478,0.481
									c0.438,0.498,0.886,1,1.341,1.502c0.455,0.504,0.96,1.06,1.514,1.666c0.554,0.606,1.174,1.291,1.86,2.055
									c0.686,0.762,1.484,1.656,2.395,2.684c0.153-0.01,0.225-0.123,0.214-0.342v-1.883c0.011-0.811,0.014-1.619,0.008-2.428
									c-0.006-0.811-0.008-1.619-0.008-2.428c0-0.146-0.003-0.285-0.008-0.421c-0.006-0.135-0.025-0.271-0.058-0.405
									c-0.055-0.228-0.184-0.369-0.387-0.428c-0.203-0.057-0.417-0.088-0.642-0.094c-0.225-0.005-0.428-0.018-0.609-0.038
									c-0.181-0.021-0.271-0.114-0.271-0.28c0-0.104,0.038-0.174,0.115-0.209c0.077-0.037,0.159-0.056,0.247-0.056
									c0.351,0,0.702,0.011,1.054,0.03c0.351,0.021,0.702,0.031,1.053,0.031c0.285,0,0.573-0.008,0.864-0.022
									c0.291-0.017,0.579-0.022,0.864-0.022c0.241,0,0.362,0.088,0.362,0.264c0,0.125-0.068,0.205-0.206,0.242
									c-0.138,0.035-0.294,0.062-0.469,0.076c-0.176,0.016-0.351,0.037-0.527,0.062c-0.175,0.025-0.302,0.086-0.378,0.179
									c-0.066,0.084-0.121,0.229-0.165,0.437s-0.074,0.429-0.09,0.662c-0.017,0.232-0.028,0.459-0.033,0.677
									s-0.008,0.379-0.008,0.481v3.223c0,0.602-0.002,1.281-0.008,2.037c-0.006,0.758-0.008,1.649-0.008,2.678
									c0,0.177-0.008,0.34-0.025,0.49c-0.017,0.149-0.096,0.234-0.239,0.256c-0.055,0.011-0.11-0.002-0.165-0.038
									s-0.107-0.08-0.156-0.132c-0.049-0.053-0.099-0.107-0.148-0.164c-0.049-0.057-0.091-0.106-0.124-0.147
									c-0.318-0.353-0.634-0.706-0.946-1.06c-0.313-0.353-0.623-0.709-0.93-1.072c-0.011-0.012-0.03-0.031-0.058-0.062
									c-0.028-0.031-0.096-0.105-0.206-0.226c-0.11-0.119-0.28-0.306-0.51-0.562c-0.23-0.254-0.554-0.608-0.971-1.064
									c-0.417-0.457-0.941-1.032-1.572-1.729c-0.631-0.694-1.407-1.551-2.329-2.566c-0.187-0.208-0.376-0.434-0.568-0.678
									c-0.192-0.243-0.409-0.459-0.65-0.646c-0.033,0.178-0.05,0.354-0.05,0.529c0,0.561,0.006,1.087,0.017,1.579
									c0.011,0.493,0.019,1.004,0.025,1.532c0.005,0.529,0.014,1.104,0.023,1.721c0.01,0.617,0.017,1.33,0.017,2.14
									c0,0.478,0.033,0.824,0.099,1.042c0.066,0.219,0.167,0.366,0.305,0.444c0.137,0.077,0.312,0.122,0.527,0.132
									c0.214,0.011,0.474,0.047,0.782,0.109c0.087,0.021,0.173,0.06,0.255,0.115c0.083,0.059,0.124,0.139,0.124,0.241
									c0,0.062-0.033,0.104-0.099,0.125s-0.126,0.03-0.181,0.03c-0.318,0-0.637-0.01-0.955-0.03
									C323.983,300.492,323.665,300.482,323.347,300.482z"/>
								<path d="M335.641,289.152c0.307,0,0.609,0.021,0.905,0.062s0.598,0.062,0.905,0.062c0.417,0,0.836-0.019,1.259-0.055
									c0.423-0.035,0.848-0.055,1.276-0.055c0.055,0,0.124,0.025,0.206,0.078c0.083,0.052,0.124,0.104,0.124,0.154
									c0,0.156-0.077,0.246-0.23,0.272c-0.154,0.025-0.321,0.041-0.502,0.048c-0.181,0.004-0.349,0.021-0.502,0.045
									c-0.154,0.026-0.23,0.112-0.23,0.258c0,0.113,0.052,0.26,0.156,0.437s0.225,0.36,0.362,0.552
									c0.137,0.192,0.28,0.379,0.428,0.562c0.148,0.182,0.271,0.334,0.371,0.459c0.263,0.362,0.526,0.724,0.79,1.081
									c0.263,0.357,0.537,0.703,0.823,1.035c0.033,0.041,0.062,0.08,0.09,0.117c0.027,0.035,0.068,0.063,0.124,0.084
									c0.033-0.01,0.068-0.031,0.107-0.062c0.039-0.031,0.068-0.058,0.091-0.078c0.065-0.062,0.184-0.2,0.354-0.412
									c0.17-0.213,0.368-0.462,0.593-0.747s0.458-0.592,0.7-0.918c0.241-0.326,0.463-0.631,0.667-0.91
									c0.203-0.279,0.37-0.52,0.502-0.717c0.131-0.195,0.197-0.316,0.197-0.357c0-0.176-0.077-0.287-0.23-0.334
									c-0.153-0.047-0.321-0.075-0.502-0.086c-0.181-0.01-0.348-0.028-0.502-0.055c-0.154-0.025-0.229-0.111-0.229-0.257
									c0-0.125,0.03-0.194,0.091-0.21c0.06-0.016,0.145-0.023,0.255-0.023c0.252,0,0.505,0.017,0.757,0.047
									c0.252,0.031,0.504,0.047,0.757,0.047c0.285,0,0.568-0.018,0.848-0.055c0.28-0.035,0.562-0.055,0.848-0.055
									c0.154,0,0.293,0.026,0.42,0.078c0.126,0.052,0.156,0.145,0.09,0.279c-0.044,0.084-0.121,0.138-0.229,0.164
									c-0.11,0.024-0.23,0.049-0.362,0.068c-0.132,0.021-0.269,0.059-0.412,0.109c-0.143,0.051-0.274,0.146-0.395,0.279
									c-0.406,0.447-0.798,0.902-1.177,1.369s-0.76,0.935-1.144,1.4c-0.176,0.208-0.37,0.428-0.584,0.662
									c-0.214,0.232-0.417,0.472-0.609,0.716c-0.192,0.243-0.351,0.489-0.477,0.738s-0.189,0.487-0.189,0.716v3.098
									c0,0.279,0.044,0.495,0.132,0.646c0.087,0.15,0.197,0.257,0.329,0.318c0.132,0.062,0.277,0.1,0.436,0.108
									c0.159,0.011,0.313,0.019,0.461,0.022c0.148,0.005,0.277,0.021,0.387,0.048c0.11,0.024,0.188,0.091,0.23,0.194
									c0,0.094-0.022,0.176-0.066,0.248s-0.126,0.108-0.247,0.108c-0.428,0-0.859-0.019-1.292-0.054
									c-0.434-0.037-0.864-0.055-1.292-0.055c-0.395,0-0.787,0.018-1.177,0.055c-0.39,0.035-0.782,0.054-1.177,0.054
									c-0.033,0-0.071-0.005-0.115-0.015c-0.044-0.012-0.066-0.043-0.066-0.094c-0.055-0.156-0.022-0.263,0.099-0.319
									c0.121-0.058,0.277-0.099,0.469-0.124c0.192-0.026,0.39-0.055,0.593-0.086c0.203-0.031,0.365-0.108,0.485-0.233
									c0.055-0.062,0.099-0.163,0.132-0.304s0.058-0.301,0.074-0.482c0.017-0.181,0.027-0.376,0.033-0.582
									c0.005-0.209,0.008-0.404,0.008-0.593v-1.369c0-0.321-0.006-0.592-0.017-0.81c-0.011-0.219-0.082-0.414-0.214-0.592
									c-0.593-0.81-1.183-1.601-1.77-2.373c-0.587-0.772-1.177-1.563-1.769-2.373c-0.121-0.165-0.274-0.284-0.461-0.357
									c-0.187-0.072-0.365-0.127-0.535-0.163s-0.315-0.071-0.436-0.108s-0.181-0.111-0.181-0.227c0-0.104,0.039-0.16,0.115-0.171
									C335.474,289.154,335.553,289.152,335.641,289.152z"/>
							</g>
						</g>
					</g>
				</g>
				<g>
					<path d="M104.441,276.902c0-0.516,0.173-0.854,0.52-1.014c0.347-0.158,0.77-0.277,1.269-0.357
						c0.498-0.079,1.018-0.199,1.561-0.358c0.542-0.157,1.008-0.516,1.398-1.073c0.13-0.158,0.325-0.507,0.585-1.043
						c0.26-0.537,0.531-1.104,0.813-1.699c0.282-0.598,0.542-1.184,0.78-1.76c0.238-0.576,0.423-1.005,0.553-1.283
						c0.91-2.146,1.831-4.264,2.764-6.352c0.932-2.087,1.875-4.204,2.829-6.352c1.604-3.617,3.208-7.217,4.812-10.795
						s3.208-7.176,4.812-10.795c0.086-0.237,0.184-0.427,0.292-0.565c0.108-0.14,0.335-0.209,0.683-0.209
						c0.303,0,0.542,0.11,0.716,0.328c0.172,0.219,0.303,0.428,0.39,0.626c0.997,2.267,2.016,4.572,3.056,6.918
						c1.041,2.347,2.059,4.652,3.057,6.918c1.821,4.335,3.729,8.629,5.723,12.883c1.994,4.254,4.097,8.488,6.308,12.702
						c0.39,0.756,0.943,1.253,1.658,1.491c0.716,0.238,1.42,0.418,2.114,0.537c0.693,0.119,1.301,0.248,1.821,0.388
						c0.521,0.14,0.781,0.468,0.781,0.983c0,0.357-0.228,0.605-0.683,0.746c-0.455,0.139-0.9,0.207-1.333,0.207h-0.715
						c-1.041,0-2.081-0.06-3.122-0.179s-2.081-0.179-3.122-0.179c-1.518,0-3.024,0.06-4.52,0.179s-3.003,0.179-4.52,0.179
						c-0.39,0-0.737-0.119-1.041-0.356c-0.304-0.238-0.455-0.537-0.455-0.896c0-0.438,0.303-0.695,0.911-0.774
						c0.606-0.079,1.29-0.14,2.048-0.179c0.758-0.039,1.441-0.14,2.049-0.299c0.606-0.158,0.91-0.576,0.91-1.253
						c0-0.118-0.022-0.247-0.065-0.388c-0.043-0.139-0.087-0.27-0.13-0.389c-0.13-0.396-0.369-1.004-0.715-1.817
						c-0.348-0.813-0.759-1.778-1.236-2.894c-0.478-1.112-1.019-2.346-1.626-3.697s-1.235-2.743-1.886-4.176
						c-0.217-0.396-0.401-0.754-0.553-1.072c-0.152-0.316-0.271-0.516-0.358-0.596c-0.347-0.318-0.868-0.508-1.561-0.567
						c-0.694-0.06-1.41-0.089-2.146-0.089h-1.236c-0.521,0-1.203-0.01-2.048-0.03c-0.846-0.021-1.724-0.028-2.634-0.028
						c-0.868,0-1.723,0.021-2.569,0.06c-0.845,0.04-1.55,0.118-2.113,0.237c-0.78,1.67-1.507,3.33-2.179,4.979
						c-0.673,1.649-1.247,3.152-1.723,4.503c-0.478,1.354-0.857,2.485-1.138,3.398c-0.283,0.916-0.423,1.473-0.423,1.671
						c0,0.835,0.347,1.372,1.041,1.61c0.693,0.237,1.463,0.396,2.309,0.477c0.846,0.081,1.615,0.189,2.309,0.328
						c0.693,0.141,1.041,0.507,1.041,1.104c0,0.319-0.13,0.588-0.39,0.807c-0.26,0.218-0.564,0.326-0.91,0.326
						c-1.388,0-2.796-0.068-4.228-0.207c-1.431-0.141-2.84-0.209-4.227-0.209c-0.998,0-1.897,0.049-2.699,0.148
						c-0.803,0.1-1.702,0.148-2.699,0.148c-0.304,0-0.532-0.101-0.683-0.299C104.516,277.359,104.441,277.143,104.441,276.902z
						 M127.007,241.775c-0.607,1.272-1.128,2.375-1.561,3.311c-0.434,0.936-0.868,1.898-1.301,2.893
						c-0.434,0.994-0.933,2.107-1.496,3.34c-0.564,1.232-1.279,2.804-2.146,4.711h1.756c0.737,0,1.854-0.01,3.35-0.029
						s3.609-0.029,6.341-0.029c0-0.039,0.075-0.068,0.228-0.09c0.151-0.02,0.271-0.049,0.357-0.089
						c-0.564-1.392-1.149-2.872-1.756-4.442s-1.17-3.043-1.691-4.414c-0.52-1.371-0.965-2.535-1.333-3.488
						C127.386,242.491,127.138,241.936,127.007,241.775z"/>
					<path d="M204.657,256.564c0,3.42-0.781,6.463-2.341,9.125c-1.561,2.664-3.621,4.912-6.178,6.74
						c-2.559,1.828-5.485,3.221-8.78,4.174c-3.295,0.955-6.656,1.433-10.08,1.433c-1.041,0-1.897-0.021-2.569-0.062
						c-0.672-0.039-1.312-0.08-1.918-0.119c-0.607-0.039-1.247-0.08-1.918-0.119c-0.672-0.039-1.528-0.059-2.569-0.059
						c-1.821,0-3.566,0.049-5.235,0.148c-1.67,0.099-3.415,0.148-5.235,0.148c-0.39,0-0.585-0.18-0.585-0.537
						c0-0.396,0.119-0.694,0.358-0.895c0.238-0.197,0.52-0.357,0.845-0.479c0.325-0.119,0.672-0.197,1.041-0.237
						c0.368-0.039,0.704-0.099,1.008-0.179c1.387-0.278,2.244-0.707,2.569-1.282c0.325-0.576,0.53-1.461,0.618-2.654
						c0.042-0.396,0.075-0.854,0.098-1.371c0.021-0.517,0.042-1.223,0.065-2.116c0.021-0.896,0.042-2.059,0.065-3.49
						c0.021-1.432,0.033-3.299,0.033-5.605v-13.896c0-0.635-0.011-1.33-0.033-2.086s-0.055-1.481-0.098-2.178
						c-0.043-0.695-0.097-1.312-0.163-1.849c-0.065-0.537-0.141-0.904-0.228-1.104c-0.304-0.597-0.77-0.964-1.398-1.104
						c-0.629-0.139-1.269-0.209-1.918-0.209c-0.348,0-0.694,0.011-1.041,0.029c-0.348,0.021-0.694,0.029-1.041,0.029
						c-0.391,0-0.759-0.099-1.106-0.298c-0.217-0.157-0.292-0.397-0.228-0.716c0.065-0.316,0.184-0.557,0.358-0.716
						c0.173-0.158,0.693-0.308,1.561-0.447c0.867-0.14,1.918-0.258,3.154-0.356c1.235-0.1,2.558-0.18,3.967-0.238
						c1.409-0.061,2.774-0.109,4.097-0.149c1.322-0.039,2.504-0.069,3.544-0.09c1.041-0.021,1.777-0.028,2.211-0.028
						c4.335,0,8.292,0.517,11.869,1.551c3.577,1.033,6.644,2.533,9.202,4.502c2.558,1.969,4.53,4.363,5.918,7.187
						C203.963,249.787,204.657,252.986,204.657,256.564z M197.243,256.148c0-4.812-1.333-8.916-4-12.315s-6.558-5.794-11.673-7.187
						c-0.911-0.238-1.843-0.447-2.796-0.627c-0.955-0.179-1.93-0.269-2.927-0.269h-1.821c0.042,0-0.076,0.011-0.358,0.03
						c-0.282,0.021-0.618,0.089-1.008,0.208c-0.39,0.118-0.792,0.309-1.203,0.567c-0.413,0.258-0.727,0.625-0.943,1.103
						c-0.13,0.397-0.218,0.786-0.26,1.163c-0.044,0.379-0.065,0.767-0.065,1.162c0,1.035,0.01,2.088,0.032,3.162
						c0.021,1.072,0.033,2.127,0.033,3.16c0,3.5-0.022,6.969-0.065,10.406c-0.044,3.439-0.065,6.909-0.065,10.407
						c0,1.75,0.119,3.2,0.357,4.354c0.238,1.152,0.628,2.066,1.17,2.742c0.542,0.678,1.225,1.153,2.049,1.432
						c0.823,0.279,1.821,0.418,2.992,0.418c3.034,0,5.82-0.517,8.356-1.551c2.537-1.033,4.704-2.455,6.503-4.265
						c1.799-1.81,3.197-3.926,4.195-6.353C196.744,261.477,197.243,258.893,197.243,256.148z"/>
					<path d="M281.07,235.932c-0.13,0.238-0.466,0.387-1.008,0.446s-1.149,0.11-1.821,0.149c-0.673,0.039-1.323,0.119-1.951,0.238
						c-0.629,0.118-1.095,0.357-1.398,0.715c-0.347,0.358-0.575,0.836-0.683,1.433c-0.109,0.596-0.163,1.231-0.163,1.908v1.014
						c0,5.011-0.022,9.97-0.065,14.88c-0.044,4.911-0.065,9.87-0.065,14.881c0,0.993,0.172,1.76,0.52,2.295
						c0.347,0.537,0.78,0.936,1.301,1.193c0.52,0.259,1.083,0.428,1.691,0.507c0.606,0.08,1.17,0.159,1.691,0.238
						c0.52,0.08,0.953,0.198,1.3,0.356c0.347,0.16,0.521,0.459,0.521,0.896c0,0.597-0.228,0.915-0.683,0.955
						c-0.455,0.039-0.943,0.06-1.463,0.06c-1.431,0-2.873-0.06-4.325-0.18c-1.453-0.119-2.894-0.18-4.325-0.18
						c-1.388,0-2.787,0.061-4.195,0.18c-1.409,0.12-2.808,0.18-4.195,0.18c-0.91,0-1.366-0.318-1.366-0.953
						c0-0.598,0.228-0.955,0.683-1.074s1.008-0.18,1.658-0.18s1.333-0.05,2.049-0.148c0.715-0.1,1.311-0.428,1.788-0.983
						c0.477-0.557,0.781-1.253,0.911-2.088c0.13-0.835,0.195-1.59,0.195-2.267v-10.854c0-0.597-0.13-1.023-0.391-1.281
						c-0.26-0.259-0.585-0.428-0.975-0.508c-0.391-0.078-0.813-0.109-1.269-0.09c-0.455,0.021-0.878,0.03-1.268,0.03h-15.868
						c-0.52,0-1.084-0.011-1.691-0.03s-1.16,0.021-1.658,0.119c-0.499,0.1-0.911,0.279-1.236,0.537
						c-0.325,0.259-0.487,0.686-0.487,1.281v11.689c0,0.796,0.01,1.264,0.032,1.4c0.021,0.141,0.033,0.27,0.033,0.389
						c0.13,1.073,0.563,1.779,1.301,2.117c0.736,0.338,1.517,0.547,2.341,0.626c0.823,0.08,1.571,0.149,2.244,0.209
						c0.672,0.06,1.008,0.368,1.008,0.924c0,0.597-0.228,0.925-0.683,0.983c-0.455,0.061-0.965,0.091-1.528,0.091
						c-1.128,0-2.276-0.052-3.447-0.149c-1.17-0.1-2.32-0.148-3.447-0.148h-2.536c-1.17,0-2.32,0.06-3.447,0.179
						c-1.128,0.12-2.255,0.181-3.382,0.181c-0.347,0-0.759-0.021-1.235-0.061c-0.478-0.04-0.715-0.279-0.715-0.717
						c0-0.596,0.335-0.963,1.008-1.104c0.672-0.139,1.419-0.269,2.244-0.388c0.823-0.119,1.615-0.367,2.374-0.745
						c0.758-0.378,1.225-1.104,1.398-2.177c0.13-0.874,0.205-1.771,0.228-2.685c0.021-0.914,0.033-1.81,0.033-2.685v-26.181
						c0-1.193-0.163-2.107-0.488-2.744c-0.325-0.635-0.748-1.104-1.268-1.401c-0.521-0.298-1.063-0.485-1.626-0.565
						c-0.564-0.08-1.105-0.149-1.626-0.209c-0.52-0.061-0.943-0.158-1.268-0.299c-0.325-0.139-0.488-0.447-0.488-0.925
						c0-0.356,0.205-0.586,0.618-0.687c0.412-0.098,0.834-0.148,1.269-0.148h0.715c1.127,0,2.232,0.03,3.316,0.09
						c1.083,0.061,2.189,0.09,3.317,0.09c1.561,0,3.132-0.02,4.715-0.06c1.582-0.039,3.154-0.06,4.715-0.06
						c0.26,0,0.521,0.06,0.78,0.179c0.26,0.118,0.391,0.317,0.391,0.596c0,0.796-0.348,1.243-1.041,1.343
						c-0.694,0.101-1.475,0.148-2.341,0.148c-0.434,0-0.846,0.04-1.236,0.119c-0.39,0.08-0.748,0.229-1.073,0.447
						c-0.325,0.22-0.585,0.537-0.781,0.953c-0.195,0.418-0.292,0.965-0.292,1.642c0,0.558-0.011,1.112-0.033,1.67
						c-0.022,0.557-0.032,1.112-0.032,1.67v10.14c0,1.112,0.563,1.67,1.691,1.67c1.821,0,3.436,0.01,4.845,0.028
						c1.409,0.021,2.785,0.03,4.13,0.03c1.343,0,2.72,0.01,4.129,0.029c1.408,0.021,3.024,0.029,4.845,0.029
						c0.433,0,0.92,0.01,1.463,0.029c0.542,0.021,1.073,0.021,1.593,0c0.521-0.02,0.964-0.079,1.333-0.18
						c0.368-0.099,0.595-0.269,0.683-0.506c0.043-0.119,0.075-0.486,0.098-1.104c0.021-0.616,0.033-1.36,0.033-2.235
						c0-0.914,0.01-1.88,0.032-2.894c0.021-1.015,0.033-1.978,0.033-2.894v-3.875c0-0.279-0.011-0.605-0.033-0.984
						c-0.022-0.377-0.065-0.756-0.13-1.133c-0.065-0.379-0.163-0.735-0.292-1.073c-0.13-0.339-0.325-0.606-0.585-0.806
						c-0.26-0.158-0.585-0.289-0.976-0.389c-0.39-0.099-0.803-0.169-1.236-0.209c-0.434-0.039-0.824-0.089-1.17-0.148
						c-0.348-0.06-0.585-0.148-0.715-0.269c-0.434,0-0.792-0.039-1.073-0.118c-0.282-0.08-0.422-0.359-0.422-0.836
						c0-0.318,0.086-0.546,0.26-0.686c0.173-0.141,0.412-0.239,0.715-0.299c0.303-0.061,0.618-0.08,0.943-0.061
						c0.325,0.021,0.66,0.03,1.008,0.03c1.127,0,2.232,0.05,3.317,0.147c1.083,0.101,2.167,0.149,3.251,0.149
						c1.343,0,2.688-0.039,4.032-0.119c1.343-0.079,2.688-0.118,4.032-0.118c0.997,0,1.636,0.079,1.918,0.237
						C280.929,234.957,281.07,235.335,281.07,235.932z"/>
					<path d="M335.047,255.791c0,3.182-0.661,6.191-1.983,9.035c-1.323,2.843-3.144,5.328-5.463,7.453
						c-2.32,2.129-5.04,3.818-8.162,5.07s-6.46,1.879-10.015,1.879c-3.512,0-6.753-0.566-9.722-1.701
						c-2.97-1.133-5.518-2.713-7.642-4.74c-2.125-2.027-3.783-4.422-4.975-7.186c-1.193-2.765-1.789-5.795-1.789-9.097
						c0-3.3,0.607-6.36,1.821-9.185c1.213-2.822,2.915-5.269,5.105-7.336c2.188-2.065,4.78-3.688,7.771-4.859
						c2.991-1.172,6.265-1.76,9.82-1.76c3.424,0,6.666,0.547,9.723,1.641c3.057,1.094,5.733,2.624,8.032,4.592
						c2.297,1.969,4.118,4.324,5.463,7.067C334.375,249.409,335.047,252.451,335.047,255.791z M326.983,253.105
						c-0.52-2.543-1.366-4.969-2.536-7.274c-1.171-2.306-2.656-4.284-4.455-5.935c-1.799-1.649-3.913-2.862-6.341-3.639
						c-2.428-0.775-5.16-0.902-8.194-0.388c-3.252,0.558-5.811,1.631-7.674,3.221c-1.864,1.591-3.219,3.459-4.064,5.606
						c-0.845,2.146-1.279,4.441-1.301,6.888c-0.022,2.445,0.206,4.802,0.683,7.067c0.433,2.347,1.181,4.69,2.244,7.037
						s2.46,4.412,4.195,6.201c1.733,1.789,3.837,3.143,6.308,4.057c2.471,0.914,5.354,1.094,8.649,0.537
						c3.208-0.518,5.744-1.602,7.609-3.252c1.864-1.648,3.229-3.598,4.097-5.844c0.867-2.246,1.322-4.621,1.366-7.127
						C327.611,257.759,327.417,255.373,326.983,253.105z"/>
					<path d="M369.45,246.904c0-1.352-0.228-2.653-0.683-3.906c-0.455-1.252-1.149-2.355-2.081-3.311
						c-0.933-0.953-2.092-1.729-3.479-2.326c-1.388-0.596-2.991-0.934-4.812-1.014c-0.478,0-0.998,0.029-1.561,0.09
						c-0.564,0.06-1.041,0.248-1.431,0.566c-0.39,0.357-0.662,0.924-0.813,1.699c-0.152,0.775-0.228,1.521-0.228,2.236v1.192
						c0,2.027,0.021,4.035,0.065,6.022c0.042,1.988,0.086,3.996,0.13,6.023h-0.065v4.413c-0.043,0.438-0.076,1.022-0.098,1.759
						s-0.043,1.512-0.065,2.326c-0.022,0.815-0.033,1.641-0.033,2.475c0,0.836,0,1.572,0,2.207v3.639
						c0,0.479,0.021,0.954,0.065,1.432c0.042,0.479,0.151,0.926,0.325,1.342c0.172,0.418,0.4,0.785,0.683,1.104
						c0.282,0.317,0.683,0.536,1.203,0.655c0.26,0.08,0.628,0.16,1.105,0.238c0.477,0.08,0.964,0.159,1.463,0.238
						c0.498,0.08,0.953,0.148,1.366,0.209c0.412,0.061,0.704,0.11,0.878,0.149c0.347,0.159,0.465,0.338,0.358,0.536
						c-0.109,0.199-0.207,0.438-0.293,0.716c-0.217,0.157-0.478,0.258-0.78,0.298c-0.304,0.039-0.608,0.061-0.911,0.061
						c-1.388,0-2.796-0.069-4.227-0.209c-1.431-0.14-2.861-0.209-4.292-0.209c-1.519,0-3.003,0.069-4.455,0.209
						c-1.453,0.14-2.938,0.209-4.455,0.209c-0.434,0-0.715-0.129-0.846-0.388c-0.13-0.259-0.195-0.547-0.195-0.864
						c0-0.158,0.27-0.309,0.813-0.447c0.542-0.139,1.17-0.299,1.886-0.479c0.715-0.179,1.408-0.396,2.081-0.654
						c0.672-0.26,1.138-0.606,1.398-1.045c0.346-0.676,0.542-1.42,0.585-2.235c0.043-0.814,0.065-1.601,0.065-2.355
						c0-2.386,0.021-4.771,0.065-7.157c0.042-2.386,0.065-4.771,0.065-7.156c0-2.623-0.011-5.237-0.033-7.842
						c-0.022-2.604-0.032-5.219-0.032-7.844c0-0.874-0.174-1.51-0.521-1.908c-0.347-0.396-0.77-0.664-1.268-0.805
						c-0.499-0.139-1.052-0.188-1.658-0.148c-0.608,0.039-1.161,0.051-1.659,0.029c-0.499-0.02-0.921-0.109-1.268-0.269
						c-0.347-0.158-0.52-0.497-0.52-1.015c0-0.317,0.13-0.537,0.39-0.656c0.26-0.118,0.542-0.197,0.845-0.237
						c2.081-0.199,4.151-0.317,6.211-0.358c2.059-0.039,4.129-0.06,6.21-0.06h3.707c2.341,0,4.574,0.249,6.698,0.746
						s3.989,1.262,5.593,2.296s2.883,2.355,3.837,3.966c0.953,1.61,1.431,3.509,1.431,5.695c0,1.868-0.413,3.569-1.236,5.099
						c-0.824,1.531-1.93,2.854-3.316,3.967c-1.388,1.113-3.024,1.979-4.91,2.594c-1.886,0.617-3.87,0.926-5.951,0.926
						c-0.738,0-1.182-0.051-1.333-0.148c-0.152-0.1-0.38-0.248-0.683-0.447c-0.087-0.08-0.185-0.229-0.292-0.447
						c-0.109-0.219-0.174-0.447-0.195-0.686c-0.022-0.24,0-0.447,0.065-0.627s0.205-0.269,0.422-0.269
						c0.173,0.04,0.282,0.06,0.325,0.06c1.561-0.039,2.969-0.308,4.228-0.806c1.257-0.496,2.341-1.172,3.251-2.026
						c0.911-0.854,1.615-1.889,2.114-3.103C369.2,249.658,369.45,248.336,369.45,246.904z"/>
					<path d="M382.976,279.706c-0.304,0-0.499-0.249-0.585-0.746c-0.087-0.497-0.13-1.084-0.13-1.759
						c0-0.676,0.033-1.372,0.098-2.088c0.065-0.717,0.098-1.291,0.098-1.729c0-1.032,0.01-1.968,0.032-2.803
						c0.021-0.835,0.075-1.769,0.163-2.804c0.043-0.357,0.141-0.596,0.293-0.715c0.151-0.119,0.314-0.18,0.488-0.18
						c0.172,0,0.335,0.021,0.488,0.061c0.151,0.039,0.292,0.06,0.422,0.06c0.303,0,0.542,0.169,0.715,0.507
						c0.173,0.338,0.325,0.756,0.456,1.252c0.13,0.498,0.27,1.024,0.422,1.581c0.151,0.558,0.335,1.034,0.553,1.431
						c0.781,1.552,1.994,2.754,3.642,3.608c1.647,0.854,3.359,1.282,5.138,1.282c1.301,0,2.504-0.188,3.609-0.566
						c1.105-0.378,2.07-0.925,2.895-1.641c0.822-0.715,1.463-1.568,1.918-2.564c0.454-0.992,0.683-2.125,0.683-3.398
						c0-1.868-0.553-3.438-1.658-4.711c-1.104-1.273-2.481-2.405-4.13-3.399c-1.647-0.993-3.437-1.928-5.365-2.803
						c-1.929-0.874-3.718-1.858-5.365-2.952c-1.648-1.094-3.024-2.365-4.129-3.816s-1.658-3.25-1.658-5.397
						c0-1.908,0.379-3.606,1.138-5.099c0.758-1.491,1.789-2.743,3.089-3.758c1.301-1.015,2.829-1.789,4.585-2.326
						c1.756-0.537,3.609-0.806,5.561-0.806c0.911,0,1.929,0.22,3.057,0.656c1.127,0.438,2.081,0.875,2.861,1.312
						c0.477,0.238,0.834,0.248,1.072,0.029c0.238-0.218,0.466-0.525,0.684-0.924c0.216-0.396,0.487-0.775,0.812-1.134
						c0.325-0.357,0.813-0.536,1.463-0.536c0.304,0,0.498,0.199,0.586,0.596c0.086,0.398,0.13,0.875,0.13,1.432
						c0,0.559-0.032,1.134-0.099,1.729c-0.064,0.597-0.097,1.113-0.097,1.552c0.042,2.066-0.022,4.135-0.195,6.201
						c-0.087,0.358-0.194,0.598-0.325,0.717c-0.13,0.118-0.281,0.178-0.455,0.178s-0.348-0.02-0.521-0.06
						c-0.174-0.039-0.325-0.06-0.455-0.06c-0.26,0-0.478-0.18-0.649-0.537c-0.175-0.357-0.325-0.784-0.455-1.282
						c-0.131-0.496-0.261-1.014-0.391-1.55c-0.13-0.537-0.325-1.004-0.585-1.402c-0.693-1.51-1.713-2.684-3.057-3.519
						s-2.71-1.252-4.097-1.252c-1.128,0-2.201,0.159-3.219,0.477c-1.019,0.319-1.908,0.775-2.666,1.372
						c-0.759,0.598-1.354,1.333-1.789,2.207c-0.434,0.875-0.65,1.85-0.65,2.922c0,1.67,0.596,3.131,1.789,4.385
						c1.192,1.252,2.655,2.364,4.39,3.34c1.733,0.975,3.565,1.877,5.495,2.713c1.929,0.835,3.631,1.689,5.105,2.563
						c1.82,1.114,3.239,2.564,4.26,4.354c1.018,1.789,1.549,3.697,1.593,5.726c0,2.188-0.38,4.104-1.138,5.755
						c-0.76,1.65-1.821,3.032-3.188,4.146c-1.366,1.113-2.992,1.958-4.878,2.533c-1.886,0.576-3.957,0.886-6.21,0.926
						c-0.824,0-1.593-0.1-2.309-0.299c-0.716-0.199-1.388-0.408-2.016-0.627c-0.629-0.219-1.214-0.428-1.756-0.625
						c-0.542-0.198-1.052-0.299-1.528-0.299c-0.521,0-0.9,0.129-1.138,0.387c-0.239,0.26-0.466,0.558-0.683,0.896
						c-0.218,0.338-0.478,0.635-0.781,0.895C384.103,279.576,383.626,279.706,382.976,279.706z"/>
				</g>
			</g>
		</g>
	</g>
</g>
</svg>
