<svg xmlns="http://www.w3.org/2000/svg" width="443.277" height="203.485" viewBox="0 0 443.277 203.485"><g fill="none" stroke="#FFF" stroke-width="2" stroke-miterlimit="10"><path d="M20.724 12.667a7.2 7.2 0 0 1-11.421-.087c-4.455 4.891-3.939 10.457-3.939 10.457S5.345 25 15.074 25c9.521 0 9.503-1.963 9.503-1.963s.515-5.5-3.853-10.37z"/><circle cx="15.045" cy="8.219" r="7.219"/></g><path fill="none" stroke="#FFF" stroke-width="2" stroke-miterlimit="10" d="M83.748 1c-8.213 0-14.871 4.624-14.871 10.328 0 3.172 2.063 6.008 5.304 7.902l-3.139 3.921s-.776.918-.093 1.546c.719.662 2.058.031 2.058.031l7.374-3.331s.086.02 0 0c1.083.175 2.207.259 3.367.259 8.213 0 14.871-4.623 14.871-10.328C98.619 5.624 91.96 1 83.748 1zm68.827 16.617c.871 0 4.321.041 5.232.082.911.04 1.386 1.289 1.386 1.289.277.727 1.704 3.671 2.694 5.041.99 1.371 2.614.889 2.614.889 3.248-.525 3.863-3.449 3.863-3.449 1.068-4.113-2.199-16.454-3.744-18.51-1.544-2.058-12.045-1.958-12.045-1.958s-10.501-.1-12.046 1.958c-1.544 2.056-4.812 14.396-3.743 18.51 0 0 .614 2.924 3.862 3.449 0 0 1.624.482 2.614-.889.99-1.37 2.417-4.314 2.694-5.041 0 0 .475-1.249 1.386-1.289.912-.041 4.362-.082 5.233-.082z"/><g stroke="#FFF" stroke-miterlimit="10"><ellipse fill="#FFF" cx="215.685" cy="23.24" rx="2" ry="2.035"/><ellipse fill="#FFF" cx="229.531" cy="23.24" rx="2" ry="2.035"/><g fill="none" stroke-width="2"><path d="M212.277 12h18.864s1.638-.016 1.979-1.225l1.978-7.104c0-1.148-.988-1.671-.988-1.671h-21.832"/><path stroke-linecap="round" d="M230.277 18H215.75s-1.422-.178-1.422-1.324L212.35 2.213c0-1.146-1.422-1.213-1.422-1.213h-3.65"/></g></g><circle fill="none" stroke="#FFF" stroke-width="2" stroke-miterlimit="10" cx="302.305" cy="7.38" r="4.512"/><circle fill="none" stroke="#FFF" stroke-width="2" stroke-miterlimit="10" cx="290.283" cy="8.219" r="7.219"/><circle fill="none" stroke="#FFF" stroke-width="2" stroke-miterlimit="10" cx="278.205" cy="7.38" r="4.512"/><path fill="none" stroke="#FFF" stroke-width="2" stroke-miterlimit="10" d="M283.672 13.417a9.466 9.466 0 0 0-1.916-3.257 4.498 4.498 0 0 1-7.139-.055c-2.785 3.057-2.463 6.535-2.463 6.535s-.01 1.227 6.068 1.227c1.236 0 2.215-.053 2.99-.137"/><path fill="none" stroke="#FFF" stroke-width="2" stroke-miterlimit="10" d="M295.961 12.667a7.199 7.199 0 0 1-11.42-.087c-4.455 4.892-3.938 10.458-3.938 10.458S280.584 25 290.311 25c9.523 0 9.504-1.963 9.504-1.963s.515-5.501-3.854-10.37z"/><circle fill="none" stroke="#FFF" stroke-width="2" stroke-miterlimit="10" cx="302.449" cy="7.38" r="4.512"/><path fill="none" stroke="#FFF" stroke-width="2" stroke-miterlimit="10" d="M296.982 13.417a9.475 9.475 0 0 1 1.918-3.257 4.5 4.5 0 0 0 7.139-.055c2.783 3.057 2.461 6.535 2.461 6.535s.012 1.227-6.068 1.227c-1.234 0-2.213-.053-2.988-.137"/><g fill="none" stroke="#FFF" stroke-width="2" stroke-miterlimit="10"><path d="M367.277 21.93a3.07 3.07 0 0 1-3.071 3.07h-10.857a3.07 3.07 0 0 1-3.071-3.07v-6.86a3.07 3.07 0 0 1 3.071-3.07h10.857a3.07 3.07 0 0 1 3.071 3.07v6.86z"/><path stroke-linecap="round" d="M363.736 6.373s-.272-5.188-5.729-5.188-5.729 5.257-5.729 5.257V11"/></g><circle fill="none" stroke="#FFF" stroke-width="2" stroke-linecap="round" stroke-miterlimit="10" cx="83.748" cy="72.96" r="12"/><g fill="#FFF" stroke="#FFF" stroke-miterlimit="10"><circle cx="80.04" cy="70.294" r="2"/><circle cx="87.04" cy="70.294" r="2"/></g><path fill="none" stroke="#FFF" stroke-width="2" stroke-miterlimit="10" d="M238.277 80.446c0 2.379-2.779 4.554-4.86 4.554h-24.541c-2.082 0-3.599-2.175-3.599-4.554V65.001c0-2.379 1.517-4.001 3.599-4.001h24.541c2.081 0 4.86 1.622 4.86 4.001v15.445z"/><circle fill="none" stroke="#FFF" stroke-width="2" stroke-miterlimit="10" cx="221.106" cy="73.284" r="6.015"/><g fill="#FFF" stroke="#FFF" stroke-miterlimit="10"><ellipse cx="428.239" cy="22.33" rx="3.066" ry="2.945"/><ellipse cx="428.239" cy="13.275" rx="3.066" ry="2.945"/><ellipse cx="428.239" cy="4.221" rx="3.066" ry="2.944"/></g><path fill="none" stroke="#FFF" stroke-width="2" stroke-linecap="round" stroke-linejoin="round" stroke-miterlimit="10" d="M141.277 83.333V62.667l22.436 10.544z"/><path d="M14.971 182.451l12.97 12.971m-25.941 0l12.971-12.971" fill="none" stroke="#FFF" stroke-width="4" stroke-linecap="round" stroke-miterlimit="10"/><path fill="none" stroke="#FFF" stroke-width="3" stroke-linecap="round" stroke-miterlimit="10" d="M71.748 145l6.11-.159 17.499-17.116s1.049-1.326-.288-2.662l-1.681-1.682-1.722-1.722c-1.337-1.337-2.658-.283-2.658-.283l-17.11 17.503-.15 6.121"/><path fill="none" stroke="#FFF" stroke-width="2" stroke-linecap="round" stroke-miterlimit="10" d="M164.575 131.293v3.471a.61.61 0 0 1-.131.365c-.088.121-.188.186-.301.197l-2.906.449a9.095 9.095 0 0 1-.6 1.426c.424.6.988 1.318 1.688 2.156.086.125.131.25.131.375a.487.487 0 0 1-.131.355c-.287.375-.803.934-1.547 1.68-.744.742-1.234 1.113-1.473 1.113a.682.682 0 0 1-.395-.131l-2.156-1.688a8.387 8.387 0 0 1-1.441.582c-.139 1.35-.281 2.32-.432 2.906-.088.299-.275.449-.562.449h-3.488a.573.573 0 0 1-.375-.141.496.496 0 0 1-.188-.328l-.43-2.867a8.352 8.352 0 0 1-1.406-.582l-2.213 1.668c-.088.088-.213.131-.375.131a.628.628 0 0 1-.395-.15c-1.801-1.66-2.699-2.662-2.699-2.998 0-.113.043-.232.131-.355.125-.176.381-.508.768-.996.389-.486.684-.869.883-1.143a9.524 9.524 0 0 1-.658-1.539l-2.85-.447a.468.468 0 0 1-.318-.18.555.555 0 0 1-.131-.365v-3.469c0-.125.043-.248.131-.365.088-.119.188-.184.301-.197l2.906-.451a9.29 9.29 0 0 1 .6-1.426 35.694 35.694 0 0 0-1.688-2.156.713.713 0 0 1-.131-.373c0-.15.045-.275.131-.375.275-.375.789-.934 1.537-1.668.75-.738 1.244-1.107 1.482-1.107.137 0 .268.045.393.131l2.156 1.688a8.673 8.673 0 0 1 1.445-.598c.137-1.352.279-2.314.43-2.889.088-.301.275-.451.562-.451h3.488c.137 0 .262.047.375.143a.48.48 0 0 1 .188.328l.432 2.869c.424.123.893.316 1.404.578l2.213-1.668a.56.56 0 0 1 .375-.131c.139 0 .27.051.395.15 1.801 1.662 2.699 2.664 2.699 3a.615.615 0 0 1-.131.355c-.15.201-.412.537-.787 1.014-.375.475-.656.85-.844 1.125.287.6.5 1.111.639 1.537l2.85.432c.125.023.23.092.318.197s.131.227.131.364z"/><circle fill="#FFF" stroke="#FFF" stroke-miterlimit="10" cx="152.574" cy="133" r="3"/><g stroke="#FFF" stroke-miterlimit="10"><path fill="none" stroke-width="2" d="M229.479 121H212.95c-2.538 0-3.672 1.417-3.672 3.877v15.495c0 2.461 3.134 4.628 5.672 4.628h14.808c2.539 0 3.52-2.167 3.52-4.628V125.5l-3.799-4.5z"/><path fill="none" stroke-width="2" d="M213.277 144v-7.735c0-1.64.483-2.265 2.175-2.265h12.014c1.691 0 1.811.625 1.811 2.265V144"/><path fill="#FFF" stroke-width="2" d="M226.277 128.124c0 .704-.637.876-1.363.876h-10.121c-.727 0-1.516-.172-1.516-.876V121.9c0-.705.79-.9 1.516-.9h10.121c.727 0 1.363.195 1.363.9v6.224z"/><path fill="#1A2839" d="M225.453 127.43c-.012.701-.607 1.26-1.33 1.25l-1.131-.018c-.724-.012-1.3-.589-1.289-1.289l.053-4.778c.012-.701.606-1.261 1.33-1.25l1.131.017c.723.012 1.299.589 1.289 1.29l-.053 4.778z"/></g><g fill="none" stroke="#FFF" stroke-width="3" stroke-linecap="round" stroke-miterlimit="10"><path d="M295.594 138.384L302.21 145"/><circle cx="288.084" cy="131.252" r="9.875"/></g><path d="M15.277 121v24m-12-12h24m56.471 66.242l-12.971-12.971m25.941 0l-12.97 12.971m131.062-10.727l12.97-12.971m0 25.941l-12.97-12.97m-55.526 0l-12.971 12.97m0-25.941l12.971 12.971m208.745-10.244l-16.97 16.971m0-16.971l16.97 16.971m-80.463.18l-6.513-6.515m19.484-6.456l-12.971 12.971" fill="none" stroke="#FFF" stroke-width="4" stroke-linecap="round" stroke-miterlimit="10"/><g stroke="#FFF" stroke-miterlimit="10"><path fill="none" stroke-width="3" stroke-linecap="round" d="M436.473 180.935l-16.151 8.228m16.077 7.956l-16.272-7.983"/><circle fill="#FFF" cx="419.776" cy="189.714" r="5.398"/><circle fill="#FFF" cx="436.702" cy="180.896" r="5.397"/><circle fill="#FFF" cx="436.568" cy="196.978" r="5.398"/></g><g fill="none" stroke="#FFF" stroke-width="2" stroke-miterlimit="10"><path d="M296.518 73.382c4.455-4.892 3.938-10.458 3.938-10.458s.019-1.963-9.708-1.963c-9.523 0-9.503 1.963-9.503 1.963s-.516 5.501 3.853 10.37c0 0 2.462 3.047 5.753 3.047 3.416 0 5.667-2.959 5.667-2.959zm-8.845 4.621c-2.495 2.739-2.206 5.857-2.206 5.857s-.01 1.1 5.438 1.1c5.335 0 5.323-1.1 5.323-1.1s.289-3.081-2.158-5.809c0 0-1.379-1.707-3.223-1.707-1.913.001-3.174 1.659-3.174 1.659z"/><path d="M280.996 63.33s-1.858.202-3.176 1.98c0 0-.844 1.023-.62 2.114.231 1.132 1.366 1.678 1.366 1.678 1.922 1.145 5.841 3.365 5.841 3.365m16.167-9.137s1.857.202 3.176 1.98c0 0 .842 1.023.619 2.114-.232 1.132-1.365 1.678-1.365 1.678-1.924 1.145-5.842 3.365-5.842 3.365"/></g><path fill="#FFF" d="M29.246 68.283c0 .252-.148.525-.445.823l-6.229 6.073 1.476 8.58c.012.079.017.193.017.342 0 .572-.234.858-.703.858-.217 0-.445-.069-.687-.206l-7.703-4.049-7.704 4.049c-.252.137-.48.206-.687.206-.239 0-.42-.083-.54-.249s-.181-.368-.181-.608c0-.068.012-.182.035-.342l1.475-8.58-6.245-6.073c-.286-.309-.429-.583-.429-.823 0-.424.32-.688.961-.789l8.613-1.253 3.86-7.808c.217-.469.497-.703.841-.703.343 0 .623.234.84.703l3.861 7.808 8.613 1.253c.64.101.961.364.961.788zm-9.042 6.125l5.251-5.096-7.24-1.064-3.243-6.554-3.242 6.554-7.241 1.064 5.25 5.096-1.253 7.223 6.486-3.414 6.468 3.414-1.236-7.223z"/><path fill="none" stroke="#FFF" stroke-width="2.5" stroke-linecap="round" stroke-linejoin="round" stroke-miterlimit="10" d="M375.229 78.523c0 1.776-.629 3.291-1.887 4.55-1.258 1.257-2.775 1.887-4.551 1.887h-18.238c-2.066 0-3.834-.737-5.304-2.206-1.469-1.47-2.204-3.236-2.204-5.305 0-1.474.396-2.824 1.189-4.048a7.378 7.378 0 0 1 3.135-2.74 11.827 11.827 0 0 1-.033-.721c0-2.369.836-4.395 2.514-6.067 1.678-1.678 3.699-2.516 6.066-2.516 1.768 0 3.367.491 4.805 1.476a8.591 8.591 0 0 1 3.145 3.856c.779-.695 1.709-1.039 2.781-1.039 1.184 0 2.195.418 3.033 1.256.84.839 1.258 1.85 1.258 3.034 0 .839-.229 1.607-.688 2.312 1.441.334 2.633 1.087 3.57 2.255.94 1.168 1.409 2.508 1.409 4.016z"/><path fill="#FFF" stroke="#FFF" stroke-width="4" stroke-linecap="round" stroke-miterlimit="10" d="M416.277 65h24m-24 10h24m-24 10h24"/><g fill="#FFF" stroke="#FFF" stroke-miterlimit="10"><path stroke-width="4" stroke-linecap="round" d="M426.277 124h15m-15 10h15m-15 10h15"/><ellipse cx="418.205" cy="143.055" rx="3.066" ry="2.945"/><ellipse cx="418.205" cy="134" rx="3.066" ry="2.945"/><ellipse cx="418.205" cy="124.945" rx="3.066" ry="2.944"/></g><path fill="none" stroke="#FFF" stroke-width="2" stroke-miterlimit="10" d="M364.887 125.834h5.271a2.3 2.3 0 0 1 1.691.703 2.3 2.3 0 0 1 .703 1.692v7.187H345.72v-7.187c0-.659.233-1.223.703-1.692s1.033-.703 1.692-.703h16.772zm7.666 9.582v7.188a2.3 2.3 0 0 1-.703 1.693 2.306 2.306 0 0 1-1.691.703h-22.042a2.306 2.306 0 0 1-1.692-.703 2.305 2.305 0 0 1-.703-1.693v-7.188h10.062v2.397c0 .26.094.482.283.672.19.19.415.284.675.284h4.791c.26 0 .484-.094.675-.284a.92.92 0 0 0 .283-.672v-2.397h10.062z"/></svg>