<svg xmlns="http://www.w3.org/2000/svg" width="389.939" height="265.185" viewBox="61.482 57.244 389.939 265.185"><path fill="none" stroke="#000" stroke-width="7.352" stroke-miterlimit="10" d="M256.453 318.753H94.113c-14.133 0-28.955-12.431-28.955-26.778V162.838c64.095-81.202 191.295-101.87 191.295-101.87s127.195 20.668 191.293 101.87v129.137c0 14.349-14.821 26.778-28.96 26.778H256.453"/><path d="M347.418 199.993s1.504-1.601 1.525-2.466l-3.222 1.839 1.697.627zm2.368-2.796s6.375-2.078 8.44-5.238c0 0 1.894-2.07 1.464-3.275l-10.287 4.186.383 4.327z"/><path d="M313.288 156.384s.679-.157 1.531-1.85c0 0 .508-.427.71.433 0 0-.195.994.218 1.375 0 0 1.115-5.389 4.635-8.437 0 0 .529-.313.922-.152 0 0 3.318-4.365 7.654-5.843.03-.018.058-.027.09-.042 0 0 .984.077 1.257-.128.267-.196 1.906-.789 2.277-.356 0 0 .456.449-.013.812 0 0-1.333.332-1.539 1.069 0 0 .047.482-.154.727-.201.247-.242.465-.242.465s3.796-2.261 9.505-2.15c0 0 3.295-1.051 6.856-.865 0 0 2.037-1.082 5.064-.904 0 0 1.733-.658 5.887.141 0 0 1.151 1.866 1.132 3.255 0 0 2.201 2.309 2.072 6.802 0 0 2.206 1.903 2.573 7.03 0 0 .884 1.816.652 3.075 0 0 1.407 2.48.595 7.452 0 0 1.983 2.34-1.842 8.377 0 0 .248.156.779-.22 0 0 1.012.415.214 2.186 0 0-.54 1.117-.935 1.523-.403.416 0 .702 0 .702s1.331-.242.668.907c0 0 2.062.077 2.942-.401.884-.482 1.062-.454 1.493-.191 0 0 1.444.279-.965 2.905 0 0-3.859 3.984-10.699 6.174 0 0-.224.583-2.201 1.56 0 0-5.644 2.267-7.994 2.16l-22.163-4.091-14.119-17.379 3.14-16.121zm26.689 52.29s.813-.465 1.016-1.643c0 0-.343-1.457-1.026-2.146l-6.423 1.629 6.433 2.16z"/><path d="M339.121 205.514s3.056 1.609 11.421-3.479l2.272-1.668s.703-.301.456-.744c0 0-.647-.643-1.465-.159 0 0-5.202-.138-7.402-.081 0 0-2.978 1.184-3.965 2.439l-1.317 3.692zm-31.207-42.694s1.024-4.526 1.109-5.403c0 0 .528-2.971 2.467-4.737 0 0 .892-.709 1.631-1.794 0 0 .372-.541.828-.252 0 0 .533.159.188.929 0 0-1.21 2.171-.352 3.851 0 0 .354.059-.292 1.346 0 0-1.051 3.137-.673 3.951 0 0 .086 2.401-.302 4.381-.39 1.978-1.932 6.706-1.932 6.706l-2.672-8.978z"/><path d="M345.232 199.63s4.157-1.55 4.872-2.813c0 0 1.056-1.932-.113-3.529l-3.584.312-1.755 6.164.58-.134zm-34.831-1.991s-3.972-2.022-4.932-2.277c-.944-.264-3-1.586-4.237-3.397 0 0-1.46-2.714-4.359-3.622 0 0-3.338-.92-5.918-2.839 0 0-1.67-1.805-3.142-2.488 0 0-1.912-1.026-1.899-2.221 0 0 .248-.185 1.028.248 0 0 6.147 3.579 8.342 3.954 0 0 2.319-.322 6.14 1.657l4.912 2.654 4.065 8.331zm17.485 11.465s1.813 1.205 1.683 2.058c-.134.853.321 2.175 3.122 2.291 0 0-2.886 1.019-7.602-2.56l-4.625-3.522 2.179-1.931 5.243 3.664z"/><path d="M334.237 210.672s2.191 1.957 2.364 2.946c0 0 .124 1.28 4.621 3.628 0 0 2.69 1.67 2.52 2.264 0 0 .061.756-1.478-.139 0 0-.562-.57-2.618-1.156 0 0-1.591-.021-3.182-1.97 0 0-1.613-3.628-4.916-2.611 0 0-2.355-.325-2.491-1.538-.131-1.219-.168-2.283-1.172-2.992l6.352 1.568zm-23.849-11.342s-2.229-.694-3.54-2.186c0 0-1.458-.938-1.94-.901 0 0-.536.021.037.583 0 0 .309.025.658.73 0 0 .859 1.57 2.624 2.942 0 0-.56.694-.42.999.137.304 1 3.145-2.375 6.498 0 0-7.685 7.38-16.462 9.638 0 0-4.4 1.843-9.432.045 0 0-1.35-.452-1.36 1.572 0 0-.008 1.808 1.826 2.115 0 0 3.709.864 8.057-.455 0 0 5.734-1.884 12.399-6.336 0 0 5.864-4 7.366-5.267 0 0 2.761-2.467 2.885-4.151 0 0 1.108 3.267 1.392 4.291.015.062.028.12.042.165.175.772.752 2.172 1.454 2.83 0 0 .428.263.173-.282 0 0 .314-1.673.643-2.731 0 0 .708-2.308.433-2.926-.281-.609.94.398 1.224.737.289.338.418.834.664 1.315 0 0 .22.67.815.664 0 0 .277.092-.258-.771 0 0-.169-1.711-2.104-3.9 0 0-1.601-1.466-2.738-2.523-1.133-1.054-2.063-2.695-2.063-2.695zm13.368-9.771s.348-1.735 13.335-.289c0 0 4.126.513 9.106 3.208 0 0 1.704 2.082.678 4.48 0 0-1.482 2.489-2.345 2.999l-4.749 1.735-19.361-6.104 3.336-6.029zm-20.001-15.233s-.603-3.577.22-5.87c0 0-.905-8.215 2.695-9.455 0 0 .529-.235 1.356 2.489 0 0 2.432 6.941 2.874 10.511.45 3.575-3.404 11.13-3.404 11.13l-3.741-8.805z"/><path d="M318.073 199.045s9.744 6.842 27.896 10.533c0 0 3.191.783-.358 2.17 0 0-.979.635-5.606-.131-4.624-.758-6.4.644-17.654-4.494-11.253-5.131-5.673-6.756-5.673-6.756l1.395-1.322zm-18.345-32.171s-.192.101-.945 2.381c0 0-1 5.643 6.469 19.376 0 0 3.908-3.341 2.295-7.881 0 0-2.125-4.15-6.392-10.573 0 0-.817-.59-.655-1.644 0 0 .194-2.326-.772-1.659z"/><path d="M335.195 196.631c-.322-.042-12.901-4.697-16.405-.449 0 0-1.304 5.174 6.833 9.301 0 0 5.066 3.213 15.218-.062 0 0 3.537-1.761-2.095-6.601 0 0 .165-.274-.005-.957 0 0 .682-.625-3.546-1.232z"/><path d="M310.309 197.8s-3.684-2.72-5.057-9.169c0 0-.428-3.341.991-5.208 0 0 1.671-.172 3.481.282 0 0 10.772 3.666 13.026 15.053 0 0-4.788 3.998-12.441-.958z"/><path d="M315.003 205.859s-7.163-5.045-7.089-9.616c0 0 3.366 1.091 5.733 1.7l.518.149c2.715.912 6.145 4.246 8.505 8.888 0 0 .306.324-.296.694 0 .002-2.652 1.541-7.371-1.815zm-7.704-23.872s1.706-9.764 4.972-10.459c0 0 3.123-.779 5.358-1.376 0 0 .753.051 2.495-1.183 0 0 2.553-.97 1.726 1.481 0 0-.732 1.036-.396 2.391 0 0 11.068 15.577-3.015 23.554l-11.072-13.001-.068-1.407zm-142.091 18.001s-1.503-1.592-1.526-2.457l3.221 1.835-1.695.622zm-2.365-2.79s-6.376-2.081-8.444-5.238c0 0-1.894-2.067-1.463-3.275l10.288 4.187-.381 4.326z"/><path d="M199.338 156.379s-.68-.147-1.53-1.848c0 0-.51-.428-.714.438 0 0 .196.99-.216 1.372 0 0-1.112-5.391-4.629-8.44 0 0-.536-.309-.928-.147 0 0-3.318-4.367-7.651-5.849-.031-.018-.061-.018-.089-.03 0 0-.988.072-1.26-.133-.268-.2-1.904-.793-2.278-.362 0 0-.456.448.015.822 0 0 1.33.33 1.539 1.059 0 0-.049.482.157.73.199.251.239.472.239.472s-3.797-2.267-9.508-2.156c0 0-3.292-1.051-6.856-.863 0 0-2.038-1.089-5.063-.907 0 0-1.73-.657-5.889.14 0 0-1.15 1.869-1.132 3.25 0 0-2.201 2.312-2.072 6.806 0 0-2.206 1.902-2.571 7.026 0 0-.887 1.821-.656 3.079 0 0-1.406 2.478-.595 7.452 0 0-1.98 2.333 1.843 8.377 0 0-.247.157-.771-.224 0 0-1.018.419-.218 2.192 0 0 .537 1.116.934 1.52.401.413 0 .707 0 .707s-1.333-.248-.667.907c0 0-2.059.078-2.946-.405-.882-.481-1.061-.449-1.489-.191 0 0-1.446.276.965 2.908 0 0 3.856 3.985 10.696 6.177 0 0 .227.58 2.201 1.548 0 0 5.646 2.278 7.996 2.164l22.16-4.093 14.119-17.38-3.136-16.118zm-26.69 52.295s-.812-.469-1.016-1.648c0 0 .343-1.446 1.026-2.145l6.423 1.631-6.433 2.162z"/><path d="M173.503 205.51s-3.056 1.619-11.419-3.48l-2.274-1.668s-.699-.291-.455-.735c0 0 .646-.646 1.468-.164 0 0 5.205-.144 7.399-.073 0 0 2.98 1.182 3.965 2.428l1.316 3.692zm31.212-42.692s-1.028-4.525-1.113-5.405c0 0-.528-2.963-2.466-4.735 0 0-.894-.712-1.631-1.791 0 0-.374-.538-.83-.258 0 0-.532.167-.188.936 0 0 1.216 2.168.354 3.854 0 0-.356.057.29 1.345 0 0 1.051 3.135.676 3.946 0 0-.086 2.402.299 4.386.39 1.98 1.934 6.708 1.934 6.708l2.675-8.986z"/><path d="M167.393 199.625s-4.157-1.547-4.87-2.809c0 0-1.06-1.926.113-3.527l3.584.311 1.755 6.166-.582-.141zm34.831-1.992s3.974-2.02 4.93-2.277c.949-.252 3.005-1.582 4.239-3.39 0 0 1.461-2.716 4.359-3.628 0 0 3.338-.916 5.917-2.839 0 0 1.673-1.801 3.144-2.49 0 0 1.912-1.021 1.899-2.211 0 0-.248-.194-1.023.238 0 0-6.149 3.59-8.347 3.954 0 0-2.319-.319-6.138 1.658l-4.914 2.657-4.066 8.328zm-17.486 11.476s-1.813 1.199-1.682 2.05c.134.849-.321 2.179-3.123 2.298 0 0 2.888 1.009 7.606-2.566l4.625-3.518-2.184-1.939-5.242 3.675z"/><path d="M178.39 210.669s-2.194 1.963-2.369 2.946c0 0-.122 1.287-4.617 3.633 0 0-2.698 1.658-2.521 2.268 0 0-.06.754 1.479-.149 0 0 .56-.566 2.622-1.15 0 0 1.588-.024 3.176-1.969 0 0 1.613-3.631 4.918-2.608 0 0 2.355-.324 2.491-1.535.13-1.224.168-2.295 1.169-2.992l-6.348 1.556zm23.847-11.341s2.229-.695 3.543-2.186c0 0 1.454-.937 1.935-.896 0 0 .54.016-.036.582 0 0-.309.021-.658.729 0 0-.856 1.569-2.623 2.94 0 0 .556.698.422 1-.139.31-1.002 3.147 2.373 6.494 0 0 7.685 7.385 16.465 9.646 0 0 4.398 1.838 9.435.043 0 0 1.348-.459 1.358 1.57 0 0 .007 1.809-1.828 2.118 0 0-3.712.864-8.057-.452 0 0-5.736-1.893-12.398-6.337 0 0-5.863-4.001-7.365-5.277 0 0-2.767-2.463-2.888-4.144 0 0-1.108 3.265-1.392 4.292-.017.06-.029.124-.042.161-.175.777-.752 2.174-1.455 2.824 0 0-.427.264-.173-.274 0 0-.314-1.67-.641-2.736 0 0-.707-2.308-.431-2.915.278-.611-.942.391-1.226.735-.286.335-.416.829-.661 1.313 0 0-.22.666-.818.66 0 0-.279.098.261-.771 0 0 .167-1.711 2.105-3.896 0 0 1.601-1.463 2.735-2.527 1.133-1.047 2.06-2.696 2.06-2.696zm-13.363-9.775s-.353-1.726-13.34-.288c0 0-4.121.521-9.104 3.219 0 0-1.704 2.074-.68 4.479 0 0 1.482 2.486 2.344 2.996l4.753 1.729 19.361-6.099-3.334-6.036zm19.996-15.225s.603-3.583-.216-5.87c0 0 .903-8.218-2.699-9.454 0 0-.529-.246-1.354 2.486 0 0-2.434 6.94-2.877 10.511-.445 3.569 3.405 11.125 3.405 11.125l3.741-8.798z"/><path d="M194.552 199.045s-9.744 6.848-27.896 10.531c0 0-3.191.787.358 2.177 0 0 .981.627 5.606-.137 4.624-.751 6.402.646 17.654-4.493 11.253-5.131 5.676-6.762 5.676-6.762l-1.398-1.316zm18.348-32.172s.19.102.945 2.381c0 0 .998 5.643-6.471 19.377 0 0-3.908-3.343-2.295-7.881 0 0 2.125-4.155 6.394-10.575 0 0 .814-.589.655-1.644-.001.001-.191-2.324.772-1.658z"/><path d="M177.431 196.629c.321-.045 12.902-4.695 16.405-.443 0 0 1.303 5.174-6.832 9.295 0 0-5.064 3.222-15.219-.062 0 0-3.536-1.755 2.095-6.601 0 0-.165-.27.005-.957-.001 0-.679-.625 3.546-1.232z"/><path d="M202.315 197.796s3.685-2.714 5.058-9.165c0 0 .425-3.338-.989-5.21 0 0-1.669-.175-3.48.29 0 0-10.773 3.669-13.028 15.05 0 0 4.789 3.989 12.439-.965z"/><path d="M197.625 205.861s7.166-5.047 7.091-9.615c0 0-3.368 1.089-5.738 1.701a7.397 7.397 0 0 0-.524.154c-2.706.903-6.134 4.232-8.498 8.873 0 0-.306.332.299.694-.001.002 2.648 1.547 7.37-1.807zm7.701-23.874s-1.704-9.767-4.972-10.457c0 0-3.123-.789-5.358-1.382 0 0-.747.052-2.492-1.174 0 0-2.556-.975-1.728 1.478 0 0 .733 1.026.395 2.386 0 0-11.066 15.582 3.014 23.551l11.073-12.994.068-1.408zm77.878-33.444s.256-2.18-.243-2.881l-1.491 3.39 1.734-.509zm.244-3.654s3.88-5.467 3.674-9.242c0 0 .289-2.789-.77-3.499l-5.786 9.496 2.882 3.245z"/><path d="M229.854 133.811s.456-.527.136-2.4c0 0 .156-.645.83-.067 0 0 .438.912.993.975 0 0-2.304-5.002-1.292-9.544 0 0 .248-.568.655-.67 0 0 .082-5.487 2.674-9.26.023-.032.044-.056.06-.081 0 0 .831-.527.927-.851.1-.329 1.069-1.777 1.621-1.649 0 0 .639.083.474.665 0 0-.874 1.054-.601 1.773 0 0 .317.356.307.68-.01.319.082.521.082.521s1.706-4.085 6.366-7.388c0 0 2.026-2.811 4.995-4.787 0 0 .995-2.084 3.536-3.744 0 0 .998-1.559 4.817-3.393 0 0 2.04.819 2.842 1.941 0 0 3.14.547 5.707 4.235 0 0 2.905.212 6.246 4.117 0 0 1.791.933 2.348 2.084 0 0 2.606 1.152 4.909 5.639 0 0 2.98.702 3.495 7.828 0 0 .294-.026.489-.645 0 0 1.066-.257 1.479 1.644 0 0 .229 1.201.149 1.778-.083.566.42.565.42.565s.919-.998 1.076.325c0 0 1.702-1.16 2.123-2.076.42-.914.59-1 1.087-1.036 0 0 1.324-.642.952 2.905 0 0-.737 5.499-4.932 11.334 0 0 .162.6-.846 2.558 0 0-3.191 5.194-5.146 6.506l-20.25 9.904-21.671-5.56-7.057-14.826zm52.522 26.145s.381-.855-.16-1.924c0 0-1.138-.966-2.097-1.119l-4.205 5.135 6.462-2.092z"/><path d="M279.813 157.926s3.415-.521 7.113-9.6l.831-2.695s.393-.651-.068-.864c0 0-.901-.136-1.275.741 0 0-4.271 2.989-6 4.346 0 0-1.691 2.723-1.736 4.32l1.135 3.752zm-50.448-15.732s-1.866-4.256-2.319-5.014c0 0-1.34-2.7-.833-5.277 0 0 .295-1.101.249-2.41 0 0-.025-.652.511-.7 0 0 .527-.186.704.642 0 0 .321 2.461 2.009 3.303 0 0 .322-.165.568 1.256 0 0 1.012 3.147 1.8 3.574 0 0 1.498 1.881 2.36 3.711.864 1.823 2.433 6.547 2.433 6.547l-7.482-5.632z"/><path d="M281.23 149.552s2.421-3.72 2.244-5.158c0 0-.114-2.343-2.005-2.933 0 0-.186.161-2.876 2.553l2.247 5.998.39-.46zm-29.213 19.686s-4.093.688-5.286.559c-.985-.107-3.358.521-5.425-.2 0 0-2.788-1.314-5.661-.32 0 0-3.227 1.248-6.442 1.24 0 0-2.417-.451-4.008-.126 0 0-2.144.319-2.839-.655 0 0 .087-.299.97-.413 0 0 7.071-.779 9.052-1.787 0 0 1.67-1.643 5.927-2.329l5.521-.788 8.191 4.819zm20.9-1.735s2.048-.766 2.45 0c.399.768 1.563 2.304 3.883.728 0 0-1.608 2.436-7.523 2.368l-5.804-.066.595-2.854 6.399-.176z"/><path d="M278.947 164.978s2.929.275 3.651.964c0 0 .869.956 5.874.166 0 0 3.153-.267 3.37.319 0 0 .498.57-1.271.768 0 0-.792-.125-2.792.632 0 0-1.291.927-3.727.309 0 0-3.45-1.955-5.503.833 0 0-2.084 1.138-2.917.241-.83-.901-1.49-1.735-2.715-1.706l6.03-2.526zm-20.973-10.727s-.742-1.597 10.557-8.178c0 0 3.623-2.042 9.229-2.842 0 0 2.599.664 3.207 3.204 0 0 .289 2.881-.105 3.803l-2.792 4.225-19.184 6.625-.912-6.837zm-25.118-.335s-2.616-2.515-3.308-4.853c0 0-5.615-6.064-3.447-9.198 0 0 .277-.517 2.561 1.19 0 0 6.079 4.127 8.559 6.732 2.472 2.605 3.874 10.972 3.874 10.972l-8.239-4.843z"/><path d="M259.05 165.263s11.898-.304 28.682-8.146c0 0 3.027-1.271 1.003 1.957 0 0-.413 1.093-4.584 3.232-4.17 2.142-4.766 4.33-16.864 6.898-12.101 2.575-8.576-2.061-8.576-2.061l.339-1.88zm-33.861-14.937s-.094.185.658 2.476c0 0 2.545 5.129 16.709 11.722 0 0 .507-4.85-3.482-7.539 0 0-3.528-2.237-10.776-4.867 0 0-1.004.018-1.502-.922 0 0-1.227-1.986-1.607-.87z"/><path d="M271.38 153.124c-.29.157-14.123 4.282-14.415 9.78 0 0 2.981 4.564 11.976 3.038 0 0 5.979-.432 12.198-9.114 0 0 1.796-3.52-5.61-4.064 0 0-.025-.315-.57-.764 0 0 .177-.907-3.579 1.124z"/><path d="M252.063 168.879s-4.575.011-9.507-4.355c0 0-2.325-2.426-2.302-4.777 0 0 1.241-1.141 2.971-1.846 0 0 9.358-.123 17.927 7.688.001-.001.006 2.716-9.089 3.29z"/><path d="M260.622 172.564s-7.43-.61-10.469-3.731c0 0 2.411-.901 4.683-1.824.16-.065.332-.129.513-.185 2.719-.893 7.453-.249 12.111 2.076 0 0 .438.082.169.734 0 .001-1.213 2.823-7.007 2.93zm-20.368-14.601s-4.431-8.863-2.212-11.366c0 0 2.048-2.5 3.489-4.306 0 0 .628-.402 1.294-2.426 0 0 1.484-2.302 2.272.161 0 0 .027 1.262 1.101 2.154 0 0 18.153 5.936 11.57 20.724l-16.622-3.85-.892-1.091z"/><path d="M251.936 168.387s-.77.932-3.48 1.785c0 0-1.673.434-1.97.814 0 0-.354.408.452.37 0 0 .225-.213.982.01 0 0 1.205.831 3.94.066 0 0 2.991-.585 2.776 7.034 0 0-.595 20.587.053 23.125 0 0 .217 1.298 1.837 1.244 0 0 1.352.054 1.352-1.351 0 0-3.566-29.125 1.297-27.612 0 0 .947.293 1.895.78.056.028.111.063.146.079.69.399 2.109.922 3.063.846 0 0 .483-.136-.084-.314 0 0-1.015-1.362-1.577-2.326 0 0-1.218-2.083-1.852-2.293-.64-.209.926-.427 1.372-.401.44.016.891.257 1.415.404 0 0 .639.292 1.04-.153 0 0 .261-.138-.745-.332 0 0-1.372-1.037-4.292-1.094 0 0-2.16.186-3.713.297-1.538.119-3.907-.978-3.907-.978z"/><text transform="matrix(1.0577 0 0 1 309.26 130.718)" font-family="'DaunPenh'" font-size="36.933">2014</text><text transform="matrix(1.0577 0 0 1 151.167 130.718)" font-family="'DayRoman'" font-size="21.52">EST</text><path d="M204.019 119.538c0 .689-.15 1.303-.459 1.84a4.247 4.247 0 0 1-1.205 1.355 5.528 5.528 0 0 1-1.714.842 6.862 6.862 0 0 1-1.97.289c-.204 0-.372-.003-.5-.014-.134-.008-.257-.017-.376-.023-.119-.007-.245-.018-.376-.022a6.63 6.63 0 0 0-.502-.017c-.353 0-.696.014-1.021.032-.327.02-.667.03-1.022.03-.078 0-.117-.036-.117-.108 0-.08.023-.139.07-.181a.516.516 0 0 1 .167-.095.967.967 0 0 1 .204-.049c.071-.006.133-.021.196-.036.27-.054.437-.139.501-.257.062-.117.103-.294.122-.537.005-.077.012-.168.016-.272.005-.106.01-.248.015-.428.005-.18.008-.418.013-.704.002-.286.005-.664.005-1.131v-2.798c0-.125-.002-.268-.005-.417-.005-.156-.013-.299-.021-.442a8.68 8.68 0 0 0-.028-.374 1.15 1.15 0 0 0-.047-.22.402.402 0 0 0-.273-.221 1.82 1.82 0 0 0-.376-.042c-.067 0-.134 0-.203.003-.068.006-.134.006-.201.006a.42.42 0 0 1-.217-.06c-.043-.034-.06-.08-.043-.146a.29.29 0 0 1 .066-.146c.037-.029.137-.06.309-.087.167-.025.372-.053.613-.072.243-.02.501-.037.773-.048.278-.012.543-.021.804-.031.258-.007.49-.014.691-.018.201-.004.351-.008.433-.008.847 0 1.617.104 2.319.315.7.205 1.298.509 1.798.907.5.396.885.876 1.153 1.446.273.574.408 1.217.408 1.939zm-1.448-.084c0-.967-.26-1.798-.781-2.482-.523-.684-1.281-1.167-2.28-1.449a10.12 10.12 0 0 0-.546-.123 3.098 3.098 0 0 0-.572-.056h-.358a.27.27 0 0 1-.07.01.71.71 0 0 0-.195.039 1.158 1.158 0 0 0-.237.114.537.537 0 0 0-.183.222 1.112 1.112 0 0 0-.049.234c-.01.075-.013.157-.013.236 0 .208.003.422.005.638.005.217.008.427.008.633 0 .706-.005 1.404-.013 2.098-.007.695-.013 1.391-.013 2.096 0 .351.023.645.067.876.049.231.124.418.232.551a.838.838 0 0 0 .399.289c.16.057.358.085.585.085.592 0 1.135-.105 1.633-.312a3.769 3.769 0 0 0 1.267-.861c.353-.366.627-.79.819-1.278a4.124 4.124 0 0 0 .295-1.56zm-27.118 177.683c0 .581-.113 1.081-.337 1.502-.225.42-.527.769-.905 1.043s-.82.479-1.325.614a6.783 6.783 0 0 1-1.613.218.842.842 0 0 1-.148.016h-5.003c-.121 0-.258-.014-.411-.038-.154-.026-.23-.117-.23-.272 0-.104.085-.169.255-.193.17-.026.359-.056.568-.086.209-.031.406-.084.593-.155.187-.073.296-.197.329-.374.011-.021.022-.188.033-.498.011-.311.019-.713.025-1.206.005-.492.014-1.048.024-1.665a222.541 222.541 0 0 0 .033-3.774v-1.619c0-.196-.022-.354-.066-.475a.555.555 0 0 0-.197-.271.876.876 0 0 0-.338-.133 6.199 6.199 0 0 0-.485-.069c-.033 0-.085-.007-.156-.017a1.236 1.236 0 0 1-.206-.047.959.959 0 0 1-.181-.078c-.055-.031-.083-.066-.083-.107 0-.104.066-.178.198-.219.131-.041.293-.066.485-.078.192-.01.389-.01.593 0 .203.012.37.017.502.017.494 0 .984-.021 1.473-.062.488-.041.984-.062 1.489-.062.45 0 .919.047 1.407.141.488.094.938.246 1.35.459s.749.496 1.012.849c.264.354.395.784.395 1.292 0 .592-.192 1.076-.576 1.455s-.856.656-1.416.832c.055.041.165.086.329.133s.291.086.378.115c.659.24 1.19.598 1.597 1.074.405.472.608 1.053.608 1.738zm-1.728.155c0-.487-.121-.923-.362-1.308a2.339 2.339 0 0 0-.716-.754 3.348 3.348 0 0 0-.914-.414 4.873 4.873 0 0 0-1.029-.17c-.357-.021-.71-.031-1.062-.031h-.28a.73.73 0 0 0-.337.078c-.104.052-.156.154-.156.312v3.175c0 .238.019.487.058.746.038.26.162.479.37.654.175.145.406.232.691.264.285.031.538.047.757.047 1.009 0 1.758-.24 2.247-.724.488-.481.733-1.106.733-1.875zm-.774-5.54c0-.693-.228-1.225-.683-1.587-.456-.363-1.035-.545-1.737-.545h-.23c-.121 0-.252.003-.395.008a1.902 1.902 0 0 0-.419.062 1.07 1.07 0 0 0-.354.164.457.457 0 0 0-.181.312 2.34 2.34 0 0 0-.041.351 6.93 6.93 0 0 0-.008.351v2.972c0 .053.044.109.132.172.087.062.225.094.412.094h.56c.395 0 .771-.041 1.127-.125.356-.082.669-.217.938-.403.269-.188.483-.431.642-.731.158-.306.237-.669.237-1.095zm10.287 3.206c.219.083.431.267.634.552.203.286.406.627.609 1.02.203.396.42.812.65 1.254s.488.857.773 1.253c.285.396.604.739.955 1.034.351.296.757.49 1.218.584.121.052.244.091.371.117.126.024.189.084.189.179 0 .062-.049.14-.148.233-.121.041-.318.062-.592.062-.11 0-.22-.007-.33-.017a18.474 18.474 0 0 1-.28-.03c-.933-.156-1.714-.515-2.345-1.074a5.448 5.448 0 0 1-1.44-2.054 13.149 13.149 0 0 1-.518-1.027c-.159-.354-.34-.672-.543-.957s-.439-.521-.708-.708-.601-.28-.996-.28c-.219 0-.354.043-.403.125-.05.084-.074.25-.074.498v3.205c0 .271.036.473.107.607.071.134.17.232.296.295s.277.104.453.125c.175.021.373.052.592.094.022.01.066.016.132.016.087 0 .17.01.247.03.076.021.115.073.115.156 0 .146-.055.233-.165.265-.11.03-.274.047-.494.047-.395 0-.79-.019-1.185-.055a12.528 12.528 0 0 0-1.168-.055c-.34 0-.678.016-1.012.047-.335.031-.672.046-1.012.046-.143 0-.236-.013-.28-.038-.044-.025-.066-.111-.066-.257 0-.071.043-.122.131-.147s.2-.05.337-.069c.137-.021.283-.044.437-.07.153-.024.299-.075.436-.147a.951.951 0 0 0 .337-.295c.088-.125.132-.297.132-.515v-3.206c0-.882.008-1.758.024-2.63.017-.871.025-1.748.025-2.63 0-.207-.044-.368-.132-.482a.71.71 0 0 0-.337-.24 1.72 1.72 0 0 0-.436-.086l-.436-.03a1.346 1.346 0 0 1-.337-.062.184.184 0 0 1-.132-.188c0-.146.058-.23.173-.258.115-.025.233-.039.354-.039s.244.006.37.017.25.017.37.017h1.432c.417 0 .836-.008 1.259-.023.422-.016.842-.023 1.259-.023.362 0 .751.045 1.168.133s.807.248 1.168.481c.362.233.664.548.905.942.241.394.362.896.362 1.509 0 .332-.074.641-.222.926-.148.286-.34.543-.576.771-.236.229-.5.432-.79.607-.289.171-.578.32-.863.445zm.774-2.802c0-.414-.071-.777-.214-1.09-.143-.312-.337-.572-.584-.785s-.541-.373-.881-.482a3.712 3.712 0 0 0-1.119-.162c-.384 0-.637.063-.757.193s-.181.318-.181.568v.528c0 .415-.006.882-.017 1.4-.011.519-.017.985-.017 1.399 0 .155-.003.289-.008.396-.005.109.005.2.033.271.027.073.087.125.181.155.093.031.238.048.436.048.438 0 .85-.033 1.234-.102.384-.066.716-.191.996-.374.28-.181.5-.431.659-.747.159-.31.239-.718.239-1.216zm13.282-.575c-.109 0-.197-.063-.263-.194a4.35 4.35 0 0 1-.197-.459 6.125 6.125 0 0 0-.222-.521.82.82 0 0 0-.354-.382 1.61 1.61 0 0 0-.428-.133 7.403 7.403 0 0 0-.625-.086c-.23-.021-.469-.033-.716-.039-.247-.004-.48-.008-.699-.008h-.725c-.252 0-.444.051-.576.148a.85.85 0 0 0-.288.381c-.061.156-.096.33-.107.521a9.629 9.629 0 0 0-.017.553c0 .353.002.705.008 1.058.005.354.008.706.008 1.06v.356c0 .136.011.244.033.327a.356.356 0 0 0 .197.109c.088.021.184.033.288.037.104.006.206.006.305 0a6.3 6.3 0 0 1 .247-.006c.296 0 .598-.004.905-.009a7.69 7.69 0 0 0 .905-.069c.329-.053.565-.183.708-.391.143-.207.225-.461.247-.762.033-.062.068-.122.107-.18.038-.058.101-.086.189-.086.121 0 .187.053.198.155.011.104.017.214.017.327 0 .218-.006.436-.017.652a13.038 13.038 0 0 0 0 1.3c.011.212.017.428.017.646 0 .053.002.116.008.194a.996.996 0 0 1-.008.226.368.368 0 0 1-.074.18c-.039.047-.096.07-.173.07s-.137-.047-.181-.141-.08-.199-.107-.318a8.737 8.737 0 0 1-.074-.358.779.779 0 0 0-.082-.257.647.647 0 0 0-.337-.443 1.946 1.946 0 0 0-.642-.202 4.744 4.744 0 0 0-.773-.047c-.269.006-.508.008-.716.008-.055 0-.126.003-.214.009l-.28.016a8.022 8.022 0 0 0-.288.023c-.093.01-.162.021-.206.03-.066.011-.11.058-.132.142a1.914 1.914 0 0 0-.057.59c.006.104.008.178.008.219v2.459c0 .113.003.24.008.381.005.141.022.28.049.421.027.14.071.271.132.39.06.119.151.209.271.271.088.041.241.075.461.102.219.025.453.045.7.055.247.011.485.02.716.023.23.006.395.008.494.008h.51c.143 0 .302-.006.478-.017.175-.01.343-.022.502-.039.159-.016.307-.038.444-.069.137-.03.25-.072.337-.125.153-.094.296-.237.428-.436.132-.197.255-.395.371-.592.115-.196.225-.37.329-.521.104-.149.2-.227.288-.227.132 0 .206.042.222.125s.002.166-.041.249c0 .011-.011.062-.033.155s-.039.149-.049.172a4.514 4.514 0 0 0-.082.318l-.14.575c-.049.202-.113.47-.189.802-.088.125-.225.188-.411.188h-7.769c-.154 0-.31.005-.469.016-.159.01-.321.016-.486.016-.121 0-.241-.006-.362-.016-.121-.011-.181-.094-.181-.248 0-.084.068-.146.206-.188.137-.041.302-.082.494-.124.192-.041.381-.096.568-.163s.33-.169.428-.304c.087-.125.148-.327.181-.607.033-.279.049-.586.049-.918 0-.342-.006-.688-.017-1.033a29.538 29.538 0 0 1-.017-.912c0-.84-.005-1.675-.016-2.504-.011-.83-.017-1.666-.017-2.507v-.42a.69.69 0 0 0-.017-.14c-.022-.271-.124-.449-.304-.537-.181-.088-.379-.146-.593-.172s-.406-.051-.576-.077-.255-.106-.255-.241c0-.094.046-.158.14-.193a1.37 1.37 0 0 1 .329-.078c.126-.017.261-.021.403-.017.143.007.264.009.362.009.373 0 .746.008 1.119.022s.751.022 1.136.022c.757 0 1.5-.008 2.23-.022.73-.017 1.473-.022 2.23-.022h.181c.121 0 .241.01.362.03.121.021.192.072.214.155.043.208.065.398.065.576 0 .093-.002.205-.008.334-.006.13-.008.287-.008.475 0 .208-.014.402-.042.584-.028.182-.084.279-.172.29zm10.913 3.05c-.296-.747-.601-1.479-.914-2.193s-.65-1.433-1.012-2.147a.746.746 0 0 0-.42-.39 3.816 3.816 0 0 0-.535-.141 4.293 4.293 0 0 1-.461-.101c-.132-.037-.198-.122-.198-.257 0-.094.058-.158.173-.194.115-.036.228-.056.337-.056h.181c.264 0 .527.017.79.048.264.03.527.047.79.047.384 0 .766-.017 1.144-.047.378-.031.76-.048 1.144-.048.099 0 .187.031.263.095.077.062.115.14.115.233 0 .113-.077.182-.23.201-.153.021-.327.036-.519.047s-.365.039-.519.086c-.153.047-.23.152-.23.318 0 .031.005.064.016.102l.033.102c.055.155.165.443.329.863.165.421.356.9.576 1.439.219.539.453 1.107.699 1.703.247.598.48 1.149.7 1.657.219.509.412.938.576 1.292s.28.555.346.607c.033.029.071.027.115-.008.044-.037.085-.084.124-.142s.071-.114.099-.171c.027-.057.046-.096.058-.117.065-.145.178-.412.337-.801l.543-1.331c.203-.498.412-1.024.625-1.579.213-.555.412-1.07.592-1.549.181-.477.33-.885.445-1.223.115-.336.172-.541.172-.613 0-.219-.088-.358-.263-.42a2.48 2.48 0 0 0-.584-.125 5.392 5.392 0 0 1-.584-.086c-.176-.036-.264-.133-.264-.287a.27.27 0 0 1 .099-.211.342.342 0 0 1 .23-.086c.351 0 .708.02 1.07.056.362.036.718.056 1.07.056.252 0 .499-.015.741-.039.241-.027.488-.039.741-.039.076 0 .134.024.172.078a.271.271 0 0 1 .058.17c0 .135-.046.223-.14.266a1.386 1.386 0 0 1-.337.093c-.132.021-.269.056-.412.103s-.263.137-.362.271c-.033.052-.08.146-.14.279l-.197.437c-.072.155-.138.31-.198.459-.061.15-.107.263-.14.334-.23.562-.469 1.113-.716 1.658a91.505 91.505 0 0 0-.732 1.657c-.406.943-.801 1.883-1.185 2.816-.384.933-.779 1.873-1.185 2.815a.573.573 0 0 1-.074.147c-.027.037-.085.055-.172.055a.214.214 0 0 1-.181-.085.777.777 0 0 1-.099-.164l-.773-1.806a424.55 424.55 0 0 1-.773-1.806l-.543-1.307-.296.528c-.066.084-.181.277-.346.584s-.337.644-.519 1.012c-.182.367-.356.724-.527 1.066-.17.342-.288.586-.354.73-.055.113-.115.24-.181.381s-.137.271-.214.396c-.077.125-.159.23-.247.318s-.17.133-.247.133c-.143 0-.238-.053-.288-.156a7.842 7.842 0 0 1-.14-.312c-.757-1.649-1.498-3.272-2.222-4.87s-1.481-3.211-2.271-4.84c-.154-.32-.318-.531-.494-.631a1.627 1.627 0 0 0-.485-.188 1.693 1.693 0 0 1-.371-.101c-.099-.042-.148-.166-.148-.374 0-.062.027-.104.083-.124a.935.935 0 0 1 .197-.047c.076-.011.148-.013.214-.008s.11.008.132.008c.241 0 .48.013.716.039.236.024.475.039.716.039.285 0 .573-.015.864-.039.291-.026.579-.039.864-.039.088 0 .165.021.23.062.066.041.099.108.099.203 0 .113-.052.184-.156.209a2.743 2.743 0 0 1-.354.062c-.131.016-.25.041-.354.076-.104.037-.157.123-.157.258 0 .072.066.277.198.615.131.336.302.74.51 1.213.208.473.438.98.691 1.524.252.546.494 1.063.724 1.558s.438.931.625 1.313c.186.384.318.654.395.81.043.104.109.25.197.437s.178.366.271.537c.093.171.181.31.264.412.082.104.14.118.173.047l1.797-3.862zm14.615-5.197c0 .146-.058.233-.173.266a1.56 1.56 0 0 1-.403.047 3 3 0 0 0-.691.062c-.165.041-.286.108-.362.201a.596.596 0 0 0-.131.344 6 6 0 0 0-.017.481c0 .653-.008 1.302-.025 1.944a78.29 78.29 0 0 0-.024 1.945v3.969c0 .166.014.353.041.561a.734.734 0 0 0 .239.482c.099.082.233.14.403.171.17.03.334.06.494.086.159.024.299.055.42.085.121.031.181.094.181.188 0 .155-.08.241-.238.258a4.859 4.859 0 0 1-.486.021c-.307 0-.615-.016-.922-.046a9.162 9.162 0 0 0-.921-.047c-.329 0-.625.018-.889.055a6.62 6.62 0 0 1-.889.054h-.23a.975.975 0 0 1-.321-.054c-.104-.037-.156-.116-.156-.241 0-.094.055-.158.165-.195.109-.035.239-.066.387-.092.148-.026.305-.058.469-.095a.925.925 0 0 0 .411-.194c.11-.082.178-.229.206-.442.027-.213.041-.418.041-.615v-.325l.017-5.447c0-.271.002-.533.008-.793.005-.26.008-.52.008-.778v-.296c0-.176-.016-.368-.049-.575-.033-.208-.082-.353-.148-.437a.797.797 0 0 0-.428-.211 6.602 6.602 0 0 0-.478-.054c-.154-.011-.283-.036-.387-.077s-.156-.136-.156-.281c0-.104.052-.162.156-.178.104-.017.2-.023.288-.023h.181c.318 0 .639.016.963.047.323.031.644.047.962.047.154 0 .313-.008.478-.023.165-.015.324-.022.478-.022h1.432a.337.337 0 0 1 .066.108c.02.046.03.087.03.119zm3.637 11.048c-.362 0-.724.01-1.086.031-.362.021-.73.029-1.103.029-.088 0-.189-.016-.305-.046-.116-.031-.173-.104-.173-.218 0-.094.041-.161.124-.203a.97.97 0 0 1 .304-.085c.12-.017.247-.026.379-.031.131-.005.241-.013.329-.022a.852.852 0 0 0 .437-.188.83.83 0 0 0 .229-.343c.049-.136.08-.28.09-.437.011-.154.017-.306.017-.451l.066-3.681c.022-1.208.033-2.437.033-3.68a4.54 4.54 0 0 0-.024-.476.854.854 0 0 0-.14-.396 1.003 1.003 0 0 0-.329-.296 1.778 1.778 0 0 0-.592-.187 2.246 2.246 0 0 0-.28-.023 3.15 3.15 0 0 1-.362-.038 1.222 1.222 0 0 1-.312-.095c-.088-.041-.132-.104-.132-.187 0-.094.058-.166.173-.218a.716.716 0 0 1 .288-.078c.241 0 .477.005.708.016.231.012.466.017.708.017.187 0 .365-.005.535-.017a8.3 8.3 0 0 1 .535-.016c.197 0 .348.023.453.07a.968.968 0 0 1 .296.209c.093.094.195.207.305.343.109.136.269.296.478.481.438.498.886 1 1.341 1.502.455.504.96 1.06 1.514 1.666a465.301 465.301 0 0 1 4.255 4.739c.153-.01.225-.123.214-.342v-1.883c.011-.811.014-1.619.008-2.428-.006-.811-.008-1.619-.008-2.428 0-.146-.003-.285-.008-.421a2.082 2.082 0 0 0-.058-.405c-.055-.228-.184-.369-.387-.428a2.625 2.625 0 0 0-.642-.094c-.225-.005-.428-.018-.609-.038s-.271-.114-.271-.28c0-.104.038-.174.115-.209a.562.562 0 0 1 .247-.056c.351 0 .702.011 1.054.03a17.627 17.627 0 0 0 1.917.009c.291-.017.579-.022.864-.022.241 0 .362.088.362.264 0 .125-.068.205-.206.242a2.821 2.821 0 0 1-.469.076c-.176.016-.351.037-.527.062-.175.025-.302.086-.378.179-.066.084-.121.229-.165.437s-.074.429-.09.662c-.017.232-.028.459-.033.677s-.008.379-.008.481v3.223c0 .602-.002 1.281-.008 2.037-.006.758-.008 1.649-.008 2.678 0 .177-.008.34-.025.49-.017.149-.096.234-.239.256a.217.217 0 0 1-.165-.038.868.868 0 0 1-.156-.132c-.049-.053-.099-.107-.148-.164s-.091-.106-.124-.147c-.318-.353-.634-.706-.946-1.06a60.565 60.565 0 0 1-.93-1.072l-.058-.062-.206-.226c-.11-.119-.28-.306-.51-.562-.23-.254-.554-.608-.971-1.064-.417-.457-.941-1.032-1.572-1.729l-2.329-2.566a13.516 13.516 0 0 1-.568-.678 3.784 3.784 0 0 0-.65-.646c-.033.178-.05.354-.05.529 0 .561.006 1.087.017 1.579.011.493.019 1.004.025 1.532.005.529.014 1.104.024 1.721s.017 1.33.017 2.14c0 .478.033.824.099 1.042.066.219.167.366.305.444.137.077.312.122.527.132.214.011.474.047.782.109.087.021.173.06.255.115a.28.28 0 0 1 .124.241c0 .062-.033.104-.099.125s-.126.03-.181.03c-.318 0-.637-.01-.955-.03-.321-.013-.64-.023-.958-.023zm22.763-11.562c.077 0 .126.053.148.155.021.104.033.229.033.374s-.008.296-.024.451a3.733 3.733 0 0 0-.025.404 19.81 19.81 0 0 1-.066 1.619c-.022.095-.049.156-.082.188a.162.162 0 0 1-.115.045.496.496 0 0 1-.124-.014.36.36 0 0 0-.107-.017c-.066 0-.124-.042-.173-.125s-.093-.187-.132-.312a6.107 6.107 0 0 1-.107-.396 2.924 2.924 0 0 0-.115-.381 1.686 1.686 0 0 0-.461-.592c-.208-.176-.45-.327-.724-.451s-.565-.221-.873-.288-.609-.101-.905-.101c-.812 0-1.484.146-2.016.442s-.958.688-1.275 1.175a4.853 4.853 0 0 0-.675 1.674 9.314 9.314 0 0 0 .016 3.891c.143.628.373 1.183.691 1.665.318.481.727.866 1.226 1.151.5.284 1.105.428 1.819.428.724 0 1.287-.061 1.687-.18.4-.119.694-.289.881-.514a1.48 1.48 0 0 0 .329-.825c.033-.325.049-.702.049-1.128 0-.57-.011-1.017-.033-1.338-.022-.32-.077-.562-.165-.725a.56.56 0 0 0-.395-.295 3.689 3.689 0 0 0-.725-.056c-.143 0-.271-.01-.387-.03-.115-.021-.173-.119-.173-.295 0-.074.03-.127.091-.164a.63.63 0 0 1 .214-.078c.082-.016.165-.025.247-.03s.15-.009.206-.009c.329 0 .606.011.831.031.225.021.502.031.831.031.362 0 .678-.014.947-.039s.584-.039.946-.039c.121 0 .25.012.387.031.137.02.206.104.206.249 0 .104-.046.168-.14.194a1.661 1.661 0 0 1-.354.047 5.044 5.044 0 0 0-.444.037.837.837 0 0 0-.412.173c-.044.021-.082.071-.115.155a1.289 1.289 0 0 0-.074.304c-.017.118-.03.246-.042.381-.011.135-.016.26-.016.374v.311c0 .137.002.317.008.545l.016.709.017.707c.005.229.008.41.008.545 0 .072-.003.162-.008.266-.006.104-.036.182-.09.232-.198.238-.491.424-.881.554s-.807.228-1.251.295c-.444.067-.878.108-1.3.125-.422.017-.76.022-1.012.022-.856 0-1.643-.11-2.362-.334-.719-.224-1.333-.562-1.843-1.021a4.629 4.629 0 0 1-1.193-1.728c-.286-.694-.428-1.51-.428-2.442 0-.944.15-1.79.452-2.537a5.373 5.373 0 0 1 1.276-1.905 5.515 5.515 0 0 1 1.975-1.199c.768-.273 1.624-.412 2.567-.412.472 0 .968.062 1.49.188.521.125.974.307 1.358.545.077.053.148.045.214-.022s.132-.153.198-.257c.066-.104.137-.202.214-.297.078-.09.166-.137.264-.137zm18.443-.296c.077 0 .126.052.148.155.022.104.033.229.033.373 0 .146-.008.297-.025.451a3.75 3.75 0 0 0-.024.404 19.946 19.946 0 0 1-.066 1.621c-.022.093-.049.155-.083.187-.033.031-.071.047-.115.047s-.085-.006-.124-.016a.391.391 0 0 0-.107-.016c-.066 0-.121-.047-.165-.141a1.905 1.905 0 0 1-.115-.334c-.033-.131-.068-.266-.107-.405s-.09-.263-.156-.365a3.477 3.477 0 0 0-1.292-.833 4.452 4.452 0 0 0-1.572-.287c-.757 0-1.405.141-1.942.42-.537.28-.977.653-1.317 1.12a4.769 4.769 0 0 0-.749 1.626 7.691 7.691 0 0 0-.239 1.922c0 .717.08 1.411.239 2.086.159.674.414 1.273.765 1.797.351.524.807.947 1.366 1.27s1.24.482 2.041.482c.263 0 .537-.028.823-.086.285-.058.562-.141.831-.25.269-.107.521-.24.757-.396.236-.155.441-.337.617-.545.055-.072.118-.171.189-.295.071-.125.145-.249.222-.374.077-.124.148-.233.214-.327.066-.093.126-.14.181-.14.121 0 .206.021.255.062.049.041.074.119.074.233 0 .082-.014.218-.041.404a9.138 9.138 0 0 1-.107.584 5.628 5.628 0 0 1-.148.551c-.055.166-.11.275-.165.328-.187.154-.434.287-.741.396s-.636.2-.987.272a9.483 9.483 0 0 1-1.078.156c-.368.029-.7.045-.996.045-.965 0-1.835-.168-2.608-.506a5.982 5.982 0 0 1-1.975-1.361 5.93 5.93 0 0 1-1.251-1.991 6.585 6.585 0 0 1-.436-2.382c0-.901.15-1.703.452-2.403a5.05 5.05 0 0 1 1.251-1.772c.532-.482 1.171-.85 1.917-1.099s1.564-.373 2.453-.373c.373 0 .743.021 1.111.062s.738.1 1.111.172c.087.021.189.05.304.086.115.035.233.068.354.101.077.062.143.06.197-.008.055-.067.115-.151.181-.257.066-.104.148-.204.247-.303a.536.536 0 0 1 .398-.148zm14.583 6.116a5.66 5.66 0 0 1-.502 2.357 6.077 6.077 0 0 1-1.382 1.944 6.65 6.65 0 0 1-2.066 1.321c-.79.328-1.635.49-2.535.49-.889 0-1.709-.146-2.46-.442-.752-.296-1.396-.708-1.934-1.237s-.958-1.152-1.259-1.875c-.302-.721-.452-1.512-.452-2.373s.153-1.66.46-2.396a5.699 5.699 0 0 1 1.292-1.913c.554-.539 1.21-.962 1.967-1.269s1.585-.459 2.485-.459c.867 0 1.687.143 2.46.428s1.451.685 2.033 1.197a5.696 5.696 0 0 1 1.383 1.846c.34.716.51 1.509.51 2.381zm-2.041-.7a7.635 7.635 0 0 0-.642-1.897 5.383 5.383 0 0 0-1.127-1.55 4.205 4.205 0 0 0-1.605-.948c-.614-.203-1.306-.236-2.074-.103-.823.146-1.471.426-1.942.841-.472.415-.815.902-1.029 1.463s-.324 1.159-.329 1.797c-.006.64.052 1.254.173 1.846.109.611.299 1.224.567 1.836.269.611.623 1.15 1.062 1.617.438.468.971.82 1.596 1.06.625.238 1.355.285 2.189.14.812-.135 1.454-.416 1.926-.848a3.909 3.909 0 0 0 1.037-1.525 5.558 5.558 0 0 0 .346-1.858 9.425 9.425 0 0 0-.148-1.871zm18.236-4.498c0 .084-.044.147-.131.194-.088.047-.192.08-.313.102s-.241.034-.362.039a7.466 7.466 0 0 1-.28.008c-.22 0-.39.039-.51.116a.702.702 0 0 0-.264.304 1.294 1.294 0 0 0-.099.437 7.524 7.524 0 0 0-.017.497v.391c.022 1.184.061 2.334.115 3.454.055 1.121.115 2.293.181 3.519.011.187.033.394.066.621a.688.688 0 0 0 .329.514c.055.031.148.064.28.102s.274.073.428.109c.153.035.301.072.444.109.143.035.258.074.346.115.065.031.099.088.099.172 0 .104-.052.163-.156.18a2.112 2.112 0 0 1-.321.021h-.165c-.318 0-.639-.018-.963-.054a8.484 8.484 0 0 0-.963-.056c-.351 0-.705.019-1.062.056-.356.036-.71.054-1.062.054a2.51 2.51 0 0 1-.321-.029c-.138-.021-.206-.084-.206-.188 0-.093.044-.163.132-.21s.165-.092.23-.133c.296 0 .535-.025.716-.077a.757.757 0 0 0 .403-.249.94.94 0 0 0 .173-.443c.027-.181.041-.406.041-.677l-.214-5.183a42.31 42.31 0 0 1-.032-1.275c0-.312-.044-.493-.132-.545a.6.6 0 0 0-.14.163 2.28 2.28 0 0 0-.14.257l-.124.271a236.043 236.043 0 0 1-1.58 3.322 81.91 81.91 0 0 0-1.44 3.145c-.055.125-.121.287-.198.49a6.817 6.817 0 0 1-.255.584c-.094.187-.184.35-.272.489s-.165.21-.23.21c-.121 0-.214-.072-.28-.218a2.485 2.485 0 0 1-.131-.343 67.885 67.885 0 0 0-1.144-2.879 54.516 54.516 0 0 0-1.292-2.816 25.956 25.956 0 0 1-.255-.576 51.092 51.092 0 0 0-.411-.918c-.148-.32-.288-.605-.42-.855-.131-.248-.225-.373-.28-.373-.022 0-.041.152-.058.459a100.724 100.724 0 0 0-.09 2.816c-.011.598-.02 1.18-.025 1.75l-.016 1.588c-.006.487-.008.861-.008 1.121 0 .176.046.312.14.403a.934.934 0 0 0 .346.218c.137.053.288.09.453.109s.315.042.453.062c.138.02.252.053.346.101.094.047.14.122.14.226 0 .114-.068.178-.206.188-.137.01-.244.015-.321.015-.286 0-.568-.01-.848-.029-.28-.021-.562-.031-.848-.031-.352 0-.7.01-1.045.031-.346.021-.694.029-1.045.029-.066 0-.162-.013-.288-.037-.126-.027-.189-.082-.189-.164 0-.166.077-.268.23-.304.154-.037.329-.067.527-.094.197-.025.395-.067.592-.125a.647.647 0 0 0 .428-.396 2.35 2.35 0 0 0 .148-.515c.033-.187.06-.368.083-.544.121-1.225.23-2.459.329-3.704s.148-2.479.148-3.704c0-.361-.088-.632-.263-.809-.176-.178-.467-.301-.873-.375l-.247-.045c-.11-.021-.222-.045-.337-.07s-.217-.061-.305-.102c-.088-.041-.132-.094-.132-.155 0-.114.061-.179.181-.194.12-.015.225-.023.313-.023a4.8 4.8 0 0 1 .535.031c.17.021.348.031.535.031.285 0 .562-.011.831-.031s.546-.031.831-.031c.088 0 .159.004.214.009.055.005.11.044.165.116.208.271.373.572.494.91s.252.662.395.973c.329.727.661 1.447.996 2.162.334.717.667 1.447.996 2.195.077.176.165.383.263.622.099.238.197.47.296.692s.189.412.271.566c.082.156.15.233.206.233.055 0 .104-.041.148-.124.043-.083.082-.161.115-.232a70.17 70.17 0 0 0 1.761-3.713 70.867 70.867 0 0 1 1.761-3.711c.132-.27.236-.443.313-.521a.396.396 0 0 1 .296-.116h.346c.198 0 .343.005.437.016.093.01.222.016.387.016.241 0 .477-.006.708-.016.23-.011.466-.016.708-.016.077 0 .175.018.296.055.121.036.177.116.165.24zm8.411 2.879c0-.353-.058-.692-.173-1.019a2.41 2.41 0 0 0-.526-.864 2.697 2.697 0 0 0-.881-.606 3.357 3.357 0 0 0-1.218-.265c-.121 0-.252.008-.395.022a.658.658 0 0 0-.362.147c-.099.095-.167.241-.206.442a3.089 3.089 0 0 0-.058.584v.312c0 .528.005 1.053.017 1.571l.033 1.571h-.017v1.152a6.81 6.81 0 0 0-.024.459l-.017.605c-.006.213-.008.428-.008.646v1.524c0 .125.005.249.017.374.011.124.038.24.082.35s.102.205.173.288.173.14.305.171c.066.021.159.043.28.062.121.021.244.042.37.062s.242.039.346.053c.104.017.178.029.222.039.088.043.118.09.091.142a1.011 1.011 0 0 0-.074.187.426.426 0 0 1-.197.078 1.79 1.79 0 0 1-.23.016c-.352 0-.708-.019-1.07-.055a11.238 11.238 0 0 0-2.213 0c-.368.036-.744.055-1.127.055-.11 0-.181-.033-.214-.102a.503.503 0 0 1-.049-.226c0-.041.068-.08.206-.117l.477-.124c.181-.047.356-.104.527-.171.17-.067.288-.158.354-.272.087-.177.137-.371.148-.584.011-.211.017-.416.017-.613 0-.623.005-1.245.017-1.867.011-.623.016-1.245.016-1.868 0-.685-.002-1.366-.008-2.046a278.05 278.05 0 0 1-.008-2.047c0-.229-.044-.395-.132-.498-.088-.104-.195-.174-.321-.21s-.267-.05-.42-.038c-.154.01-.293.013-.42.007a.837.837 0 0 1-.321-.069c-.088-.041-.131-.13-.131-.265 0-.083.033-.142.099-.171a.688.688 0 0 1 .214-.062 20.898 20.898 0 0 1 1.572-.094c.521-.01 1.045-.016 1.572-.016h.938c.592 0 1.157.064 1.695.193a4.42 4.42 0 0 1 1.416.601c.406.271.729.614.971 1.034.241.421.362.916.362 1.486 0 .487-.104.932-.312 1.33a3.355 3.355 0 0 1-.84 1.035c-.351.29-.765.516-1.243.678-.477.16-.979.24-1.506.24-.187 0-.299-.013-.337-.039a7.411 7.411 0 0 1-.173-.117.513.513 0 0 1-.123-.295.39.39 0 0 1 .017-.164c.017-.045.052-.068.107-.068.044.01.071.016.083.016a3.037 3.037 0 0 0 1.07-.211c.318-.129.592-.307.823-.527.23-.225.409-.494.535-.811.119-.311.182-.657.182-1.031zm.79 7.828c0-.136.044-.224.132-.265.087-.043.194-.072.321-.094a3.25 3.25 0 0 0 .395-.094.671.671 0 0 0 .354-.279c.033-.043.082-.134.148-.272l.206-.443c.071-.155.137-.309.197-.459.06-.149.107-.262.14-.335.23-.561.463-1.111.699-1.656l.716-1.658c.406-.943.812-1.883 1.218-2.815.406-.935.812-1.873 1.218-2.817a.549.549 0 0 1 .074-.146c.027-.036.085-.055.173-.055.077 0 .137.029.181.086a.812.812 0 0 1 .099.162c.252.593.51 1.193.773 1.807.264.611.521 1.214.774 1.805a89.95 89.95 0 0 0 1.448 3.361 82.343 82.343 0 0 0 1.597 3.314.744.744 0 0 0 .419.39c.181.062.359.108.535.14.175.031.329.064.461.102.131.037.197.123.197.258 0 .093-.058.156-.173.193a1.1 1.1 0 0 1-.337.055h-.181c-.263 0-.526-.016-.79-.047a6.963 6.963 0 0 0-.79-.047c-.384 0-.765.017-1.144.047-.379.031-.76.047-1.144.047a.395.395 0 0 1-.263-.094.287.287 0 0 1-.115-.232c0-.114.077-.182.23-.202.154-.021.327-.036.519-.047a2.53 2.53 0 0 0 .519-.078c.154-.041.23-.149.23-.326a.368.368 0 0 0-.017-.102 6.628 6.628 0 0 0-.214-.578l-.312-.754a60.961 60.961 0 0 0-.412-.965c-.154-.354-.313-.717-.478-1.09a5.597 5.597 0 0 1-.14-.28.568.568 0 0 0-.091-.155c-.088-.083-.219-.132-.395-.146a5.63 5.63 0 0 0-.543-.023h-.312c-.132 0-.305-.003-.519-.008a23.901 23.901 0 0 0-.667-.008c-.22 0-.437.005-.65.016-.214.01-.393.031-.535.062a27.77 27.77 0 0 0-1.276 3.362c-.071.239-.107.385-.107.438 0 .218.088.356.263.42.176.062.371.104.584.123.214.021.409.051.584.087s.263.132.263.288a.267.267 0 0 1-.099.209.338.338 0 0 1-.23.087c-.352 0-.708-.019-1.07-.056a10.522 10.522 0 0 0-1.07-.055c-.252 0-.48.014-.683.039a5.611 5.611 0 0 1-.683.039c-.077 0-.134-.025-.173-.078a.3.3 0 0 1-.054-.178zm5.711-9.166c-.154.332-.286.62-.395.862-.11.244-.22.496-.329.756-.11.26-.236.55-.379.872-.143.321-.324.731-.543 1.229h.444c.187 0 .469-.003.848-.009a128.1 128.1 0 0 1 1.605-.008c0-.011.019-.019.058-.022a.492.492 0 0 0 .09-.022c-.143-.363-.291-.75-.444-1.159-.154-.41-.296-.794-.428-1.152l-.337-.91c-.094-.25-.157-.395-.19-.437zm9.992 9.399c-.362 0-.724.01-1.086.031-.362.021-.729.029-1.103.029-.088 0-.189-.016-.305-.046-.116-.031-.173-.104-.173-.218 0-.094.041-.161.124-.203a.97.97 0 0 1 .304-.085c.12-.017.247-.026.379-.031.131-.005.241-.013.329-.022a.848.848 0 0 0 .436-.188.843.843 0 0 0 .23-.343c.049-.136.08-.28.09-.437.011-.154.017-.306.017-.451l.066-3.681c.021-1.208.033-2.437.033-3.68a4.54 4.54 0 0 0-.024-.476.854.854 0 0 0-.14-.396 1.003 1.003 0 0 0-.329-.296 1.778 1.778 0 0 0-.592-.187 2.246 2.246 0 0 0-.28-.023 3.15 3.15 0 0 1-.362-.038 1.222 1.222 0 0 1-.312-.095c-.088-.041-.132-.104-.132-.187 0-.094.058-.166.173-.218a.716.716 0 0 1 .288-.078c.241 0 .477.005.708.016.231.012.466.017.708.017.187 0 .365-.005.535-.017a8.3 8.3 0 0 1 .535-.016c.197 0 .348.023.453.07a.968.968 0 0 1 .296.209c.093.094.195.207.305.343.109.136.269.296.478.481.438.498.886 1 1.341 1.502.455.504.96 1.06 1.514 1.666a465.301 465.301 0 0 1 4.255 4.739c.153-.01.225-.123.214-.342v-1.883c.011-.811.014-1.619.008-2.428-.006-.811-.008-1.619-.008-2.428 0-.146-.003-.285-.008-.421a2.082 2.082 0 0 0-.058-.405c-.055-.228-.184-.369-.387-.428a2.625 2.625 0 0 0-.642-.094 6.991 6.991 0 0 1-.609-.038c-.181-.021-.271-.114-.271-.28 0-.104.038-.174.115-.209a.562.562 0 0 1 .247-.056c.351 0 .702.011 1.054.03a17.627 17.627 0 0 0 1.917.009c.291-.017.579-.022.864-.022.241 0 .362.088.362.264 0 .125-.068.205-.206.242a2.821 2.821 0 0 1-.469.076c-.176.016-.351.037-.527.062-.175.025-.302.086-.378.179-.066.084-.121.229-.165.437s-.074.429-.09.662c-.017.232-.028.459-.033.677s-.008.379-.008.481v3.223c0 .602-.002 1.281-.008 2.037-.006.758-.008 1.649-.008 2.678 0 .177-.008.34-.025.49-.017.149-.096.234-.239.256-.055.011-.11-.002-.165-.038s-.107-.08-.156-.132c-.049-.053-.099-.107-.148-.164a6.393 6.393 0 0 1-.124-.147c-.318-.353-.634-.706-.946-1.06a60.565 60.565 0 0 1-.93-1.072l-.058-.062-.206-.226c-.11-.119-.28-.306-.51-.562-.23-.254-.554-.608-.971-1.064-.417-.457-.941-1.032-1.572-1.729l-2.329-2.566a13.516 13.516 0 0 1-.568-.678 3.784 3.784 0 0 0-.65-.646c-.033.178-.05.354-.05.529 0 .561.006 1.087.017 1.579.011.493.019 1.004.025 1.532.005.529.014 1.104.023 1.721.01.617.017 1.33.017 2.14 0 .478.033.824.099 1.042.066.219.167.366.305.444.137.077.312.122.527.132.214.011.474.047.782.109.087.021.173.06.255.115a.28.28 0 0 1 .124.241c0 .062-.033.104-.099.125s-.126.03-.181.03c-.318 0-.637-.01-.955-.03a23.637 23.637 0 0 0-.957-.023zm12.294-11.33c.307 0 .609.021.905.062s.598.062.905.062c.417 0 .836-.019 1.259-.055.423-.035.848-.055 1.276-.055.055 0 .124.025.206.078.083.052.124.104.124.154 0 .156-.077.246-.23.272a4.136 4.136 0 0 1-.502.048 3.775 3.775 0 0 0-.502.045c-.154.026-.23.112-.23.258 0 .113.052.26.156.437s.225.36.362.552c.137.192.28.379.428.562l.371.459c.263.362.526.724.79 1.081.263.357.537.703.823 1.035.033.041.062.08.09.117a.272.272 0 0 0 .124.084.336.336 0 0 0 .107-.062c.039-.031.068-.058.091-.078.065-.062.184-.2.354-.412l.593-.747c.225-.285.458-.592.7-.918.241-.326.463-.631.667-.91.203-.279.37-.52.502-.717.131-.195.197-.316.197-.357 0-.176-.077-.287-.23-.334a2.156 2.156 0 0 0-.502-.086 4.283 4.283 0 0 1-.502-.055c-.154-.025-.229-.111-.229-.257 0-.125.03-.194.091-.21.06-.016.145-.023.255-.023.252 0 .505.017.757.047a6.47 6.47 0 0 0 1.605-.008c.28-.035.562-.055.848-.055.154 0 .293.026.42.078.126.052.156.145.09.279a.328.328 0 0 1-.229.164c-.11.024-.23.049-.362.068a2.403 2.403 0 0 0-.412.109.991.991 0 0 0-.395.279c-.406.447-.798.902-1.177 1.369s-.76.935-1.144 1.4c-.176.208-.37.428-.584.662a12.01 12.01 0 0 0-.609.716c-.192.243-.351.489-.477.738s-.189.487-.189.716v3.098c0 .279.044.495.132.646.087.15.197.257.329.318.132.062.277.1.436.108.159.011.313.019.461.022.148.005.277.021.387.048a.31.31 0 0 1 .23.194c0 .094-.022.176-.066.248s-.126.108-.247.108c-.428 0-.859-.019-1.292-.054a15.19 15.19 0 0 0-1.292-.055c-.395 0-.787.018-1.177.055-.39.035-.782.054-1.177.054a.526.526 0 0 1-.115-.015c-.044-.012-.066-.043-.066-.094-.055-.156-.022-.263.099-.319.121-.058.277-.099.469-.124.192-.026.39-.055.593-.086a.82.82 0 0 0 .485-.233c.055-.062.099-.163.132-.304s.058-.301.074-.482a9.13 9.13 0 0 0 .033-.582c.005-.209.008-.404.008-.593v-1.369c0-.321-.006-.592-.017-.81a1.058 1.058 0 0 0-.214-.592 163.1 163.1 0 0 0-1.77-2.373 156.127 156.127 0 0 1-1.769-2.373 1.023 1.023 0 0 0-.461-.357c-.187-.072-.365-.127-.535-.163s-.315-.071-.436-.108-.181-.111-.181-.227c0-.104.039-.16.115-.171a3.58 3.58 0 0 1 .241-.007zm-231.2-12.25c0-.516.173-.854.52-1.014a4.98 4.98 0 0 1 1.269-.357 12.59 12.59 0 0 0 1.561-.358c.542-.157 1.008-.516 1.398-1.073.13-.158.325-.507.585-1.043.26-.537.531-1.104.813-1.699.282-.598.542-1.184.78-1.76.238-.576.423-1.005.553-1.283.91-2.146 1.831-4.264 2.764-6.352.932-2.087 1.875-4.204 2.829-6.352 1.604-3.617 3.208-7.217 4.812-10.795s3.208-7.176 4.812-10.795a2.07 2.07 0 0 1 .292-.565c.108-.14.335-.209.683-.209.303 0 .542.11.716.328.172.219.303.428.39.626.997 2.267 2.016 4.572 3.056 6.918 1.041 2.347 2.059 4.652 3.057 6.918a346.875 346.875 0 0 0 5.723 12.883 316.066 316.066 0 0 0 6.308 12.702c.39.756.943 1.253 1.658 1.491.716.238 1.42.418 2.114.537a20.34 20.34 0 0 1 1.821.388c.521.14.781.468.781.983 0 .357-.228.605-.683.746a4.55 4.55 0 0 1-1.333.207h-.715c-1.041 0-2.081-.06-3.122-.179s-2.081-.179-3.122-.179c-1.518 0-3.024.06-4.52.179s-3.003.179-4.52.179c-.39 0-.737-.119-1.041-.356-.304-.238-.455-.537-.455-.896 0-.438.303-.695.911-.774.606-.079 1.29-.14 2.048-.179.758-.039 1.441-.14 2.049-.299.606-.158.91-.576.91-1.253a1.34 1.34 0 0 0-.065-.388 8.836 8.836 0 0 0-.13-.389c-.13-.396-.369-1.004-.715-1.817l-1.236-2.894c-.478-1.112-1.019-2.346-1.626-3.697s-1.235-2.743-1.886-4.176a21.958 21.958 0 0 1-.553-1.072c-.152-.316-.271-.516-.358-.596-.347-.318-.868-.508-1.561-.567-.694-.06-1.41-.089-2.146-.089h-1.236c-.521 0-1.203-.01-2.048-.03-.846-.021-1.724-.028-2.634-.028-.868 0-1.723.021-2.569.06-.845.04-1.55.118-2.113.237-.78 1.67-1.507 3.33-2.179 4.979a99.707 99.707 0 0 0-2.861 7.901c-.283.916-.423 1.473-.423 1.671 0 .835.347 1.372 1.041 1.61.693.237 1.463.396 2.309.477.846.081 1.615.189 2.309.328.693.141 1.041.507 1.041 1.104 0 .319-.13.588-.39.807-.26.218-.564.326-.91.326-1.388 0-2.796-.068-4.228-.207a43.082 43.082 0 0 0-4.227-.209c-.998 0-1.897.049-2.699.148-.803.1-1.702.148-2.699.148-.304 0-.532-.101-.683-.299a1.036 1.036 0 0 1-.227-.653zm22.566-35.127a314.845 314.845 0 0 0-1.561 3.311c-.434.936-.868 1.898-1.301 2.893-.434.994-.933 2.107-1.496 3.34a2164.72 2164.72 0 0 0-2.146 4.711h1.756c.737 0 1.854-.01 3.35-.029s3.609-.029 6.341-.029c0-.039.075-.068.228-.09.151-.02.271-.049.357-.089-.564-1.392-1.149-2.872-1.756-4.442s-1.17-3.043-1.691-4.414c-.52-1.371-.965-2.535-1.333-3.488-.369-.958-.617-1.513-.748-1.674zm77.65 14.789c0 3.42-.781 6.463-2.341 9.125-1.561 2.664-3.621 4.912-6.178 6.74-2.559 1.828-5.485 3.221-8.78 4.174a36.037 36.037 0 0 1-10.08 1.433c-1.041 0-1.897-.021-2.569-.062-.672-.039-1.312-.08-1.918-.119-.607-.039-1.247-.08-1.918-.119a45.85 45.85 0 0 0-2.569-.059 88.52 88.52 0 0 0-5.235.148 88.57 88.57 0 0 1-5.235.148c-.39 0-.585-.18-.585-.537 0-.396.119-.694.358-.895.238-.197.52-.357.845-.479a4.392 4.392 0 0 1 1.041-.237 6.775 6.775 0 0 0 1.008-.179c1.387-.278 2.244-.707 2.569-1.282.325-.576.53-1.461.618-2.654.042-.396.075-.854.098-1.371.021-.517.042-1.223.065-2.116.021-.896.042-2.059.065-3.49.021-1.432.033-3.299.033-5.605v-13.896a72.107 72.107 0 0 0-.131-4.264 31.104 31.104 0 0 0-.163-1.849c-.065-.537-.141-.904-.228-1.104-.304-.597-.77-.964-1.398-1.104a8.867 8.867 0 0 0-1.918-.209c-.348 0-.694.011-1.041.029-.348.021-.694.029-1.041.029-.391 0-.759-.099-1.106-.298-.217-.157-.292-.397-.228-.716.065-.316.184-.557.358-.716.173-.158.693-.308 1.561-.447a40.12 40.12 0 0 1 3.154-.356c1.235-.1 2.558-.18 3.967-.238 1.409-.061 2.774-.109 4.097-.149 1.322-.039 2.504-.069 3.544-.09 1.041-.021 1.777-.028 2.211-.028 4.335 0 8.292.517 11.869 1.551 3.577 1.033 6.644 2.533 9.202 4.502 2.558 1.969 4.53 4.363 5.918 7.187 1.387 2.825 2.081 6.024 2.081 9.602zm-7.414-.416c0-4.812-1.333-8.916-4-12.315s-6.558-5.794-11.673-7.187a41.614 41.614 0 0 0-2.796-.627 15.849 15.849 0 0 0-2.927-.269h-1.821c.042 0-.076.011-.358.03a5.022 5.022 0 0 0-2.211.775 2.452 2.452 0 0 0-.943 1.103 5.82 5.82 0 0 0-.26 1.163 10.08 10.08 0 0 0-.065 1.162c0 1.035.01 2.088.032 3.162.021 1.072.033 2.127.033 3.16 0 3.5-.022 6.969-.065 10.406a813.724 813.724 0 0 0-.065 10.407c0 1.75.119 3.2.357 4.354.238 1.152.628 2.066 1.17 2.742a4.355 4.355 0 0 0 2.049 1.432c.823.279 1.821.418 2.992.418 3.034 0 5.82-.517 8.356-1.551 2.537-1.033 4.704-2.455 6.503-4.265 1.799-1.81 3.197-3.926 4.195-6.353.998-2.418 1.497-5.002 1.497-7.747zm83.827-20.216c-.13.238-.466.387-1.008.446s-1.149.11-1.821.149c-.673.039-1.323.119-1.951.238-.629.118-1.095.357-1.398.715-.347.358-.575.836-.683 1.433a10.597 10.597 0 0 0-.163 1.908v1.014c0 5.011-.022 9.97-.065 14.88-.044 4.911-.065 9.87-.065 14.881 0 .993.172 1.76.52 2.295.347.537.78.936 1.301 1.193.52.259 1.083.428 1.691.507.606.08 1.17.159 1.691.238.52.08.953.198 1.3.356.347.16.521.459.521.896 0 .597-.228.915-.683.955-.455.039-.943.06-1.463.06-1.431 0-2.873-.06-4.325-.18a52.961 52.961 0 0 0-4.325-.18 49.81 49.81 0 0 0-4.195.18c-1.409.12-2.808.18-4.195.18-.91 0-1.366-.318-1.366-.953 0-.598.228-.955.683-1.074s1.008-.18 1.658-.18 1.333-.05 2.049-.148a2.8 2.8 0 0 0 1.788-.983c.477-.557.781-1.253.911-2.088.13-.835.195-1.59.195-2.267v-10.854c0-.597-.13-1.023-.391-1.281a1.881 1.881 0 0 0-.975-.508 5.336 5.336 0 0 0-1.269-.09c-.455.021-.878.03-1.268.03h-15.868c-.52 0-1.084-.011-1.691-.03s-1.16.021-1.658.119c-.499.1-.911.279-1.236.537-.325.259-.487.686-.487 1.281v11.689c0 .796.01 1.264.032 1.4.021.141.033.27.033.389.13 1.073.563 1.779 1.301 2.117a7.222 7.222 0 0 0 2.341.626c.823.08 1.571.149 2.244.209.672.06 1.008.368 1.008.924 0 .597-.228.925-.683.983-.455.061-.965.091-1.528.091-1.128 0-2.276-.052-3.447-.149-1.17-.1-2.32-.148-3.447-.148h-2.536c-1.17 0-2.32.06-3.447.179-1.128.12-2.255.181-3.382.181-.347 0-.759-.021-1.235-.061-.478-.04-.715-.279-.715-.717 0-.596.335-.963 1.008-1.104a37.684 37.684 0 0 1 2.244-.388 7.8 7.8 0 0 0 2.374-.745c.758-.378 1.225-1.104 1.398-2.177.13-.874.205-1.771.228-2.685.021-.914.033-1.81.033-2.685v-26.181c0-1.193-.163-2.107-.488-2.744-.325-.635-.748-1.104-1.268-1.401a4.536 4.536 0 0 0-1.626-.565 62.384 62.384 0 0 0-1.626-.209c-.52-.061-.943-.158-1.268-.299-.325-.139-.488-.447-.488-.925 0-.356.205-.586.618-.687a5.46 5.46 0 0 1 1.269-.148h.715c1.127 0 2.232.03 3.316.09 1.083.061 2.189.09 3.317.09 1.561 0 3.132-.02 4.715-.06 1.582-.039 3.154-.06 4.715-.06.26 0 .521.06.78.179.26.118.391.317.391.596 0 .796-.348 1.243-1.041 1.343-.694.101-1.475.148-2.341.148-.434 0-.846.04-1.236.119-.39.08-.748.229-1.073.447-.325.22-.585.537-.781.953-.195.418-.292.965-.292 1.642 0 .558-.011 1.112-.033 1.67a42.247 42.247 0 0 0-.032 1.67v10.14c0 1.112.563 1.67 1.691 1.67 1.821 0 3.436.01 4.845.028 1.409.021 2.785.03 4.13.03 1.343 0 2.72.01 4.129.029 1.408.021 3.024.029 4.845.029.433 0 .92.01 1.463.029.542.021 1.073.021 1.593 0 .521-.02.964-.079 1.333-.18.368-.099.595-.269.683-.506.043-.119.075-.486.098-1.104.021-.616.033-1.36.033-2.235 0-.914.01-1.88.032-2.894.021-1.015.033-1.978.033-2.894v-3.875c0-.279-.011-.605-.033-.984a10.156 10.156 0 0 0-.13-1.133 5.696 5.696 0 0 0-.292-1.073 1.803 1.803 0 0 0-.585-.806 3.595 3.595 0 0 0-.976-.389 8.025 8.025 0 0 0-1.236-.209 14.972 14.972 0 0 1-1.17-.148c-.348-.06-.585-.148-.715-.269-.434 0-.792-.039-1.073-.118-.282-.08-.422-.359-.422-.836 0-.318.086-.546.26-.686.173-.141.412-.239.715-.299.303-.061.618-.08.943-.061.325.021.66.03 1.008.03 1.127 0 2.232.05 3.317.147 1.083.101 2.167.149 3.251.149 1.343 0 2.688-.039 4.032-.119a68.673 68.673 0 0 1 4.032-.118c.997 0 1.636.079 1.918.237.281.171.422.549.422 1.146zm53.977 19.859c0 3.182-.661 6.191-1.983 9.035a23.413 23.413 0 0 1-5.463 7.453c-2.32 2.129-5.04 3.818-8.162 5.07s-6.46 1.879-10.015 1.879c-3.512 0-6.753-.566-9.722-1.701-2.97-1.133-5.518-2.713-7.642-4.74-2.125-2.027-3.783-4.422-4.975-7.186-1.193-2.765-1.789-5.795-1.789-9.097 0-3.3.607-6.36 1.821-9.185 1.213-2.822 2.915-5.269 5.105-7.336 2.188-2.065 4.78-3.688 7.771-4.859 2.991-1.172 6.265-1.76 9.82-1.76 3.424 0 6.666.547 9.723 1.641 3.057 1.094 5.733 2.624 8.032 4.592a21.913 21.913 0 0 1 5.463 7.067c1.344 2.745 2.016 5.787 2.016 9.127zm-8.064-2.686a28.71 28.71 0 0 0-2.536-7.274c-1.171-2.306-2.656-4.284-4.455-5.935-1.799-1.649-3.913-2.862-6.341-3.639-2.428-.775-5.16-.902-8.194-.388-3.252.558-5.811 1.631-7.674 3.221-1.864 1.591-3.219 3.459-4.064 5.606-.845 2.146-1.279 4.441-1.301 6.888a32.78 32.78 0 0 0 .683 7.067c.433 2.347 1.181 4.69 2.244 7.037s2.46 4.412 4.195 6.201c1.733 1.789 3.837 3.143 6.308 4.057 2.471.914 5.354 1.094 8.649.537 3.208-.518 5.744-1.602 7.609-3.252 1.864-1.648 3.229-3.598 4.097-5.844.867-2.246 1.322-4.621 1.366-7.127.042-2.501-.152-4.887-.586-7.155zm42.467-6.201c0-1.352-.228-2.653-.683-3.906a9.186 9.186 0 0 0-2.081-3.311c-.933-.953-2.092-1.729-3.479-2.326-1.388-.596-2.991-.934-4.812-1.014-.478 0-.998.029-1.561.09-.564.06-1.041.248-1.431.566-.39.357-.662.924-.813 1.699a11.623 11.623 0 0 0-.228 2.236v1.192c0 2.027.021 4.035.065 6.022l.13 6.023h-.065v4.413c-.043.438-.076 1.022-.098 1.759s-.043 1.512-.065 2.326a91.782 91.782 0 0 0-.033 2.475v5.846c0 .479.021.954.065 1.432.042.479.151.926.325 1.342.172.418.4.785.683 1.104.282.317.683.536 1.203.655.26.08.628.16 1.105.238a162.02 162.02 0 0 0 2.829.447c.412.061.704.11.878.149.347.159.465.338.358.536a3.89 3.89 0 0 0-.293.716 1.689 1.689 0 0 1-.78.298 7.16 7.16 0 0 1-.911.061c-1.388 0-2.796-.069-4.227-.209a44.042 44.042 0 0 0-4.292-.209c-1.519 0-3.003.069-4.455.209-1.453.14-2.938.209-4.455.209-.434 0-.715-.129-.846-.388a1.899 1.899 0 0 1-.195-.864c0-.158.27-.309.813-.447.542-.139 1.17-.299 1.886-.479a18.048 18.048 0 0 0 2.081-.654c.672-.26 1.138-.606 1.398-1.045.346-.676.542-1.42.585-2.235.043-.814.065-1.601.065-2.355 0-2.386.021-4.771.065-7.157.042-2.386.065-4.771.065-7.156 0-2.623-.011-5.237-.033-7.842a928.655 928.655 0 0 1-.032-7.844c0-.874-.174-1.51-.521-1.908a2.594 2.594 0 0 0-1.268-.805 4.945 4.945 0 0 0-1.658-.148c-.608.039-1.161.051-1.659.029-.499-.02-.921-.109-1.268-.269-.347-.158-.52-.497-.52-1.015 0-.317.13-.537.39-.656.26-.118.542-.197.845-.237a82.45 82.45 0 0 1 6.211-.358c2.059-.039 4.129-.06 6.21-.06h3.707c2.341 0 4.574.249 6.698.746s3.989 1.262 5.593 2.296 2.883 2.355 3.837 3.966c.953 1.61 1.431 3.509 1.431 5.695 0 1.868-.413 3.569-1.236 5.099a12.874 12.874 0 0 1-3.316 3.967c-1.388 1.113-3.024 1.979-4.91 2.594a19.02 19.02 0 0 1-5.951.926c-.738 0-1.182-.051-1.333-.148l-.683-.447c-.087-.08-.185-.229-.292-.447a1.898 1.898 0 0 1-.195-.686c-.022-.24 0-.447.065-.627s.205-.269.422-.269c.173.04.282.06.325.06 1.561-.039 2.969-.308 4.228-.806 1.257-.496 2.341-1.172 3.251-2.026.911-.854 1.615-1.889 2.114-3.103.502-1.211.752-2.533.752-3.965zm13.526 32.802c-.304 0-.499-.249-.585-.746a10.346 10.346 0 0 1-.13-1.759c0-.676.033-1.372.098-2.088.065-.717.098-1.291.098-1.729 0-1.032.01-1.968.032-2.803a47.44 47.44 0 0 1 .163-2.804c.043-.357.141-.596.293-.715a.776.776 0 0 1 .488-.18c.172 0 .335.021.488.061.151.039.292.06.422.06.303 0 .542.169.715.507.173.338.325.756.456 1.252.13.498.27 1.024.422 1.581.151.558.335 1.034.553 1.431.781 1.552 1.994 2.754 3.642 3.608 1.647.854 3.359 1.282 5.138 1.282 1.301 0 2.504-.188 3.609-.566a8.62 8.62 0 0 0 2.895-1.641 7.481 7.481 0 0 0 1.918-2.564c.454-.992.683-2.125.683-3.398 0-1.868-.553-3.438-1.658-4.711-1.104-1.273-2.481-2.405-4.13-3.399a52.05 52.05 0 0 0-5.365-2.803 38.077 38.077 0 0 1-5.365-2.952c-1.648-1.094-3.024-2.365-4.129-3.816s-1.658-3.25-1.658-5.397c0-1.908.379-3.606 1.138-5.099a11.076 11.076 0 0 1 3.089-3.758c1.301-1.015 2.829-1.789 4.585-2.326 1.756-.537 3.609-.806 5.561-.806.911 0 1.929.22 3.057.656 1.127.438 2.081.875 2.861 1.312.477.238.834.248 1.072.029.238-.218.466-.525.684-.924.216-.396.487-.775.812-1.134.325-.357.813-.536 1.463-.536.304 0 .498.199.586.596.086.398.13.875.13 1.432 0 .559-.032 1.134-.099 1.729a14.84 14.84 0 0 0-.097 1.552 59.745 59.745 0 0 1-.195 6.201c-.087.358-.194.598-.325.717-.13.118-.281.178-.455.178s-.348-.02-.521-.06a2.126 2.126 0 0 0-.455-.06c-.26 0-.478-.18-.649-.537a6.875 6.875 0 0 1-.455-1.282 79.187 79.187 0 0 1-.391-1.55 4.46 4.46 0 0 0-.585-1.402c-.693-1.51-1.713-2.684-3.057-3.519s-2.71-1.252-4.097-1.252c-1.128 0-2.201.159-3.219.477-1.019.319-1.908.775-2.666 1.372a6.403 6.403 0 0 0-1.789 2.207c-.434.875-.65 1.85-.65 2.922 0 1.67.596 3.131 1.789 4.385 1.192 1.252 2.655 2.364 4.39 3.34a59.12 59.12 0 0 0 5.495 2.713c1.929.835 3.631 1.689 5.105 2.563 1.82 1.114 3.239 2.564 4.26 4.354a11.931 11.931 0 0 1 1.593 5.726c0 2.188-.38 4.104-1.138 5.755-.76 1.65-1.821 3.032-3.188 4.146-1.366 1.113-2.992 1.958-4.878 2.533-1.886.576-3.957.886-6.21.926-.824 0-1.593-.1-2.309-.299a32.832 32.832 0 0 1-2.016-.627c-.629-.219-1.214-.428-1.756-.625-.542-.198-1.052-.299-1.528-.299-.521 0-.9.129-1.138.387-.239.26-.466.558-.683.896a4.1 4.1 0 0 1-.781.895c-.306.255-.783.385-1.433.385z"/></svg>