<?xml version="1.0" encoding="utf-8"?>
<!-- Generator: Adobe Illustrator 16.0.0, SVG Export Plug-In . SVG Version: 6.00 Build 0)  -->
<!DOCTYPE svg PUBLIC "-//W3C//DTD SVG 1.1//EN" "http://www.w3.org/Graphics/SVG/1.1/DTD/svg11.dtd">
<svg version="1.1" id="Layer_1" xmlns="http://www.w3.org/2000/svg" xmlns:xlink="http://www.w3.org/1999/xlink" x="0px" y="0px"
	 width="900px" height="642.659px" viewBox="0 0 900 642.659" enable-background="new 0 0 900 642.659" xml:space="preserve">
<g>
	<g>
		<g>
			<g>
				<path fill="#313135" d="M590.937,561.806c-2.258-7.071-5.63-13.209-10.136-18.418c-4.525-5.215-10.047-9.324-16.605-12.315
					c-6.548-3.001-14.201-4.506-22.938-4.506c-8.591,0-14.896,2.048-21.502,5.103c-5.845,2.702-8.347,4.901-12.218,7.999
					l0.099-54.62h-19.353l-0.039,104.119c0,7.878,1.202,13.243,3.343,19.919c2.258,7.022,5.64,12.314,10.146,17.544
					c4.506,5.229,10.076,8.894,16.703,11.836c6.616,2.932,14.23,4.192,22.821,4.192c8.737,0,16.391-1.573,22.938-4.511
					c6.559-2.937,12.08-7.08,16.605-12.31c4.506-5.229,7.878-11.386,10.136-18.403c2.258-7.027,3.382-14.632,3.382-22.803
					C594.318,576.492,593.194,568.877,590.937,561.806z M572.317,602.49c-1.759,5.209-4.192,9.562-7.291,13.057
					c-3.089,3.494-6.714,6.168-10.868,8.024c-4.154,1.857-8.552,2.786-13.204,2.786c-4.643,0-9.041-0.929-13.194-2.786
					c-4.154-1.856-7.78-4.53-10.879-8.024c-3.098-3.494-5.521-7.848-7.281-13.057c-1.769-5.21-2.648-11.167-2.648-17.877
					c0-6.704,0.88-12.656,2.648-17.866c1.76-5.209,4.184-9.598,7.281-13.165c3.099-3.567,6.725-6.274,10.879-8.137
					c4.153-1.852,8.552-2.78,13.194-2.78c4.652,0,9.05,0.929,13.204,2.78c4.154,1.862,7.779,4.569,10.868,8.137
					c3.099,3.567,5.532,7.956,7.291,13.165c1.76,5.21,2.64,11.162,2.64,17.866C574.957,591.323,574.077,597.28,572.317,602.49z"/>
				<path fill="#313135" d="M87.768,529.363h4.73L50.862,639.659h-5.366L0,529.363h5.16l42.702,106.005h0.42L87.768,529.363z"/>
				<path fill="#313135" d="M112.915,508.115h-4.29v-21.674h4.29V508.115z M112.915,639.659h-4.29V529.363h4.29V639.659z"/>
				<path fill="#313135" d="M208.023,561.977c0-5.581-0.86-10.302-2.581-14.162c-1.71-3.86-4.144-7.047-7.292-9.549
					c-3.146-2.502-6.91-4.329-11.269-5.474c-4.359-1.143-9.188-1.715-14.485-1.715c-7.721,0-13.8,1.036-18.238,3.108
					c-4.437,2.077-7.721,4.472-9.871,7.188c-2.141,2.717-3.509,5.336-4.076,7.834c-0.577,2.506-0.85,4.256-0.85,5.263
					c0,5.435,1.094,9.617,3.323,12.55c2.208,2.932,5.18,5.189,8.904,6.758c3.86,1.578,8.044,2.938,12.549,4.08
					c4.506,1.145,9.764,2.503,15.775,4.076c4.291,1.144,8.542,2.326,12.765,3.538c4.222,1.217,8.014,2.897,11.376,5.043
					c3.362,2.15,6.08,4.868,8.151,8.151c2.072,3.294,3.108,7.59,3.108,12.882c0,5.576-1.183,10.302-3.528,14.162
					c-2.365,3.86-5.444,7.008-9.236,9.441s-8.083,4.222-12.872,5.366c-4.799,1.143-9.549,1.72-14.279,1.72
					c-14.582,0-25.675-3.26-33.25-9.769c-7.584-6.505-11.376-16.703-11.376-30.577h4.291c0,12.305,3.509,21.385,10.517,27.249
					c7.008,5.874,16.947,8.801,29.819,8.801c4.017,0,8.132-0.464,12.344-1.397c4.222-0.929,8.053-2.429,11.484-4.506
					c3.431-2.071,6.255-4.755,8.474-8.048c2.219-3.289,3.323-7.291,3.323-12.018c0-4.862-1.104-8.801-3.323-11.801
					c-2.218-3.001-5.072-5.469-8.581-7.399c-3.509-1.935-7.545-3.47-12.129-4.613c-4.574-1.148-9.227-2.287-13.938-3.435
					c-5.297-1.291-9.949-2.508-13.957-3.651c-4.007-1.144-7.584-2.434-10.731-3.86c-4.574-2.004-7.936-4.794-10.086-8.371
					c-2.141-3.572-3.216-8.371-3.216-14.372c0-3.011,0.645-6.157,1.936-9.446c1.28-3.289,3.43-6.295,6.431-9.012
					c3.011-2.717,6.871-4.936,11.592-6.65c4.721-1.721,10.517-2.58,17.377-2.58c12.305,0,22.03,2.795,29.184,8.371
					c7.154,5.575,10.731,14.523,10.731,26.823H208.023z"/>
				<path fill="#313135" d="M316.99,639.659h-4.291v-27.254h-0.43c-0.997,4.296-2.61,8.229-4.829,11.802
					c-2.218,3.577-5.014,6.725-8.366,9.441c-3.362,2.717-7.271,4.828-11.699,6.333c-4.438,1.5-9.373,2.258-14.808,2.258
					c-5.718,0-10.985-0.86-15.774-2.58c-4.789-1.716-8.943-4.252-12.442-7.619c-3.509-3.356-6.216-7.511-8.151-12.446
					s-2.903-10.624-2.903-17.061v-73.17h4.291v72.53c0,6.436,0.938,11.909,2.795,16.415s4.398,8.225,7.614,11.156
					c3.225,2.933,6.939,5.082,11.162,6.441c4.212,1.358,8.688,2.037,13.409,2.037c6.578,0,12.374-1.251,17.388-3.758
					c5.004-2.502,9.187-5.864,12.549-10.086c3.362-4.218,5.894-9.119,7.614-14.7c1.72-5.575,2.58-11.44,2.58-17.593v-62.443h4.291
					V639.659z"/>
				<path fill="#313135" d="M344.004,563.482c0.293-5.155,1.358-9.979,3.225-14.484c1.857-4.506,4.535-8.405,8.044-11.699
					c3.499-3.283,7.799-5.863,12.872-7.721c5.082-1.857,11.054-2.795,17.925-2.795c4.857,0,9.471,0.508,13.84,1.505
					c4.358,1.001,8.19,2.756,11.474,5.258c3.294,2.502,5.943,5.757,7.946,9.765c1.994,4.007,3.079,9.011,3.226,15.017v70.17
					c0,2.15,0.42,3.724,1.28,4.721c0.86,1.007,1.994,1.687,3.431,2.043c1.437,0.356,2.932,0.503,4.505,0.431
					c1.574-0.074,3.147-0.177,4.721-0.323v4.291c-2.14,0.142-4.291,0.215-6.431,0.215c-2.15,0-4.085-0.356-5.796-1.075
					c-1.71-0.713-3.147-1.822-4.291-3.323c-1.143-1.505-1.72-3.685-1.72-6.548V614.55h-0.43c-1.144,3.576-2.972,7.012-5.474,10.301
					c-2.502,3.294-5.649,6.227-9.432,8.797c-3.802,2.58-8.132,4.652-12.989,6.226c-4.867,1.573-10.154,2.365-15.882,2.365
					c-11.015,0-19.919-2.512-26.712-7.517c-6.802-5.004-10.193-12.441-10.193-22.317c0-6.866,1.104-12.369,3.323-16.522
					c2.218-4.145,5.112-7.404,8.689-9.764c3.577-2.361,7.652-4.003,12.236-4.936c4.574-0.929,9.158-1.535,13.732-1.823
					c7.584-0.431,14.084-0.826,19.527-1.178c5.435-0.362,9.901-1.075,13.41-2.15s6.08-2.717,7.731-4.936
					c1.642-2.214,2.463-5.396,2.463-9.549c0-3.289-0.283-6.725-0.86-10.302c-0.577-3.572-1.964-6.861-4.183-9.871
					c-2.219-3.001-5.474-5.474-9.764-7.398c-4.291-1.936-10.087-2.898-17.378-2.898c-11.592,0-20.603,2.824-27.044,8.474
					c-6.431,5.654-10.008,13.63-10.731,23.931H344.004z M418.255,574.849h-0.43c-1.427,2.15-3.646,3.724-6.656,4.721
					c-3,1.007-6.431,1.76-10.292,2.258s-8.014,0.86-12.452,1.07c-4.438,0.22-8.865,0.469-13.302,0.748
					c-4.291,0.293-8.474,0.859-12.56,1.72c-4.065,0.86-7.691,2.292-10.829,4.296c-3.157,2.003-5.649,4.823-7.506,8.479
					c-1.867,3.646-2.796,8.4-2.796,14.265c0,3.151,0.538,6.26,1.613,9.339c1.065,3.073,2.893,5.791,5.463,8.15
					c2.581,2.365,5.903,4.291,9.989,5.797c4.065,1.5,9.109,2.252,15.12,2.252c7.154,0,13.527-1.217,19.098-3.65
					c5.581-2.434,10.272-5.609,14.064-9.549c3.783-3.934,6.646-8.474,8.572-13.624c1.935-5.151,2.902-10.443,2.902-15.883V574.849z"
					/>
				<path fill="#313135" d="M449.883,486.441h4.291v153.218h-4.291V486.441z"/>
				<path fill="#313135" d="M692.671,632.534c-8.522,6.328-19.244,9.485-32.175,9.485c-8.865,0-16.557-1.432-23.066-4.296
					c-6.509-2.858-11.982-6.861-16.42-12.012c-4.437-5.15-7.76-11.304-9.969-18.452c-2.229-7.154-3.479-14.954-3.763-23.394
					c0-8.44,1.29-16.161,3.86-23.179c2.58-7.008,6.196-13.087,10.849-18.237c4.643-5.151,10.155-9.153,16.518-12.022
					c6.362-2.854,13.331-4.29,20.916-4.29c10.135,0,18.55,2.038,25.226,6.108c6.686,4.07,12.041,9.246,16.088,15.525
					c4.036,6.285,6.793,13.141,8.269,20.559c1.28,6.285,1.925,12.286,1.925,17.994c0,1.006,0,2.072,0,3.215h-84.337
					c0,0.431,0,0.924,0,1.496c0,4.28,0.577,8.425,1.72,12.412c1.291,4.281,3.363,8.103,6.227,11.455
					c2.854,3.357,6.499,6.03,10.937,8.029c4.438,1.998,9.666,2.995,15.667,2.995c7.731,0,14.055-1.788,18.99-5.355
					s8.19-8.987,9.764-16.264h19.313C706.706,616.808,701.203,626.22,692.671,632.534z M687.432,561.283
					c-1.642-3.851-3.87-7.168-6.655-9.949c-2.786-2.785-6.079-4.994-9.872-6.637c-3.792-1.642-7.975-2.463-12.549-2.463
					c-4.721,0-8.982,0.821-12.765,2.463c-3.802,1.643-7.057,3.891-9.773,6.744c-2.718,2.854-4.857,6.168-6.44,9.95
					c-1.564,3.782-2.493,7.818-2.786,12.095h63.734C690.042,569.209,689.074,565.139,687.432,561.283z"/>
				<path fill="#313135" d="M813.63,642.019c-4.994,0-8.972-1.344-11.924-4.021c-2.952-2.679-4.438-7.062-4.438-13.146
					c-5.014,6.084-10.849,10.468-17.515,13.146c-6.655,2.678-13.858,4.021-21.6,4.021c-5.004,0-9.734-0.538-14.162-1.617
					c-4.428-1.086-8.337-2.879-11.699-5.396c-3.361-2.517-6.001-5.757-7.936-9.71c-1.936-3.959-2.894-8.743-2.894-14.354
					c0-6.265,1.075-11.386,3.216-15.373c2.15-3.979,4.965-7.223,8.474-9.716c3.509-2.482,7.507-4.373,12.021-5.649
					c4.506-1.285,9.119-2.35,13.84-3.205c4.936-0.938,9.656-1.838,14.172-2.697c4.516-0.86,8.493-1.613,11.943-2.272
					c3.46-0.66,6.196-1.877,8.2-3.651c2.014-1.778,3.02-4.378,3.02-7.789c0-3.987-0.742-7.184-2.248-9.607
					c-1.505-2.414-3.439-4.262-5.795-5.547c-2.365-1.275-5.014-2.131-7.937-2.561c-2.933-0.425-5.835-0.641-8.688-0.641
					c-7.731,0-14.172,1.467-19.313,4.389c-5.16,2.923-7.946,8.454-8.376,16.586H724.68c0.293-6.852,1.76-12.637,4.389-17.354
					c2.629-4.715,6.147-8.532,10.535-11.464c4.389-2.927,9.441-5.038,15.14-6.323c5.708-1.285,11.709-1.931,18.003-1.931
					c5.132,0,10.243,0.361,15.297,1.075c5.062,0.713,9.646,2.18,13.761,4.393c4.114,2.215,7.418,5.327,9.911,9.324
					c2.492,4.003,3.732,9.212,3.732,15.644v56.937c0,4.28,0.255,7.423,0.753,9.417c0.499,1.998,2.18,3,5.044,3
					c1.573,0,3.43-0.361,5.58-1.075v14.162C823.678,641.017,819.279,642.019,813.63,642.019z M787.144,586.148
					c-3.743,0.615-7.624,1.261-11.66,1.93c-4.017,0.67-8.122,1.349-12.286,2.038c-4.173,0.694-7.906,1.739-11.21,3.147
					c-3.304,1.407-6.001,3.406-8.093,6.006c-2.082,2.595-3.117,6.147-3.117,10.639c0,2.951,0.605,5.443,1.817,7.486
					c1.222,2.038,2.796,3.685,4.73,4.95c1.926,1.266,4.212,2.175,6.861,2.741c2.648,0.558,5.326,0.841,8.044,0.841
					c6.011,0,11.161-0.821,15.452-2.463c4.29-1.642,7.799-3.704,10.517-6.206c2.717-2.502,4.721-5.209,6.011-8.132
					c1.28-2.927,1.935-5.679,1.935-8.244v-18.624C793.887,584.232,790.877,585.522,787.144,586.148z"/>
				<path fill="#313135" d="M858.794,528.717v23.389h0.401c4.456-9.012,9.9-15.667,16.341-19.958
					c6.011-3.997,13.518-6.011,22.528-6.011c0.714,0,1.359,0,1.936,0v19.312c-7.301,0-13.527,1.007-18.668,3.011
					c-5.15,2.004-9.305,4.931-12.451,8.796c-3.147,3.86-5.435,8.552-6.871,14.055c-1.427,5.513-2.141,11.836-2.141,18.99v49.357
					h-19.312V528.717H858.794z"/>
			</g>
		</g>
	</g>
	<g>
		<g>
			<g>
				<path fill="#313135" d="M449.941,0c-119.493,0-216.36,96.862-216.36,216.365c0,119.493,96.867,216.36,216.36,216.36
					s216.359-96.867,216.359-216.36C666.301,96.862,569.435,0,449.941,0z M577.723,285.724
					c-9.466,29.101-30.528,42.506-30.528,42.506c-21.048,10.458-108.16,10.463-108.16,10.463
					c-57.558,0-104.217-46.665-104.217-104.232c0-1.207,0.02-2.409,0.063-3.611c0.137-16.64,1.256-86.052,10.448-104.54
					c0,0,13.39-21.067,42.506-30.542c0,0,3.264-0.943,6.705,2.003c0,0,18.013,15.565,29.419,28.671c0,0,4.11,3.44,11.411,3.821
					c1.217-0.039,2.439-0.112,3.666-0.112c0.015,0,0.029,0,0.049,0h0.005c0.137,0,0.249,0.034,0.352,0.049
					c57.24,0.215,103.586,46.601,103.816,103.831c0.024,0.123,0.034,0.259,0.02,0.43c-0.01,0.093-0.01,0.176-0.02,0.269
					c0,1.114-0.024,2.229-0.063,3.337c0.347,7.379,3.846,11.533,3.846,11.533c13.111,11.406,28.686,29.418,28.686,29.418
					C578.666,282.455,577.723,285.724,577.723,285.724z"/>
				<path fill="#313135" d="M528.746,240.882c0,12.09-9.812,21.903-21.912,21.903c-12.085,0-21.902-9.813-21.902-21.903
					c0-12.095,9.817-21.898,21.902-21.898C518.934,218.984,528.746,228.788,528.746,240.882z"/>
			</g>
		</g>
	</g>
</g>
</svg>
