<svg version="1" xmlns="http://www.w3.org/2000/svg" width="599.215" height="599.221" viewBox="0 0 599.215 599.221"><path fill="#3A3A3E" d="M299.53 543.497c123.091 0 222.862-100.068 222.862-223.518 0-123.448-99.771-223.517-222.862-223.517-123.08 0-222.869 100.069-222.869 223.517 0 123.449 99.789 223.518 222.869 223.518z"/><g fill="#F03"><path d="M299.608 0C134.14 0 0 134.138 0 299.608c0 165.474 134.14 299.613 299.608 299.613 165.47 0 299.606-134.139 299.606-299.613C599.215 134.138 465.078 0 299.608 0zm176.947 395.663c-13.109 40.295-42.271 58.854-42.271 58.854-29.15 14.48-149.786 14.49-149.786 14.49-79.7 0-144.316-64.615-144.316-144.33 0-1.676.038-3.344.098-5.002.188-23.049 1.739-119.164 14.468-144.768 0 0 18.541-29.171 58.856-42.29 0 0 4.526-1.304 9.289 2.77 0 0 24.942 21.554 40.73 39.71 0 0 5.697 4.76 15.804 5.287 1.683-.055 3.378-.156 5.071-.156h.086c.186 0 .34.046.48.065 79.267.306 143.446 64.539 143.767 143.791.033.166.045.359.023.594-.014.129-.014.244-.023.371a144.277 144.277 0 0 1-.092 4.615c.484 10.217 5.318 15.975 5.318 15.975 18.166 15.791 39.732 40.738 39.732 40.738 4.072 4.756 2.766 9.286 2.766 9.286z"/><path d="M408.736 333.567c0 16.746-13.594 30.326-30.344 30.326-16.733 0-30.333-13.58-30.333-30.326s13.6-30.332 30.333-30.332c16.751 0 30.344 13.586 30.344 30.332z"/></g></svg>