<?xml version="1.0" encoding="utf-8"?>
<!-- Generator: Adobe Illustrator 16.0.0, SVG Export Plug-In . SVG Version: 6.00 Build 0)  -->
<!DOCTYPE svg PUBLIC "-//W3C//DTD SVG 1.1//EN" "http://www.w3.org/Graphics/SVG/1.1/DTD/svg11.dtd">
<svg version="1.1" id="Layer_1" xmlns="http://www.w3.org/2000/svg" xmlns:xlink="http://www.w3.org/1999/xlink" x="0px" y="0px"
	 width="762.047px" height="328.064px" viewBox="0 0 762.047 328.064" enable-background="new 0 0 762.047 328.064"
	 xml:space="preserve">
<g>
	<g>
		<g>
			<g>
				<path fill="#336633" d="M358.099,105.899v19.803h-8.006V63.817h17.56c4.976,0.671,9.179,2.721,12.609,6.15
					c4.1,4.126,6.15,9.077,6.15,14.852c0,5.828-2.05,10.798-6.15,14.91c-4.1,4.113-9.051,6.169-14.852,6.169H358.099z
					 M358.099,71.862v25.992h7.31c3.558,0,6.607-1.27,9.147-3.81c2.54-2.54,3.81-5.614,3.81-9.225c0-3.583-1.27-6.639-3.81-9.167
					c-2.54-2.527-5.589-3.791-9.147-3.791H358.099z"/>
				<path fill="#336633" d="M409.695,105.899h-7.31v19.803h-8.006V63.817h17.56c4.976,0.671,9.179,2.721,12.609,6.15
					c4.1,4.126,6.15,9.077,6.15,14.852c0,5.828-2.051,10.805-6.15,14.93c-2.837,2.837-5.003,4.435-6.498,4.796l13.73,21.157h-9.708
					L409.695,105.899z M402.385,71.862v25.992h7.31c3.558,0,6.607-1.27,9.147-3.81c2.539-2.54,3.81-5.614,3.81-9.225
					c0-3.583-1.271-6.639-3.81-9.167c-2.54-2.527-5.589-3.791-9.147-3.791H402.385z"/>
				<path fill="#336633" d="M492.773,72.288c6.189,6.188,9.283,13.653,9.283,22.394s-3.094,16.206-9.283,22.395
					c-6.188,6.188-13.652,9.283-22.395,9.283c-8.74,0-16.205-3.094-22.395-9.283c-6.188-6.188-9.281-13.653-9.281-22.395
					s3.094-16.206,9.281-22.394c6.189-6.188,13.654-9.283,22.395-9.283C479.121,63.005,486.586,66.1,492.773,72.288z
					 M470.379,71.089c-6.523,0-12.086,2.301-16.689,6.904c-4.602,4.603-6.904,10.167-6.904,16.689
					c0,6.524,2.309,12.094,6.924,16.709c4.615,4.616,10.172,6.923,16.67,6.923c6.523,0,12.088-2.308,16.689-6.923
					c4.604-4.615,6.904-10.185,6.904-16.709c0-6.523-2.301-12.086-6.904-16.689C482.467,73.39,476.902,71.089,470.379,71.089z"/>
				<path fill="#336633" d="M537.137,112.435c0,4.281-1.174,7.607-3.52,9.979c-2.502,2.527-5.531,3.791-9.09,3.791
					c-3.533,0-6.543-1.257-9.031-3.771c-2.488-2.514-3.732-5.86-3.732-10.037l6.344-2.475c0.721,3.919,1.637,6.33,2.746,7.232
					c0.824,0.696,1.934,1.044,3.326,1.044h0.154c1.471-0.025,2.682-0.503,3.637-1.431c0.773-0.799,1.16-2.359,1.16-4.68v-48.27
					h8.006V112.435z"/>
				<path fill="#336633" d="M582.312,63.817v8.006h-25.334v18.914h25.334v8.006h-25.334v18.914h25.334v8.045h-33.34V63.817H582.312z
					"/>
				<path fill="#336633" d="M640.832,110.965l5.994,5.376c-7.322,6.678-15.07,10.018-23.244,10.018
					c-8.742,0-16.193-3.081-22.355-9.244c-6.164-6.163-9.244-13.615-9.244-22.355c0-8.715,3.08-16.167,9.244-22.356
					c6.162-6.188,13.613-9.282,22.355-9.282c8.174,0,15.922,3.339,23.244,10.017l-5.994,5.454c-5.52-4.898-11.27-7.349-17.25-7.349
					c-6.473,0-12.01,2.295-16.613,6.885c-4.602,4.59-6.904,10.133-6.904,16.631c0,6.523,2.303,12.081,6.904,16.67
					c4.604,4.59,10.141,6.885,16.613,6.885C629.562,118.314,635.312,115.865,640.832,110.965z"/>
				<path fill="#336633" d="M675.061,71.824v53.878h-8.045V71.824H652.59v-8.006h36.898v8.006H675.061z"/>
				<path fill="#336633" d="M747.506,72.288c6.188,6.188,9.281,13.653,9.281,22.394s-3.094,16.206-9.281,22.395
					c-6.189,6.188-13.654,9.283-22.395,9.283c-8.742,0-16.207-3.094-22.395-9.283c-6.189-6.188-9.283-13.653-9.283-22.395
					s3.094-16.206,9.283-22.394c6.188-6.188,13.652-9.283,22.395-9.283C733.852,63.005,741.316,66.1,747.506,72.288z
					 M725.111,71.089c-6.523,0-12.088,2.301-16.689,6.904c-4.604,4.603-6.904,10.167-6.904,16.689
					c0,6.524,2.307,12.094,6.924,16.709c4.615,4.616,10.172,6.923,16.67,6.923c6.523,0,12.086-2.308,16.689-6.923
					c4.602-4.615,6.902-10.185,6.902-16.709c0-6.523-2.301-12.086-6.902-16.689C737.197,73.39,731.635,71.089,725.111,71.089z"/>
			</g>
			<g>
				<path fill="#336633" d="M349.396,277V142.765h17.366v116.783h47.989V277H349.396z"/>
				<path fill="#336633" d="M463.494,223.138L417.1,142.765h19.967l35.068,60.74l35.152-60.74h20.053l-46.479,80.373V277h-17.367
					V223.138z"/>
				<path fill="#336633" d="M544.119,142.765h15.855l55.373,95.81v-95.81h17.449V277h-15.186l-56.125-96.984V277h-17.367V142.765z"
					/>
				<path fill="#336633" d="M649.576,277l42.199-73.242l-35.152-60.992h19.967l25.17,43.71l25.336-43.71h19.967l-35.32,60.992
					L754.111,277h-19.969l-32.383-55.959L669.543,277H649.576z"/>
			</g>
		</g>
		<g>
			<g>
				<circle fill="#336633" cx="159.641" cy="168.424" r="159.641"/>
			</g>
			<g>
				<g>
					<g>
						<circle fill="none" stroke="#F2C746" stroke-width="25" stroke-miterlimit="10" cx="159.641" cy="168.424" r="143.209"/>
					</g>
				</g>
			</g>
			<g>
				<g>
					<polygon fill="#F2C746" points="247.847,46.387 251.305,58.754 241.457,101.02 242.106,131.123 251.609,182.581 
						242.255,217.21 215.249,246.031 200.604,267.59 178.535,291.492 174.518,291.492 179.797,257.851 181.919,235.527 
						172.829,225.976 159.251,230.785 145.672,225.976 136.582,235.527 138.703,257.851 143.984,291.492 139.966,291.492 
						117.898,267.59 103.252,246.031 76.245,217.21 66.892,182.581 76.395,131.123 77.043,101.02 67.196,58.754 70.654,46.387 
						77.498,46.291 105.677,72.84 123.25,80.426 159.251,75.82 195.25,80.426 212.824,72.84 241.002,46.291 					"/>
				</g>
				<g>
					<g>
						<g>
							<path fill="#336633" d="M160.11,194.433"/>
							<g>
								<g>
									<polyline fill="none" stroke="#336633" stroke-width="3" stroke-miterlimit="10" points="159.5,201.958 159.5,190.871 
										159.5,202.228 151.478,206.729 135.389,204.332 									"/>
								</g>
							</g>
							<path fill="#336633" d="M160.11,194.433"/>
							<polyline fill="#336633" points="159,194.958 162.777,194.958 166.647,192.345 165.192,188.616 169.616,183.958 
								174.769,183.958 178.906,177.982 177.651,168.829 176.882,169.886 177.202,178.47 174.686,181.958 173.724,181.958 
								169.752,177.958 160.12,177.958 150.087,177.958 146.115,181.958 145.154,181.958 142.637,178.565 142.958,170.006 
								142.188,169.177 140.935,177.964 145.071,183.958 150.224,183.958 154.647,188.687 153.193,191.961 157.062,194.958 
								159,194.958 							"/>
						</g>
						<g>
							<g>
								<path fill="#336633" stroke="#336633" stroke-miterlimit="10" d="M145.205,153.121l-4.599-15.295l-7.611-6.241
									l-10.212-3.274l-10.958-0.91l-7.152-1.802l-0.522,0.426l6.436,15.981l13.078,7.767l14.479,0.869l5.322,3.126
									L145.205,153.121z M135.827,147.637l-11.584,0.506l-11.935-7.433l-1.717-7.494l2.529-4.198l10.057,1.18l8.625,2.947
									l7.142,5.548L135.827,147.637z"/>
								<polygon fill="#336633" stroke="#336633" stroke-miterlimit="10" points="123.177,130.199 121.85,133.176 122.517,137.589 
									125.944,139.093 129.425,137.097 132.001,133.301 								"/>
							</g>
						</g>
						<g>
							<g>
								<path fill="#336633" stroke="#336633" stroke-miterlimit="10" d="M175.787,153.768l5.321-3.126l14.481-0.869l13.076-7.767
									l6.436-15.981l-0.522-0.426l-7.152,1.802l-10.957,0.91l-10.214,3.274l-7.61,6.241l-4.598,15.295L175.787,153.768z
									 M180.309,138.694l7.142-5.548l8.626-2.947l10.056-1.18l2.53,4.198l-1.717,7.494l-11.936,7.433l-11.584-0.506
									L180.309,138.694z"/>
								<polygon fill="#336633" stroke="#336633" stroke-miterlimit="10" points="196.076,130.199 197.402,133.176 196.736,137.589 
									193.309,139.093 189.829,137.097 187.25,133.301 								"/>
							</g>
						</g>
					</g>
				</g>
				<polygon fill="none" stroke="#336633" stroke-width="12" stroke-miterlimit="10" points="247.839,46.389 276.108,26.069 
					266.313,26.069 266.313,15.789 211.998,73.247 195.25,80.426 159.533,75.82 123.814,80.426 106.241,72.84 51.006,14.977 
					51.006,25.258 41.212,25.258 69.924,45.579 67.76,58.754 77.607,101.02 76.959,131.123 67.457,182.581 76.81,217.21 
					103.816,246.031 118.461,267.59 140.53,291.492 144.547,291.492 139.267,257.851 137.147,235.527 146.237,225.976 
					159.533,230.785 172.829,225.976 181.919,235.527 179.797,257.851 174.518,291.492 178.535,291.492 200.604,267.59 
					215.249,246.031 242.255,217.21 251.609,182.581 242.106,131.123 241.457,101.02 251.305,58.754 247.839,46.389 				"/>
				<path fill="none" stroke="#336633" stroke-width="12" stroke-miterlimit="10" d="M58,22.303l-5.665,5.666
					c0,0,10.377,8.602,10.377,10.376c0,1.773,4.889-4.89,4.889-4.89L58,22.303z"/>
				<path fill="none" stroke="#336633" stroke-width="12" stroke-miterlimit="10" d="M259.319,23.116l5.666,5.665
					c0,0-10.377,8.604-10.377,10.377c0,1.774-4.89-4.889-4.89-4.889L259.319,23.116z"/>
				<g>
					<polygon fill="#336633" points="141.755,133.476 134.431,128.192 138.958,112.547 					"/>
					<polygon fill="#336633" points="178.321,133.476 185.644,128.192 181.118,112.547 					"/>
					<polygon fill="#336633" points="89.57,97.105 80.756,67.321 82.392,62.631 99.324,83.288 108.874,85.929 					"/>
					<polygon fill="#336633" points="230.1,97.918 238.914,68.134 237.279,63.444 220.347,84.101 210.797,86.743 					"/>
					<polygon fill="#336633" points="100.939,127.843 103.327,133.476 86.049,142.688 					"/>
					<polygon fill="#336633" points="224.856,210.282 209.984,237.102 231.803,212.111 239.728,183.664 236.679,162.463 
						232.886,184.476 					"/>
					<polygon fill="#336633" points="94.002,210.282 108.874,237.102 87.055,212.111 79.13,183.664 82.178,162.463 85.972,184.476 
											"/>
					<polyline fill="#336633" points="218.477,127.843 216.088,133.476 233.368,142.688 					"/>
					<polygon fill="#336633" points="138.437,93.624 142.787,87.786 132.6,89.275 					"/>
					<polygon fill="#336633" points="180.838,93.624 176.489,87.786 186.675,89.275 					"/>
				</g>
				<g>
					<g>
						<polyline fill="none" stroke="#336633" stroke-width="3" stroke-miterlimit="10" points="159.5,201.958 159.5,190.871 
							159.5,202.228 167.863,206.729 183.781,204.332 						"/>
					</g>
				</g>
			</g>
		</g>
	</g>
</g>
</svg>
