<svg xmlns="http://www.w3.org/2000/svg" width="762.047" height="328.064" viewBox="0 0 762.047 328.064"><path d="M358.099 105.899v19.803h-8.006V63.817h17.56c4.976.671 9.179 2.721 12.609 6.15 4.1 4.126 6.15 9.077 6.15 14.852 0 5.828-2.05 10.798-6.15 14.91-4.1 4.113-9.051 6.169-14.852 6.169h-7.311zm0-34.037v25.992h7.31c3.558 0 6.607-1.27 9.147-3.81s3.81-5.614 3.81-9.225c0-3.583-1.27-6.639-3.81-9.167-2.54-2.527-5.589-3.791-9.147-3.791h-7.31zm51.596 34.037h-7.31v19.803h-8.006V63.817h17.56c4.976.671 9.179 2.721 12.609 6.15 4.1 4.126 6.15 9.077 6.15 14.852 0 5.828-2.051 10.805-6.15 14.93-2.837 2.837-5.003 4.435-6.498 4.796l13.73 21.157h-9.708l-12.377-19.803zm-7.31-34.037v25.992h7.31c3.558 0 6.607-1.27 9.147-3.81 2.539-2.54 3.81-5.614 3.81-9.225 0-3.583-1.271-6.639-3.81-9.167-2.54-2.527-5.589-3.791-9.147-3.791h-7.31zm90.388.426c6.189 6.188 9.283 13.653 9.283 22.394s-3.094 16.206-9.283 22.395c-6.188 6.188-13.652 9.283-22.395 9.283-8.74 0-16.205-3.094-22.395-9.283-6.188-6.188-9.281-13.653-9.281-22.395s3.094-16.206 9.281-22.394c6.189-6.188 13.654-9.283 22.395-9.283 8.743 0 16.208 3.095 22.395 9.283zm-22.394-1.199c-6.523 0-12.086 2.301-16.689 6.904-4.602 4.603-6.904 10.167-6.904 16.689 0 6.524 2.309 12.094 6.924 16.709 4.615 4.616 10.172 6.923 16.67 6.923 6.523 0 12.088-2.308 16.689-6.923 4.604-4.615 6.904-10.185 6.904-16.709 0-6.523-2.301-12.086-6.904-16.689-4.602-4.603-10.167-6.904-16.69-6.904zm66.758 41.346c0 4.281-1.174 7.607-3.52 9.979-2.502 2.527-5.531 3.791-9.09 3.791-3.533 0-6.543-1.257-9.031-3.771-2.488-2.514-3.732-5.86-3.732-10.037l6.344-2.475c.721 3.919 1.637 6.33 2.746 7.232.824.696 1.934 1.044 3.326 1.044h.154c1.471-.025 2.682-.503 3.637-1.431.773-.799 1.16-2.359 1.16-4.68v-48.27h8.006v48.618zm45.175-48.618v8.006h-25.334v18.914h25.334v8.006h-25.334v18.914h25.334v8.045h-33.34V63.817h33.34zm58.52 47.148l5.994 5.376c-7.322 6.678-15.07 10.018-23.244 10.018-8.742 0-16.193-3.081-22.355-9.244-6.164-6.163-9.244-13.615-9.244-22.355 0-8.715 3.08-16.167 9.244-22.356 6.162-6.188 13.613-9.282 22.355-9.282 8.174 0 15.922 3.339 23.244 10.017l-5.994 5.454c-5.52-4.898-11.27-7.349-17.25-7.349-6.473 0-12.01 2.295-16.613 6.885-4.602 4.59-6.904 10.133-6.904 16.631 0 6.523 2.303 12.081 6.904 16.67 4.604 4.59 10.141 6.885 16.613 6.885 5.98-.001 11.73-2.45 17.25-7.35zm34.229-39.141v53.878h-8.045V71.824H652.59v-8.006h36.898v8.006h-14.427zm72.445.464c6.188 6.188 9.281 13.653 9.281 22.394s-3.094 16.206-9.281 22.395c-6.189 6.188-13.654 9.283-22.395 9.283-8.742 0-16.207-3.094-22.395-9.283-6.189-6.188-9.283-13.653-9.283-22.395s3.094-16.206 9.283-22.394c6.188-6.188 13.652-9.283 22.395-9.283 8.741 0 16.205 3.095 22.395 9.283zm-22.395-1.199c-6.523 0-12.088 2.301-16.689 6.904-4.604 4.603-6.904 10.167-6.904 16.689 0 6.524 2.307 12.094 6.924 16.709 4.615 4.616 10.172 6.923 16.67 6.923 6.523 0 12.086-2.308 16.689-6.923 4.602-4.615 6.902-10.185 6.902-16.709 0-6.523-2.301-12.086-6.902-16.689-4.604-4.603-10.166-6.904-16.69-6.904zM349.396 277V142.765h17.366v116.783h47.989V277h-65.355zm114.098-53.862L417.1 142.765h19.967l35.068 60.74 35.152-60.74h20.053l-46.479 80.373V277h-17.367v-53.862zm80.625-80.373h15.855l55.373 95.81v-95.81h17.449V277H617.61l-56.125-96.984V277h-17.367V142.765zM649.576 277l42.199-73.242-35.152-60.992h19.967l25.17 43.71 25.336-43.71h19.967l-35.32 60.992L754.111 277h-19.969l-32.383-55.959L669.543 277h-19.967z" fill="#363"/><circle fill="#363" cx="159.641" cy="168.424" r="159.641"/><circle fill="none" stroke="#F2C746" stroke-width="25" stroke-miterlimit="10" cx="159.641" cy="168.424" r="143.209"/><path fill="#F2C746" d="M247.847 46.387l3.458 12.367-9.848 42.266.649 30.103 9.503 51.458-9.354 34.629-27.006 28.821-14.645 21.559-22.069 23.902h-4.017l5.279-33.641 2.122-22.324-9.09-9.551-13.578 4.809-13.579-4.809-9.09 9.551 2.121 22.324 5.281 33.641h-4.018l-22.068-23.902-14.646-21.559-27.007-28.821-9.353-34.629 9.503-51.458.648-30.103-9.847-42.266 3.458-12.367 6.844-.096 28.179 26.549 17.573 7.586 36.001-4.606 35.999 4.606 17.574-7.586 28.178-26.549z"/><path fill="none" stroke="#363" stroke-width="3" stroke-miterlimit="10" d="M159.5 201.958v-11.087 11.357l-8.022 4.501-16.089-2.397"/><path fill="#363" d="M159 194.958h3.777l3.87-2.613-1.455-3.729 4.424-4.658h5.153l4.137-5.976-1.255-9.153-.769 1.057.32 8.584-2.516 3.488h-.962l-3.972-4h-19.665l-3.972 4h-.961l-2.517-3.393.321-8.559-.77-.829-1.253 8.787 4.136 5.994h5.153l4.423 4.729-1.454 3.274 3.869 2.997H159"/><g fill="#363" stroke="#363" stroke-miterlimit="10"><path d="M145.205 153.121l-4.599-15.295-7.611-6.241-10.212-3.274-10.958-.91-7.152-1.802-.522.426 6.436 15.981 13.078 7.767 14.479.869 5.322 3.126 1.739-.647zm-9.378-5.484l-11.584.506-11.935-7.433-1.717-7.494 2.529-4.198 10.057 1.18 8.625 2.947 7.142 5.548-3.117 8.944z"/><path d="M123.177 130.199l-1.327 2.977.667 4.413 3.427 1.504 3.481-1.996 2.576-3.796z"/></g><g fill="#363" stroke="#363" stroke-miterlimit="10"><path d="M175.787 153.768l5.321-3.126 14.481-.869 13.076-7.767 6.436-15.981-.522-.426-7.152 1.802-10.957.91-10.214 3.274-7.61 6.241-4.598 15.295 1.739.647zm4.522-15.074l7.142-5.548 8.626-2.947 10.056-1.18 2.53 4.198-1.717 7.494-11.936 7.433-11.584-.506-3.117-8.944z"/><path d="M196.076 130.199l1.326 2.977-.666 4.413-3.427 1.504-3.48-1.996-2.579-3.796z"/></g><path fill="none" stroke="#363" stroke-width="12" stroke-miterlimit="10" d="M247.839 46.389l28.269-20.32h-9.795v-10.28l-54.315 57.458-16.748 7.179-35.717-4.606-35.719 4.606-17.573-7.586-55.235-57.863v10.281h-9.794l28.712 20.321-2.164 13.175 9.847 42.266-.648 30.103-9.502 51.458 9.353 34.629 27.006 28.821 14.645 21.559 22.069 23.902h4.017l-5.28-33.641-2.12-22.324 9.09-9.551 13.296 4.809 13.296-4.809 9.09 9.551-2.122 22.324-5.279 33.641h4.017l22.069-23.902 14.645-21.559 27.006-28.821 9.354-34.629-9.503-51.458-.649-30.103 9.848-42.266-3.466-12.365z"/><path fill="none" stroke="#363" stroke-width="12" stroke-miterlimit="10" d="M58 22.303l-5.665 5.666s10.377 8.602 10.377 10.376c0 1.773 4.889-4.89 4.889-4.89L58 22.303zm201.319.813l5.666 5.665s-10.377 8.604-10.377 10.377c0 1.774-4.89-4.889-4.89-4.889l9.601-11.153z"/><path d="M141.755 133.476l-7.324-5.284 4.527-15.645zm36.566 0l7.323-5.284-4.526-15.645zM89.57 97.105l-8.814-29.784 1.636-4.69 16.932 20.657 9.55 2.641zm140.53.813l8.814-29.784-1.635-4.69-16.932 20.657-9.55 2.642zm-129.161 29.925l2.388 5.633-17.278 9.212zm123.917 82.439l-14.872 26.82 21.819-24.991 7.925-28.447-3.049-21.201-3.793 22.013zm-130.854 0l14.872 26.82-21.819-24.991-7.925-28.447 3.048-21.201 3.794 22.013zm124.475-82.439l-2.389 5.633 17.28 9.212m-94.931-49.064l4.35-5.838-10.187 1.489zm42.401 0l-4.349-5.838 10.186 1.489z" fill="#363"/><path fill="none" stroke="#363" stroke-width="3" stroke-miterlimit="10" d="M159.5 201.958v-11.087 11.357l8.363 4.501 15.918-2.397"/></svg>