<svg xmlns="http://www.w3.org/2000/svg" width="439.924" height="267.067" viewBox="0 0 439.924 267.067"><path fill="#007B8A" d="M61.861 186.345l-1.94 7.86c-1.915-.439-3.804-.88-5.694-1.306-5.798-1.305-11.655-2.064-17.605-1.639-8.15.584-14.283 4.523-18.486 11.472-4.048 6.691-6.106 14.084-7.438 21.715-1.054 6.04-1.663 12.116-.813 18.228.672 4.838 2.144 9.348 6.171 12.576 2.738 2.194 5.931 3.216 9.357 3.517 5.642.495 12.314-.677 17.645-2.671l5.592-31.462h9.314l-6.438 36.99c-9.546 4.061-20.879 6.669-31.211 4.854C9.167 264.522 2.7 257.092.764 246.355c-1.166-6.47-.861-12.904.017-19.359 1.217-8.943 3.465-17.582 7.643-25.632 4.127-7.951 10.174-13.793 18.825-16.614 4.779-1.559 9.716-2.128 14.734-1.874 6.447.326 12.771 1.416 18.982 3.171.264.075.521.172.896.298zm73.204 75.832h-6.541l-.003-4.209c-1.071.668-1.93 1.232-2.813 1.751-5.843 3.426-12.022 4.453-18.557 2.417-4.483-1.396-7.387-4.518-8.998-8.854-1.7-4.574-1.778-9.335-1.334-14.111.528-5.681 1.592-11.266 3.669-16.604 1.941-4.988 4.504-9.562 8.94-12.849 4.008-2.969 8.609-3.952 13.44-4.078 5.842-.152 11.498 1.034 16.966 2.979 2.846 1.012 4.054 1.965 4.054 1.965l-8.823 51.593zm-.155-47.34c-2.875-.91-5.906-1.62-8.857-1.985-3.436-.426-6.881-.251-10.041 1.485-3.346 1.837-5.454 4.77-6.737 8.225a74.149 74.149 0 0 0-2.855 9.604c-1.051 4.693-1.762 9.45-1.187 14.305.772 6.511 4.774 9.818 11.231 9.344 4.22-.311 7.922-1.957 11.431-4.15.375-.234.774-.536.774-.536l6.241-36.292zm55.038 2.997c-.371-3.669-1.751-6.802-4.855-8.986-3.464-2.438-7.398-2.956-11.471-2.571-5.045.477-9.63 2.339-13.893 5.034l-.053.032.711-3.982.008-.018-8.121-.01-9.943 54.843h8.242l7.811-43.53s.341-.152.782-.383c2.18-1.139 4.375-2.271 6.649-3.199 2.839-1.157 5.83-1.681 8.919-1.487 4.777.3 7.38 3.327 6.896 8.094a70.08 70.08 0 0 1-.71 5.097l-6.271 35.41h8.3l5.621-31.515c.74-4.241 1.821-8.456 1.378-12.829zm-111.176-6.275l.804-4.584H71.31l-9.659 55.202H69.9l7.271-41.081s.67-.854 1.016-1.19c4.234-4.133 9.173-7.561 15.099-7.029 1.479.133 3.121.338 4.632.763l1.225-6.954c-7.768-2.11-14.462-.435-20.371 4.873zm158.29-25.97l-3.938 22.365c-.79-.178-1.466-.325-2.139-.482-4.544-1.062-9.109-1.785-13.812-1.368-7.696.683-13.36 4.462-17.064 11.157-2.657 4.804-4.213 10.018-5.175 15.402-1.03 5.768-1.748 11.557-.547 17.399 1.143 5.558 3.903 9.921 9.44 11.891 5.786 2.059 11.5 1.435 16.984-1.238 1.1-.536 2.151-1.176 3.255-1.84l-.586 3.299 1.761.001v.002h6.502l13.573-76.588h-8.254zm-12.645 66.45c-3.382 2.051-6.908 3.668-10.941 3.79-3.189.097-6.254-.279-8.551-2.868-1.673-1.885-2.301-4.196-2.6-6.619-.574-4.65.126-9.228 1.174-13.713.884-3.782 1.95-7.576 3.447-11.15 2.543-6.072 7.328-8.775 13.909-8.515 3.75.148 7.342 1.023 10.97 2.024l-6.332 36.355s-.521.36-1.076.696zm167.479-66.45l-3.938 22.365c-.79-.178-1.466-.325-2.14-.482-4.544-1.062-9.109-1.785-13.812-1.368-7.697.683-13.361 4.462-17.065 11.157-2.657 4.804-4.213 10.018-5.175 15.402-1.03 5.768-1.747 11.557-.547 17.399 1.143 5.558 3.904 9.921 9.44 11.891 5.786 2.059 11.501 1.435 16.984-1.238 1.1-.536 2.152-1.176 3.256-1.84l-.587 3.299 1.762.001v.002h6.501l13.573-76.588h-8.252zm-12.646 66.45c-3.382 2.051-6.908 3.668-10.941 3.79-3.189.097-6.254-.279-8.551-2.868-1.672-1.885-2.301-4.196-2.6-6.619-.574-4.65.126-9.228 1.175-13.713.884-3.782 1.95-7.576 3.446-11.15 2.544-6.072 7.328-8.775 13.909-8.515 3.75.148 7.342 1.023 10.97 2.024l-6.332 36.355s-.521.36-1.076.696zm-115.81-66.593h-8.163l-1.828 10.142h8.162zm-4.022 21.758h-8.163l-9.691 54.973h8.164zm21.872 7.414h15.508l1.333-7.414H282.54l3.821-21.758h-8.896l-3.821 21.758h-8.204l-1.333 7.414h8.235s-5.252 29.499-5.977 35.348c-.454 3.66.414 7.152 3.282 9.847 1.865 1.752 4.166 2.502 6.607 2.979 5.017.979 9.829.115 14.642-1.402-.501-2.491-.973-4.837-1.405-6.993-3.028.302-5.782.793-8.537.799-3.987.009-5.65-1.944-5.463-5.898.04-.848.073-1.705.218-2.539 1.859-10.716 3.749-21.424 5.581-32.141zm-11.158 12.415l7.361-41.587m69.615 22.125l.062-.349h-8.455l-.062.349h-.001l-.557 3.13-7.298 41.02-1.007.538c-2.109 1.104-4.135 2.15-6.341 3.038-3.075 1.236-6.293 1.873-9.642 1.663-4.329-.271-6.606-2.47-6.85-6.796a17.39 17.39 0 0 1 .248-3.905l6.911-39.055-8.531.019s-7.922 41.769-7.164 46.124c.576 3.309 1.985 6.026 4.651 8.23 1.972 1.63 6.717 2.447 10.46 2.347 5.729-.153 10.888-1.595 15.698-4.614.08-.051.167-.103.249-.153l-.537 3.021h8.568l7.004-39.859 2.622-14.747h-.028zm90.935 29.888h-32.998c-.503 3.891-.67 7.656.739 11.341 1.564 4.087 4.687 6.078 8.871 6.632 5.315.703 10.379-.402 15.337-2.208.569-.207 1.14-.407 1.877-.671l2.26 7.18c-3.448 1.163-7.917 2.288-10.226 2.708-2.294.418-8.354 1.006-12.549.147-8.314-1.699-12.993-6.446-14.576-14.719-.96-5.015-.429-9.972.516-14.905 1.25-6.532 3.525-12.646 7.426-18.115 5.539-7.767 16.2-11.158 25.065-7.735 5.847 2.258 8.752 6.892 9.774 12.875.868 5.078.035 10.057-.941 15.022-.15.768-.356 1.524-.575 2.448zm-32.112-6.719h25.437c.151-2.357.356-5.608.169-7.948-.261-3.248-1.137-6.459-4.228-8.185-4.15-2.315-8.373-1.868-12.321.629-3.275 2.071-5.239 5.258-6.663 8.759-.217.529-1.65 4.178-2.394 6.745zM248.618 0l-71.3 13.317-21.657 56.201 81.237 11.719zm4.935.673l-11.837 81.22 32.247 4.7 9.808-70.471zm-98.246 73.7l10.305 55.179 43.495 16.762 9.072-62.872zm58.666 72.7l31.033-5.795 9.427-24.463-35.36-5.1zm41.509-35.064l-2.502-13.393-10.556-4.07-2.202 15.261z"/></svg>