<?xml version="1.0" encoding="utf-8"?>
<!-- Generator: Adobe Illustrator 16.0.0, SVG Export Plug-In . SVG Version: 6.00 Build 0)  -->
<!DOCTYPE svg PUBLIC "-//W3C//DTD SVG 1.1//EN" "http://www.w3.org/Graphics/SVG/1.1/DTD/svg11.dtd">
<svg version="1.1" id="Lager_1" xmlns="http://www.w3.org/2000/svg" xmlns:xlink="http://www.w3.org/1999/xlink" x="0px" y="0px"
	 width="439.924px" height="267.067px" viewBox="0 0 439.924 267.067" enable-background="new 0 0 439.924 267.067"
	 xml:space="preserve">
<g>
	<g>
		<path fill="#007B8A" d="M61.861,186.345l-1.94,7.86c-1.915-0.439-3.804-0.88-5.694-1.306c-5.798-1.305-11.655-2.064-17.605-1.639
			c-8.15,0.584-14.283,4.523-18.486,11.472c-4.048,6.691-6.106,14.084-7.438,21.715c-1.054,6.04-1.663,12.116-0.813,18.228
			c0.672,4.838,2.144,9.348,6.171,12.576c2.738,2.194,5.931,3.216,9.357,3.517c5.642,0.495,12.314-0.677,17.645-2.671l0,0
			l5.592-31.462h9.314l-6.438,36.99l0,0c-9.546,4.061-20.879,6.669-31.211,4.854c-11.148-1.957-17.615-9.387-19.551-20.124
			c-1.166-6.47-0.861-12.904,0.017-19.359c1.217-8.943,3.465-17.582,7.643-25.632c4.127-7.951,10.174-13.793,18.825-16.614
			c4.779-1.559,9.716-2.128,14.734-1.874c6.447,0.326,12.771,1.416,18.982,3.171C61.229,186.122,61.486,186.219,61.861,186.345z"/>
	</g>
	<g>
		<path fill="#007B8A" d="M135.065,262.177h-6.541l-0.003-4.209c-1.071,0.668-1.93,1.232-2.813,1.751
			c-5.843,3.426-12.022,4.453-18.557,2.417c-4.483-1.396-7.387-4.518-8.998-8.854c-1.7-4.574-1.778-9.335-1.334-14.111
			c0.528-5.681,1.592-11.266,3.669-16.604c1.941-4.988,4.504-9.562,8.94-12.849c4.008-2.969,8.609-3.952,13.44-4.078
			c5.842-0.152,11.498,1.034,16.966,2.979c2.846,1.012,4.054,1.965,4.054,1.965L135.065,262.177z M134.91,214.837
			c-2.875-0.91-5.906-1.62-8.857-1.985c-3.436-0.426-6.881-0.251-10.041,1.485c-3.346,1.837-5.454,4.77-6.737,8.225
			c-1.161,3.125-2.127,6.35-2.855,9.604c-1.051,4.693-1.762,9.45-1.187,14.305c0.772,6.511,4.774,9.818,11.231,9.344
			c4.22-0.311,7.922-1.957,11.431-4.15c0.375-0.234,0.774-0.536,0.774-0.536L134.91,214.837z"/>
	</g>
	<path fill="#007B8A" d="M189.948,217.834c-0.371-3.669-1.751-6.802-4.855-8.986c-3.464-2.438-7.398-2.956-11.471-2.571
		c-5.045,0.477-9.63,2.339-13.893,5.034c-0.018,0.011-0.035,0.021-0.053,0.032l0.711-3.982l0.008-0.018l-8.121-0.01l-9.943,54.843
		c-0.129,0,8.242,0,8.242,0l7.811-43.53c0,0,0.341-0.152,0.782-0.383c2.18-1.139,4.375-2.271,6.649-3.199
		c2.839-1.157,5.83-1.681,8.919-1.487c4.777,0.3,7.38,3.327,6.896,8.094c-0.173,1.705-0.412,3.408-0.71,5.097l-6.271,35.41h8.3
		l5.621-31.515C189.31,226.422,190.391,222.207,189.948,217.834z"/>
	<path fill="#007B8A" d="M78.772,211.559l0.804-4.584h-1.763c-1.848,0-6.395,0-6.493,0c-0.001,0-0.01,0-0.01,0l-9.659,55.202
		c0.021,0,8.249,0,8.249,0l7.271-41.081c0,0,0.67-0.854,1.016-1.19c4.234-4.133,9.173-7.561,15.099-7.029
		c1.479,0.133,3.121,0.338,4.632,0.763l1.225-6.954C91.375,204.576,84.681,206.251,78.772,211.559z"/>
	<path fill="#007B8A" d="M237.062,185.589l-3.938,22.365c-0.79-0.178-1.466-0.325-2.139-0.482
		c-4.544-1.062-9.109-1.785-13.812-1.368c-7.696,0.683-13.36,4.462-17.064,11.157c-2.657,4.804-4.213,10.018-5.175,15.402
		c-1.03,5.768-1.748,11.557-0.547,17.399c1.143,5.558,3.903,9.921,9.44,11.891c5.786,2.059,11.5,1.435,16.984-1.238
		c1.1-0.536,2.151-1.176,3.255-1.84l-0.586,3.299l1.761,0.001c0,0,0,0.001,0,0.002h6.502l13.573-76.588H237.062z M224.417,252.039
		c-3.382,2.051-6.908,3.668-10.941,3.79c-3.189,0.097-6.254-0.279-8.551-2.868c-1.673-1.885-2.301-4.196-2.6-6.619
		c-0.574-4.65,0.126-9.228,1.174-13.713c0.884-3.782,1.95-7.576,3.447-11.15c2.543-6.072,7.328-8.775,13.909-8.515
		c3.75,0.148,7.342,1.023,10.97,2.024l-6.332,36.355C225.493,251.343,224.972,251.703,224.417,252.039z"/>
	<path fill="#007B8A" d="M391.896,185.589l-3.938,22.365c-0.79-0.178-1.466-0.325-2.14-0.482c-4.544-1.062-9.109-1.785-13.812-1.368
		c-7.697,0.683-13.361,4.462-17.065,11.157c-2.657,4.804-4.213,10.018-5.175,15.402c-1.03,5.768-1.747,11.557-0.547,17.399
		c1.143,5.558,3.904,9.921,9.44,11.891c5.786,2.059,11.501,1.435,16.984-1.238c1.1-0.536,2.152-1.176,3.256-1.84l-0.587,3.299
		l1.762,0.001c0,0,0,0.001,0,0.002h6.501l13.573-76.588H391.896z M379.25,252.039c-3.382,2.051-6.908,3.668-10.941,3.79
		c-3.189,0.097-6.254-0.279-8.551-2.868c-1.672-1.885-2.301-4.196-2.6-6.619c-0.574-4.65,0.126-9.228,1.175-13.713
		c0.884-3.782,1.95-7.576,3.446-11.15c2.544-6.072,7.328-8.775,13.909-8.515c3.75,0.148,7.342,1.023,10.97,2.024l-6.332,36.355
		C380.326,251.343,379.805,251.703,379.25,252.039z"/>
	<polygon fill="#007B8A" points="263.44,185.446 255.277,185.446 253.449,195.588 261.611,195.588 	"/>
	<polygon fill="#007B8A" points="259.418,207.204 251.255,207.204 241.564,262.177 249.728,262.177 	"/>
	<path fill="#007B8A" d="M281.29,214.618h15.508l1.333-7.414H282.54l3.821-21.758h-8.896l-3.821,21.758h-8.204l-1.333,7.414h8.235
		c0,0-5.252,29.499-5.977,35.348c-0.454,3.66,0.414,7.152,3.282,9.847c1.865,1.752,4.166,2.502,6.607,2.979
		c5.017,0.979,9.829,0.115,14.642-1.402c-0.501-2.491-0.973-4.837-1.405-6.993c-3.028,0.302-5.782,0.793-8.537,0.799
		c-3.987,0.009-5.65-1.944-5.463-5.898c0.04-0.848,0.073-1.705,0.218-2.539C277.568,236.043,279.458,225.335,281.29,214.618z"/>
	<line fill="#007B8A" x1="270.132" y1="227.033" x2="277.493" y2="185.446"/>
	<path fill="#007B8A" d="M347.108,207.571c0.021-0.114,0.042-0.236,0.062-0.349h-8.455l-0.062,0.349h-0.001l-0.557,3.13
		l-7.298,41.02l-1.007,0.538c-2.109,1.104-4.135,2.15-6.341,3.038c-3.075,1.236-6.293,1.873-9.642,1.663
		c-4.329-0.271-6.606-2.47-6.85-6.796c-0.072-1.295,0.026-2.626,0.248-3.905l6.911-39.055l-8.531,0.019
		c0,0-7.922,41.769-7.164,46.124c0.576,3.309,1.985,6.026,4.651,8.23c1.972,1.63,6.717,2.447,10.46,2.347
		c5.729-0.153,10.888-1.595,15.698-4.614c0.08-0.051,0.167-0.103,0.249-0.153l-0.537,3.021h8.568c0,0,3.712-21.124,7.004-39.859
		l2.622-14.747H347.108z"/>
	<g>
		<path fill="#007B8A" d="M438.043,237.459h-32.998c-0.503,3.891-0.67,7.656,0.739,11.341c1.564,4.087,4.687,6.078,8.871,6.632
			c5.315,0.703,10.379-0.402,15.337-2.208c0.569-0.207,1.14-0.407,1.877-0.671c0.736,2.339,1.438,4.567,2.26,7.18
			c-3.448,1.163-7.917,2.288-10.226,2.708c-2.294,0.418-8.354,1.006-12.549,0.147c-8.314-1.699-12.993-6.446-14.576-14.719
			c-0.96-5.015-0.429-9.972,0.516-14.905c1.25-6.532,3.525-12.646,7.426-18.115c5.539-7.767,16.2-11.158,25.065-7.735
			c5.847,2.258,8.752,6.892,9.774,12.875c0.868,5.078,0.035,10.057-0.941,15.022C438.468,235.779,438.262,236.535,438.043,237.459z
			 M405.931,230.74h25.437c0.151-2.357,0.356-5.608,0.169-7.948c-0.261-3.248-1.137-6.459-4.228-8.185
			c-4.15-2.315-8.373-1.868-12.321,0.629c-3.275,2.071-5.239,5.258-6.663,8.759C408.108,224.524,406.675,228.173,405.931,230.74z"/>
	</g>
</g>
<g>
	<polygon fill="#007B8A" points="248.618,0 177.318,13.317 155.661,69.518 236.898,81.237 	"/>
	<polygon fill="#007B8A" points="253.553,0.673 241.716,81.893 273.963,86.593 283.771,16.122 	"/>
	<polygon fill="#007B8A" points="155.307,74.373 165.612,129.552 209.107,146.314 218.179,83.442 	"/>
	<polygon fill="#007B8A" points="213.973,147.073 245.006,141.278 254.433,116.815 219.073,111.715 	"/>
	<polygon fill="#007B8A" points="255.482,112.009 252.98,98.616 242.424,94.546 240.222,109.807 	"/>
</g>
</svg>
