<?xml version="1.0" encoding="utf-8"?>
<!-- Generator: Adobe Illustrator 16.0.0, SVG Export Plug-In . SVG Version: 6.00 Build 0)  -->
<!DOCTYPE svg PUBLIC "-//W3C//DTD SVG 1.1//EN" "http://www.w3.org/Graphics/SVG/1.1/DTD/svg11.dtd">
<svg version="1.1" id="Layer_1" xmlns="http://www.w3.org/2000/svg" xmlns:xlink="http://www.w3.org/1999/xlink" x="0px" y="0px"
	 width="443.277px" height="203.485px" viewBox="0 0 443.277 203.485" enable-background="new 0 0 443.277 203.485"
	 xml:space="preserve">
<g id="Profile_3_">
	<path fill="none" stroke="#FFFFFF" stroke-width="2" stroke-miterlimit="10" d="M20.724,12.667
		c-1.322,1.685-3.371,2.771-5.678,2.771c-2.346,0-4.425-1.125-5.743-2.858c-4.455,4.891-3.939,10.457-3.939,10.457
		S5.345,25,15.074,25c9.521,0,9.503-1.963,9.503-1.963S25.092,17.537,20.724,12.667z"/>
	<circle fill="none" stroke="#FFFFFF" stroke-width="2" stroke-miterlimit="10" cx="15.045" cy="8.219" r="7.219"/>
</g>
<path id="Friends_3_" fill="none" stroke="#FFFFFF" stroke-width="2" stroke-miterlimit="10" d="M83.748,1
	c-8.213,0-14.871,4.624-14.871,10.328c0,3.172,2.063,6.008,5.304,7.902l-3.139,3.921c0,0-0.776,0.918-0.093,1.546
	c0.719,0.662,2.058,0.031,2.058,0.031l7.374-3.331c0,0,0.086,0.02,0,0c1.083,0.175,2.207,0.259,3.367,0.259
	c8.213,0,14.871-4.623,14.871-10.328C98.619,5.624,91.96,1,83.748,1z"/>
<path id="Library_3_" fill="none" stroke="#FFFFFF" stroke-width="2" stroke-miterlimit="10" d="M152.575,17.617
	c0.871,0,4.321,0.041,5.232,0.082c0.911,0.04,1.386,1.289,1.386,1.289c0.277,0.727,1.704,3.671,2.694,5.041
	c0.99,1.371,2.614,0.889,2.614,0.889c3.248-0.525,3.863-3.449,3.863-3.449c1.068-4.113-2.199-16.454-3.744-18.51
	c-1.544-2.058-12.045-1.958-12.045-1.958s-10.501-0.1-12.046,1.958c-1.544,2.056-4.812,14.396-3.743,18.51
	c0,0,0.614,2.924,3.862,3.449c0,0,1.624,0.482,2.614-0.889c0.99-1.37,2.417-4.314,2.694-5.041c0,0,0.475-1.249,1.386-1.289
	C148.254,17.658,151.704,17.617,152.575,17.617z"/>
<g id="Store_3_">
	<ellipse fill="#FFFFFF" stroke="#FFFFFF" stroke-miterlimit="10" cx="215.685" cy="23.24" rx="2" ry="2.035"/>
	<ellipse fill="#FFFFFF" stroke="#FFFFFF" stroke-miterlimit="10" cx="229.531" cy="23.24" rx="2" ry="2.035"/>
	<g>
		<path fill="none" stroke="#FFFFFF" stroke-width="2" stroke-miterlimit="10" d="M212.277,12h18.864c0,0,1.638-0.016,1.979-1.225
			l1.978-7.104c0-1.148-0.988-1.671-0.988-1.671h-9.891h-11.941"/>
		<path fill="none" stroke="#FFFFFF" stroke-width="2" stroke-linecap="round" stroke-miterlimit="10" d="M230.277,18H215.75
			c0,0-1.422-0.178-1.422-1.324L212.35,2.213c0-1.146-1.422-1.213-1.422-1.213h-3.65"/>
	</g>
</g>
<g id="Commnity_2_">
	<g>
		<circle fill="none" stroke="#FFFFFF" stroke-width="2" stroke-miterlimit="10" cx="302.305" cy="7.38" r="4.512"/>
	</g>
	<g>
		<circle fill="none" stroke="#FFFFFF" stroke-width="2" stroke-miterlimit="10" cx="290.283" cy="8.219" r="7.219"/>
	</g>
	<g>
		<g>
			<circle fill="none" stroke="#FFFFFF" stroke-width="2" stroke-miterlimit="10" cx="278.205" cy="7.38" r="4.512"/>
		</g>
		<path fill="none" stroke="#FFFFFF" stroke-width="2" stroke-miterlimit="10" d="M283.672,13.417
			c-0.35-1.019-0.936-2.163-1.916-3.257c-0.828,1.053-2.107,1.732-3.551,1.732c-1.465,0-2.764-0.703-3.588-1.787
			c-2.785,3.057-2.463,6.535-2.463,6.535s-0.01,1.227,6.068,1.227c1.236,0,2.215-0.053,2.99-0.137"/>
	</g>
	<path fill="none" stroke="#FFFFFF" stroke-width="2" stroke-miterlimit="10" d="M295.961,12.667
		c-1.32,1.685-3.369,2.771-5.678,2.771c-2.346,0-4.424-1.125-5.742-2.858c-4.455,4.892-3.938,10.458-3.938,10.458
		S280.584,25,290.311,25c9.523,0,9.504-1.963,9.504-1.963S300.33,17.536,295.961,12.667z"/>
	<g>
		<g>
			<circle fill="none" stroke="#FFFFFF" stroke-width="2" stroke-miterlimit="10" cx="302.449" cy="7.38" r="4.512"/>
		</g>
		<path fill="none" stroke="#FFFFFF" stroke-width="2" stroke-miterlimit="10" d="M296.982,13.417
			c0.35-1.019,0.938-2.163,1.918-3.257c0.826,1.053,2.107,1.732,3.549,1.732c1.465,0,2.766-0.703,3.59-1.787
			c2.783,3.057,2.461,6.535,2.461,6.535s0.012,1.227-6.068,1.227c-1.234,0-2.213-0.053-2.988-0.137"/>
	</g>
</g>
<g id="Guard_3_">
	<path fill="none" stroke="#FFFFFF" stroke-width="2" stroke-miterlimit="10" d="M367.277,21.93c0,1.695-1.375,3.07-3.071,3.07
		h-10.857c-1.696,0-3.071-1.375-3.071-3.07V15.07c0-1.695,1.375-3.07,3.071-3.07h10.857c1.696,0,3.071,1.375,3.071,3.07V21.93z"/>
	<path fill="none" stroke="#FFFFFF" stroke-width="2" stroke-linecap="round" stroke-miterlimit="10" d="M363.736,6.373
		c0,0-0.272-5.188-5.729-5.188s-5.729,5.257-5.729,5.257V11"/>
</g>
<g id="Emoji_2_">
	
		<circle fill="none" stroke="#FFFFFF" stroke-width="2" stroke-linecap="round" stroke-miterlimit="10" cx="83.748" cy="72.96" r="12"/>
	<g>
		<g>
			<circle fill="#FFFFFF" stroke="#FFFFFF" stroke-miterlimit="10" cx="80.04" cy="70.294" r="2"/>
			<circle fill="#FFFFFF" stroke="#FFFFFF" stroke-miterlimit="10" cx="87.04" cy="70.294" r="2"/>
		</g>
	</g>
</g>
<g id="Image_2_">
	<g>
		<path fill="none" stroke="#FFFFFF" stroke-width="2" stroke-miterlimit="10" d="M238.277,80.446c0,2.379-2.779,4.554-4.86,4.554
			h-24.541c-2.082,0-3.599-2.175-3.599-4.554V65.001c0-2.379,1.517-4.001,3.599-4.001h24.541c2.081,0,4.86,1.622,4.86,4.001V80.446z
			"/>
	</g>
	<circle fill="none" stroke="#FFFFFF" stroke-width="2" stroke-miterlimit="10" cx="221.106" cy="73.284" r="6.015"/>
</g>
<g id="More_4_">
	<ellipse fill="#FFFFFF" stroke="#FFFFFF" stroke-miterlimit="10" cx="428.239" cy="22.33" rx="3.066" ry="2.945"/>
	<ellipse fill="#FFFFFF" stroke="#FFFFFF" stroke-miterlimit="10" cx="428.239" cy="13.275" rx="3.066" ry="2.945"/>
	<ellipse fill="#FFFFFF" stroke="#FFFFFF" stroke-miterlimit="10" cx="428.239" cy="4.221" rx="3.066" ry="2.944"/>
</g>
<polygon fill="none" stroke="#FFFFFF" stroke-width="2" stroke-linecap="round" stroke-linejoin="round" stroke-miterlimit="10" points="
	141.277,83.333 141.277,62.667 163.713,73.211 "/>
<g id="Caret_14_">
	
		<line fill="none" stroke="#FFFFFF" stroke-width="4" stroke-linecap="round" stroke-miterlimit="10" x1="14.971" y1="182.451" x2="27.941" y2="195.422"/>
	
		<line fill="none" stroke="#FFFFFF" stroke-width="4" stroke-linecap="round" stroke-miterlimit="10" x1="2" y1="195.422" x2="14.971" y2="182.451"/>
</g>
<g id="Edit_1_">
	<path fill="none" stroke="#FFFFFF" stroke-width="3" stroke-linecap="round" stroke-miterlimit="10" d="M71.748,145l6.11-0.159
		l17.499-17.116c0,0,1.049-1.326-0.288-2.662c-1.338-1.338-1.681-1.682-1.681-1.682s-0.385-0.385-1.722-1.722
		c-1.337-1.337-2.658-0.283-2.658-0.283l-17.11,17.503L71.748,145"/>
</g>
<g id="Settings_1_">
	<g>
		<g>
			<path fill="none" stroke="#FFFFFF" stroke-width="2" stroke-linecap="round" stroke-miterlimit="10" d="M164.575,131.293v3.471
				c0,0.123-0.043,0.246-0.131,0.365c-0.088,0.121-0.188,0.186-0.301,0.197l-2.906,0.449c-0.137,0.438-0.336,0.912-0.6,1.426
				c0.424,0.6,0.988,1.318,1.688,2.156c0.086,0.125,0.131,0.25,0.131,0.375c0,0.148-0.045,0.268-0.131,0.355
				c-0.287,0.375-0.803,0.934-1.547,1.68c-0.744,0.742-1.234,1.113-1.473,1.113c-0.137,0-0.268-0.043-0.395-0.131l-2.156-1.688
				c-0.461,0.238-0.941,0.432-1.441,0.582c-0.139,1.35-0.281,2.32-0.432,2.906c-0.088,0.299-0.275,0.449-0.562,0.449h-3.488
				c-0.137,0-0.262-0.047-0.375-0.141c-0.111-0.094-0.174-0.203-0.188-0.328l-0.43-2.867c-0.426-0.127-0.895-0.32-1.406-0.582
				l-2.213,1.668c-0.088,0.088-0.213,0.131-0.375,0.131c-0.139,0-0.27-0.051-0.395-0.15c-1.801-1.66-2.699-2.662-2.699-2.998
				c0-0.113,0.043-0.232,0.131-0.355c0.125-0.176,0.381-0.508,0.768-0.996c0.389-0.486,0.684-0.869,0.883-1.143
				c-0.289-0.551-0.508-1.064-0.658-1.539l-2.85-0.447c-0.123-0.014-0.23-0.072-0.318-0.18c-0.088-0.105-0.131-0.229-0.131-0.365
				v-3.469c0-0.125,0.043-0.248,0.131-0.365c0.088-0.119,0.188-0.184,0.301-0.197l2.906-0.451c0.137-0.438,0.338-0.912,0.6-1.426
				c-0.426-0.598-0.986-1.318-1.688-2.156c-0.086-0.135-0.131-0.26-0.131-0.373c0-0.15,0.045-0.275,0.131-0.375
				c0.275-0.375,0.789-0.934,1.537-1.668c0.75-0.738,1.244-1.107,1.482-1.107c0.137,0,0.268,0.045,0.393,0.131l2.156,1.688
				c0.426-0.227,0.906-0.426,1.445-0.598c0.137-1.352,0.279-2.314,0.43-2.889c0.088-0.301,0.275-0.451,0.562-0.451h3.488
				c0.137,0,0.262,0.047,0.375,0.143c0.111,0.092,0.176,0.201,0.188,0.328l0.432,2.869c0.424,0.123,0.893,0.316,1.404,0.578
				l2.213-1.668c0.1-0.086,0.227-0.131,0.375-0.131c0.139,0,0.27,0.051,0.395,0.15c1.801,1.662,2.699,2.664,2.699,3
				c0,0.113-0.043,0.232-0.131,0.355c-0.15,0.201-0.412,0.537-0.787,1.014c-0.375,0.475-0.656,0.85-0.844,1.125
				c0.287,0.6,0.5,1.111,0.639,1.537l2.85,0.432c0.125,0.023,0.23,0.092,0.318,0.197S164.575,131.156,164.575,131.293z"/>
		</g>
	</g>
	<circle fill="#FFFFFF" stroke="#FFFFFF" stroke-miterlimit="10" cx="152.574" cy="133" r="3"/>
</g>
<g id="Save_1_">
	<path fill="none" stroke="#FFFFFF" stroke-width="2" stroke-miterlimit="10" d="M229.479,121H212.95
		c-2.538,0-3.672,1.417-3.672,3.877v15.495c0,2.461,3.134,4.628,5.672,4.628h14.808c2.539,0,3.52-2.167,3.52-4.628V125.5
		L229.479,121z"/>
	<path fill="none" stroke="#FFFFFF" stroke-width="2" stroke-miterlimit="10" d="M213.277,144v-7.735
		c0-1.64,0.483-2.265,2.175-2.265h12.014c1.691,0,1.811,0.625,1.811,2.265V144"/>
	<g>
		<path fill="#FFFFFF" stroke="#FFFFFF" stroke-width="2" stroke-miterlimit="10" d="M226.277,128.124
			c0,0.704-0.637,0.876-1.363,0.876h-10.121c-0.727,0-1.516-0.172-1.516-0.876V121.9c0-0.705,0.79-0.9,1.516-0.9h10.121
			c0.727,0,1.363,0.195,1.363,0.9V128.124z"/>
		<path fill="#1A2839" stroke="#FFFFFF" stroke-miterlimit="10" d="M225.453,127.43c-0.012,0.701-0.607,1.26-1.33,1.25l-1.131-0.018
			c-0.724-0.012-1.3-0.589-1.289-1.289l0.053-4.778c0.012-0.701,0.606-1.261,1.33-1.25l1.131,0.017
			c0.723,0.012,1.299,0.589,1.289,1.29L225.453,127.43z"/>
	</g>
</g>
<g id="Search_3_">
	
		<line fill="none" stroke="#FFFFFF" stroke-width="3" stroke-linecap="round" stroke-miterlimit="10" x1="295.594" y1="138.384" x2="302.21" y2="145"/>
	
		<circle fill="none" stroke="#FFFFFF" stroke-width="3" stroke-linecap="round" stroke-miterlimit="10" cx="288.084" cy="131.252" r="9.875"/>
</g>
<g id="Add_4_">
	
		<line fill="none" stroke="#FFFFFF" stroke-width="4" stroke-linecap="round" stroke-miterlimit="10" x1="15.277" y1="121" x2="15.277" y2="145"/>
	
		<line fill="none" stroke="#FFFFFF" stroke-width="4" stroke-linecap="round" stroke-miterlimit="10" x1="3.277" y1="133" x2="27.277" y2="133"/>
</g>
<g id="Caret_13_">
	
		<line fill="none" stroke="#FFFFFF" stroke-width="4" stroke-linecap="round" stroke-miterlimit="10" x1="83.748" y1="199.242" x2="70.777" y2="186.271"/>
	
		<line fill="none" stroke="#FFFFFF" stroke-width="4" stroke-linecap="round" stroke-miterlimit="10" x1="96.718" y1="186.271" x2="83.748" y2="199.242"/>
</g>
<g id="Caret_12_">
	
		<line fill="none" stroke="#FFFFFF" stroke-width="4" stroke-linecap="round" stroke-miterlimit="10" x1="214.81" y1="188.515" x2="227.78" y2="175.544"/>
	
		<line fill="none" stroke="#FFFFFF" stroke-width="4" stroke-linecap="round" stroke-miterlimit="10" x1="227.78" y1="201.485" x2="214.81" y2="188.515"/>
</g>
<g id="Caret_11_">
	
		<line fill="none" stroke="#FFFFFF" stroke-width="4" stroke-linecap="round" stroke-miterlimit="10" x1="159.284" y1="188.515" x2="146.313" y2="201.485"/>
	
		<line fill="none" stroke="#FFFFFF" stroke-width="4" stroke-linecap="round" stroke-miterlimit="10" x1="146.313" y1="175.544" x2="159.284" y2="188.515"/>
</g>
<g id="Add_3_">
	
		<line fill="none" stroke="#FFFFFF" stroke-width="4" stroke-linecap="round" stroke-miterlimit="10" x1="368.029" y1="178.271" x2="351.059" y2="195.242"/>
	
		<line fill="none" stroke="#FFFFFF" stroke-width="4" stroke-linecap="round" stroke-miterlimit="10" x1="351.059" y1="178.271" x2="368.029" y2="195.242"/>
</g>
<g id="Caret_3_">
	
		<line fill="none" stroke="#FFFFFF" stroke-width="4" stroke-linecap="round" stroke-miterlimit="10" x1="287.566" y1="195.422" x2="281.053" y2="188.907"/>
	
		<line fill="none" stroke="#FFFFFF" stroke-width="4" stroke-linecap="round" stroke-miterlimit="10" x1="300.537" y1="182.451" x2="287.566" y2="195.422"/>
</g>
<g>
	<g id="Caret_2_">
		<path fill="none" stroke="#FFFFFF" stroke-width="3" stroke-linecap="round" stroke-miterlimit="10" d="M420.322,189.163"/>
		
			<line fill="none" stroke="#FFFFFF" stroke-width="3" stroke-linecap="round" stroke-miterlimit="10" x1="436.473" y1="180.935" x2="420.322" y2="189.163"/>
	</g>
	<g id="Caret_1_">
		<path fill="none" stroke="#FFFFFF" stroke-width="3" stroke-linecap="round" stroke-miterlimit="10" d="M420.127,189.136"/>
		
			<line fill="none" stroke="#FFFFFF" stroke-width="3" stroke-linecap="round" stroke-miterlimit="10" x1="436.399" y1="197.119" x2="420.127" y2="189.136"/>
	</g>
	<circle fill="#FFFFFF" stroke="#FFFFFF" stroke-miterlimit="10" cx="419.776" cy="189.714" r="5.398"/>
	<circle fill="#FFFFFF" stroke="#FFFFFF" stroke-miterlimit="10" cx="436.702" cy="180.896" r="5.397"/>
	<circle fill="#FFFFFF" stroke="#FFFFFF" stroke-miterlimit="10" cx="436.568" cy="196.978" r="5.398"/>
</g>
<g>
	<path fill="none" stroke="#FFFFFF" stroke-width="2" stroke-miterlimit="10" d="M296.518,73.382
		c4.455-4.892,3.938-10.458,3.938-10.458s0.019-1.963-9.708-1.963c-9.523,0-9.503,1.963-9.503,1.963s-0.516,5.501,3.853,10.37
		c0,0,2.462,3.047,5.753,3.047C294.267,76.341,296.518,73.382,296.518,73.382z"/>
	<path fill="none" stroke="#FFFFFF" stroke-width="2" stroke-miterlimit="10" d="M287.673,78.003
		c-2.495,2.739-2.206,5.857-2.206,5.857s-0.01,1.1,5.438,1.1c5.335,0,5.323-1.1,5.323-1.1s0.289-3.081-2.158-5.809
		c0,0-1.379-1.707-3.223-1.707C288.934,76.345,287.673,78.003,287.673,78.003z"/>
	<path fill="none" stroke="#FFFFFF" stroke-width="2" stroke-miterlimit="10" d="M280.996,63.33c0,0-1.858,0.202-3.176,1.98
		c0,0-0.844,1.023-0.62,2.114c0.231,1.132,1.366,1.678,1.366,1.678c1.922,1.145,5.841,3.365,5.841,3.365"/>
	<path fill="none" stroke="#FFFFFF" stroke-width="2" stroke-miterlimit="10" d="M300.574,63.33c0,0,1.857,0.202,3.176,1.98
		c0,0,0.842,1.023,0.619,2.114c-0.232,1.132-1.365,1.678-1.365,1.678c-1.924,1.145-5.842,3.365-5.842,3.365"/>
</g>
<g>
	<path fill="#FFFFFF" d="M29.246,68.283c0,0.252-0.148,0.525-0.445,0.823l-6.229,6.073l1.476,8.58
		c0.012,0.079,0.017,0.193,0.017,0.342c0,0.572-0.234,0.858-0.703,0.858c-0.217,0-0.445-0.069-0.687-0.206l-7.703-4.049
		l-7.704,4.049c-0.252,0.137-0.48,0.206-0.687,0.206c-0.239,0-0.42-0.083-0.54-0.249S5.86,84.342,5.86,84.102
		c0-0.068,0.012-0.182,0.035-0.342l1.475-8.58l-6.245-6.073c-0.286-0.309-0.429-0.583-0.429-0.823c0-0.424,0.32-0.688,0.961-0.789
		l8.613-1.253l3.86-7.808c0.217-0.469,0.497-0.703,0.841-0.703c0.343,0,0.623,0.234,0.84,0.703l3.861,7.808l8.613,1.253
		C28.925,67.596,29.246,67.859,29.246,68.283z M20.204,74.408l5.251-5.096l-7.24-1.064l-3.243-6.554l-3.242,6.554l-7.241,1.064
		l5.25,5.096l-1.253,7.223l6.486-3.414l6.468,3.414L20.204,74.408z"/>
</g>
<g>
	<path fill="none" stroke="#FFFFFF" stroke-width="2.5" stroke-linecap="round" stroke-linejoin="round" stroke-miterlimit="10" d="
		M375.229,78.523c0,1.776-0.629,3.291-1.887,4.55c-1.258,1.257-2.775,1.887-4.551,1.887h-18.238c-2.066,0-3.834-0.737-5.304-2.206
		c-1.469-1.47-2.204-3.236-2.204-5.305c0-1.474,0.396-2.824,1.189-4.048c0.793-1.226,1.84-2.137,3.135-2.74
		c-0.021-0.313-0.033-0.553-0.033-0.721c0-2.369,0.836-4.395,2.514-6.067c1.678-1.678,3.699-2.516,6.066-2.516
		c1.768,0,3.367,0.491,4.805,1.476c1.436,0.984,2.484,2.269,3.145,3.856c0.779-0.695,1.709-1.039,2.781-1.039
		c1.184,0,2.195,0.418,3.033,1.256c0.84,0.839,1.258,1.85,1.258,3.034c0,0.839-0.229,1.607-0.688,2.312
		c1.441,0.334,2.633,1.087,3.57,2.255C374.76,75.675,375.229,77.015,375.229,78.523z"/>
</g>
<g>
	<path fill="#FFFFFF" stroke="#FFFFFF" stroke-width="4" stroke-linecap="round" stroke-miterlimit="10" d="M416.277,65h24
		 M416.277,75h24 M416.277,85h24"/>
</g>
<g>
	<g>
		<path fill="#FFFFFF" stroke="#FFFFFF" stroke-width="4" stroke-linecap="round" stroke-miterlimit="10" d="M426.277,124h15
			 M426.277,134h15 M426.277,144h15"/>
	</g>
	<g id="More_2_">
		<ellipse fill="#FFFFFF" stroke="#FFFFFF" stroke-miterlimit="10" cx="418.205" cy="143.055" rx="3.066" ry="2.945"/>
		<ellipse fill="#FFFFFF" stroke="#FFFFFF" stroke-miterlimit="10" cx="418.205" cy="134" rx="3.066" ry="2.945"/>
		<ellipse fill="#FFFFFF" stroke="#FFFFFF" stroke-miterlimit="10" cx="418.205" cy="124.945" rx="3.066" ry="2.944"/>
	</g>
</g>
<g>
	<path fill="none" stroke="#FFFFFF" stroke-width="2" stroke-miterlimit="10" d="M364.887,125.834h5.271
		c0.658,0,1.223,0.233,1.691,0.703c0.471,0.47,0.703,1.033,0.703,1.692v7.187h-26.832v-7.187c0-0.659,0.233-1.223,0.703-1.692
		s1.033-0.703,1.692-0.703h5.271H364.887z M372.553,135.416v7.188c0,0.66-0.232,1.224-0.703,1.693
		c-0.469,0.469-1.033,0.703-1.691,0.703h-22.042c-0.659,0-1.223-0.234-1.692-0.703c-0.47-0.47-0.703-1.033-0.703-1.693v-7.188
		h10.062v2.397c0,0.26,0.094,0.482,0.283,0.672c0.19,0.19,0.415,0.284,0.675,0.284h4.791c0.26,0,0.484-0.094,0.675-0.284
		c0.188-0.189,0.283-0.412,0.283-0.672v-2.397H372.553z"/>
</g>
</svg>
